<svg width="983" height="106" viewBox="0 0 983 106" fill="none" xmlns="http://www.w3.org/2000/svg">
<path d="M139.5 68.8887L132.5 68.8887L139.311 63.3289C139.323 63.319 139.334 63.2657 139.345 63.1744L134.833 63.1744L139.482 57.4827C139.485 57.0938 139.487 56.7033 139.49 56.3172L137.167 56.3172L139.5 52.8887L141.833 56.3172L139.49 56.3172C139.487 56.7033 139.485 57.0938 139.482 57.4827L139.5 57.4601L144.167 63.1744L139.5 63.1744L146.5 68.8887L139.5 68.8887Z" fill="black"/>
<path d="M139.5 76.8887L139.5 68.8887M139.5 68.8887L132.5 68.8887L139.311 63.3289M139.5 68.8887L146.5 68.8887L139.5 63.1744M139.5 68.8887L139.5 57.4601M139.5 63.1744L134.833 63.1744L139.5 57.4601M139.5 63.1744L144.167 63.1744L139.5 57.4601M139.5 63.1744L139.311 63.3289M139.311 63.3289C139.462 63.2053 139.5 56.3172 139.5 52.8887M139.5 52.8887L137.167 56.3172L141.833 56.3172L139.5 52.8887Z" stroke="black"/>
<path d="M107 88.8887L100 88.8887L106.811 83.3289C106.823 83.319 106.834 83.2657 106.845 83.1744L102.333 83.1744L106.982 77.4827C106.985 77.0938 106.987 76.7033 106.99 76.3172L104.667 76.3172L107 72.8887L109.333 76.3172L106.99 76.3172C106.987 76.7033 106.985 77.0938 106.982 77.4827L107 77.4601L111.667 83.1744L107 83.1744L114 88.8887L107 88.8887Z" fill="black"/>
<path d="M107 96.8887L107 88.8887M107 88.8887L100 88.8887L106.811 83.3289M107 88.8887L114 88.8887L107 83.1744M107 88.8887L107 77.4601M107 83.1744L102.333 83.1744L107 77.4601M107 83.1744L111.667 83.1744L107 77.4601M107 83.1744L106.811 83.3289M106.811 83.3289C106.962 83.2053 107 76.3172 107 72.8887M107 72.8887L104.667 76.3172L109.333 76.3172L107 72.8887Z" stroke="black"/>
<path d="M34 83.8887L27 83.8887L33.8108 78.3289C33.8229 78.319 33.8343 78.2657 33.845 78.1744L29.3333 78.1744L33.9816 72.4827C33.9847 72.0938 33.9874 71.7033 33.9897 71.3172L31.6667 71.3172L34 67.8887L36.3333 71.3172L33.9897 71.3172C33.9874 71.7033 33.9847 72.0938 33.9816 72.4827L34 72.4601L38.6667 78.1744L34 78.1744L41 83.8887L34 83.8887Z" fill="black"/>
<path d="M34 91.8887L34 83.8887M34 83.8887L27 83.8887L33.8108 78.3289M34 83.8887L41 83.8887L34 78.1744M34 83.8887L34 72.4601M34 78.1744L29.3333 78.1744L34 72.4601M34 78.1744L38.6667 78.1744L34 72.4601M34 78.1744L33.8108 78.3289M33.8108 78.3289C33.9622 78.2053 34 71.3172 34 67.8887M34 67.8887L31.6667 71.3172L36.3333 71.3172L34 67.8887Z" stroke="black"/>
<path d="M164.5 73.8887L157.5 73.8887L164.311 68.3289C164.323 68.319 164.334 68.2657 164.345 68.1744L159.833 68.1744L164.482 62.4827C164.485 62.0938 164.487 61.7033 164.49 61.3172L162.167 61.3172L164.5 57.8887L166.833 61.3172L164.49 61.3172C164.487 61.7033 164.485 62.0938 164.482 62.4827L164.5 62.4601L169.167 68.1744L164.5 68.1744L171.5 73.8887L164.5 73.8887Z" fill="black"/>
<path d="M164.5 81.8887L164.5 73.8887M164.5 73.8887L157.5 73.8887L164.311 68.3289M164.5 73.8887L171.5 73.8887L164.5 68.1744M164.5 73.8887L164.5 62.4601M164.5 68.1744L159.833 68.1744L164.5 62.4601M164.5 68.1744L169.167 68.1744L164.5 62.4601M164.5 68.1744L164.311 68.3289M164.311 68.3289C164.462 68.2053 164.5 61.3172 164.5 57.8887M164.5 57.8887L162.167 61.3172L166.833 61.3172L164.5 57.8887Z" stroke="black"/>
<path d="M343.5 61.8887L336.5 61.8887L343.311 56.3289C343.323 56.319 343.334 56.2657 343.345 56.1744L338.833 56.1744L343.482 50.4827C343.485 50.0938 343.487 49.7033 343.49 49.3172L341.167 49.3172L343.5 45.8887L345.833 49.3172L343.49 49.3172C343.487 49.7033 343.485 50.0938 343.482 50.4827L343.5 50.4601L348.167 56.1744L343.5 56.1744L350.5 61.8887L343.5 61.8887Z" fill="black"/>
<path d="M343.5 69.8887L343.5 61.8887M343.5 61.8887L336.5 61.8887L343.311 56.3289M343.5 61.8887L350.5 61.8887L343.5 56.1744M343.5 61.8887L343.5 50.4601M343.5 56.1744L338.833 56.1744L343.5 50.4601M343.5 56.1744L348.167 56.1744L343.5 50.4601M343.5 56.1744L343.311 56.3289M343.311 56.3289C343.462 56.2053 343.5 49.3172 343.5 45.8887M343.5 45.8887L341.167 49.3172L345.833 49.3172L343.5 45.8887Z" stroke="black"/>
<path d="M262.5 61.8887L255.5 61.8887L262.311 56.3289C262.323 56.319 262.334 56.2657 262.345 56.1744L257.833 56.1744L262.482 50.4827C262.485 50.0938 262.487 49.7033 262.49 49.3172L260.167 49.3172L262.5 45.8887L264.833 49.3172L262.49 49.3172C262.487 49.7033 262.485 50.0938 262.482 50.4827L262.5 50.4601L267.167 56.1744L262.5 56.1744L269.5 61.8887L262.5 61.8887Z" fill="black"/>
<path d="M262.5 69.8887L262.5 61.8887M262.5 61.8887L255.5 61.8887L262.311 56.3289M262.5 61.8887L269.5 61.8887L262.5 56.1744M262.5 61.8887L262.5 50.4601M262.5 56.1744L257.833 56.1744L262.5 50.4601M262.5 56.1744L267.167 56.1744L262.5 50.4601M262.5 56.1744L262.311 56.3289M262.311 56.3289C262.462 56.2053 262.5 49.3172 262.5 45.8887M262.5 45.8887L260.167 49.3172L264.833 49.3172L262.5 45.8887Z" stroke="black"/>
<path d="M424.5 40.8887L417.5 40.8887L424.311 35.3289C424.323 35.319 424.334 35.2657 424.345 35.1744L419.833 35.1744L424.482 29.4827C424.485 29.0938 424.487 28.7033 424.49 28.3172L422.167 28.3172L424.5 24.8887L426.833 28.3172L424.49 28.3172C424.487 28.7033 424.485 29.0938 424.482 29.4827L424.5 29.4601L429.167 35.1744L424.5 35.1744L431.5 40.8887L424.5 40.8887Z" fill="black"/>
<path d="M424.5 48.8887L424.5 40.8887M424.5 40.8887L417.5 40.8887L424.311 35.3289M424.5 40.8887L431.5 40.8887L424.5 35.1744M424.5 40.8887L424.5 29.4601M424.5 35.1744L419.833 35.1744L424.5 29.4601M424.5 35.1744L429.167 35.1744L424.5 29.4601M424.5 35.1744L424.311 35.3289M424.311 35.3289C424.462 35.2053 424.5 28.3172 424.5 24.8887M424.5 24.8887L422.167 28.3172L426.833 28.3172L424.5 24.8887Z" stroke="black"/>
<path d="M440.5 49.8887L433.5 49.8887L440.311 44.3289C440.323 44.319 440.334 44.2657 440.345 44.1744L435.833 44.1744L440.482 38.4827C440.485 38.0938 440.487 37.7033 440.49 37.3172L438.167 37.3172L440.5 33.8887L442.833 37.3172L440.49 37.3172C440.487 37.7033 440.485 38.0938 440.482 38.4827L440.5 38.4601L445.167 44.1744L440.5 44.1744L447.5 49.8887L440.5 49.8887Z" fill="black"/>
<path d="M440.5 57.8887L440.5 49.8887M440.5 49.8887L433.5 49.8887L440.311 44.3289M440.5 49.8887L447.5 49.8887L440.5 44.1744M440.5 49.8887L440.5 38.4601M440.5 44.1744L435.833 44.1744L440.5 38.4601M440.5 44.1744L445.167 44.1744L440.5 38.4601M440.5 44.1744L440.311 44.3289M440.311 44.3289C440.462 44.2053 440.5 37.3172 440.5 33.8887M440.5 33.8887L438.167 37.3172L442.833 37.3172L440.5 33.8887Z" stroke="black"/>
<path d="M484.5 16.8887L477.5 16.8887L484.311 11.3289C484.323 11.319 484.334 11.2657 484.345 11.1744L479.833 11.1744L484.482 5.48267C484.485 5.09383 484.487 4.70329 484.49 4.31724L482.167 4.31724L484.5 0.888671L486.833 4.31724L484.49 4.31724C484.487 4.70329 484.485 5.09383 484.482 5.48267L484.5 5.4601L489.167 11.1744L484.5 11.1744L491.5 16.8887L484.5 16.8887Z" fill="black"/>
<path d="M484.5 24.8887L484.5 16.8887M484.5 16.8887L477.5 16.8887L484.311 11.3289M484.5 16.8887L491.5 16.8887L484.5 11.1744M484.5 16.8887L484.5 5.4601M484.5 11.1744L479.833 11.1744L484.5 5.4601M484.5 11.1744L489.167 11.1744L484.5 5.4601M484.5 11.1744L484.311 11.3289M484.311 11.3289C484.462 11.2053 484.5 4.31724 484.5 0.888671M484.5 0.888671L482.167 4.31724L486.833 4.31724L484.5 0.888671Z" stroke="black"/>
<path d="M484.5 16.8887L477.5 16.8887L484.311 11.3289C484.323 11.319 484.334 11.2657 484.345 11.1744L479.833 11.1744L484.482 5.48267C484.485 5.09383 484.487 4.70329 484.49 4.31724L482.167 4.31724L484.5 0.888671L486.833 4.31724L484.49 4.31724C484.487 4.70329 484.485 5.09383 484.482 5.48267L484.5 5.4601L489.167 11.1744L484.5 11.1744L491.5 16.8887L484.5 16.8887Z" fill="black"/>
<path d="M484.5 24.8887L484.5 16.8887M484.5 16.8887L477.5 16.8887L484.311 11.3289M484.5 16.8887L491.5 16.8887L484.5 11.1744M484.5 16.8887L484.5 5.4601M484.5 11.1744L479.833 11.1744L484.5 5.4601M484.5 11.1744L489.167 11.1744L484.5 5.4601M484.5 11.1744L484.311 11.3289M484.311 11.3289C484.462 11.2053 484.5 4.31724 484.5 0.888671M484.5 0.888671L482.167 4.31724L486.833 4.31724L484.5 0.888671Z" stroke="black"/>
<path d="M528.5 45.8887L521.5 45.8887L528.311 40.3289C528.323 40.319 528.334 40.2657 528.345 40.1744L523.833 40.1744L528.482 34.4827C528.485 34.0938 528.487 33.7033 528.49 33.3172L526.167 33.3172L528.5 29.8887L530.833 33.3172L528.49 33.3172C528.487 33.7033 528.485 34.0938 528.482 34.4827L528.5 34.4601L533.167 40.1744L528.5 40.1744L535.5 45.8887L528.5 45.8887Z" fill="black"/>
<path d="M528.5 53.8887L528.5 45.8887M528.5 45.8887L521.5 45.8887L528.311 40.3289M528.5 45.8887L535.5 45.8887L528.5 40.1744M528.5 45.8887L528.5 34.4601M528.5 40.1744L523.833 40.1744L528.5 34.4601M528.5 40.1744L533.167 40.1744L528.5 34.4601M528.5 40.1744L528.311 40.3289M528.311 40.3289C528.462 40.2053 528.5 33.3172 528.5 29.8887M528.5 29.8887L526.167 33.3172L530.833 33.3172L528.5 29.8887Z" stroke="black"/>
<path d="M666.5 45.8887L659.5 45.8887L666.311 40.3289C666.323 40.319 666.334 40.2657 666.345 40.1744L661.833 40.1744L666.482 34.4827C666.485 34.0938 666.487 33.7033 666.49 33.3172L664.167 33.3172L666.5 29.8887L668.833 33.3172L666.49 33.3172C666.487 33.7033 666.485 34.0938 666.482 34.4827L666.5 34.4601L671.167 40.1744L666.5 40.1744L673.5 45.8887L666.5 45.8887Z" fill="black"/>
<path d="M666.5 53.8887L666.5 45.8887M666.5 45.8887L659.5 45.8887L666.311 40.3289M666.5 45.8887L673.5 45.8887L666.5 40.1744M666.5 45.8887L666.5 34.4601M666.5 40.1744L661.833 40.1744L666.5 34.4601M666.5 40.1744L671.167 40.1744L666.5 34.4601M666.5 40.1744L666.311 40.3289M666.311 40.3289C666.462 40.2053 666.5 33.3172 666.5 29.8887M666.5 29.8887L664.167 33.3172L668.833 33.3172L666.5 29.8887Z" stroke="black"/>
<path d="M691.5 30.8887L684.5 30.8887L691.311 25.3289C691.323 25.319 691.334 25.2657 691.345 25.1744L686.833 25.1744L691.482 19.4827C691.485 19.0938 691.487 18.7033 691.49 18.3172L689.167 18.3172L691.5 14.8887L693.833 18.3172L691.49 18.3172C691.487 18.7033 691.485 19.0938 691.482 19.4827L691.5 19.4601L696.167 25.1744L691.5 25.1744L698.5 30.8887L691.5 30.8887Z" fill="black"/>
<path d="M691.5 38.8887L691.5 30.8887M691.5 30.8887L684.5 30.8887L691.311 25.3289M691.5 30.8887L698.5 30.8887L691.5 25.1744M691.5 30.8887L691.5 19.4601M691.5 25.1744L686.833 25.1744L691.5 19.4601M691.5 25.1744L696.167 25.1744L691.5 19.4601M691.5 25.1744L691.311 25.3289M691.311 25.3289C691.462 25.2053 691.5 18.3172 691.5 14.8887M691.5 14.8887L689.167 18.3172L693.833 18.3172L691.5 14.8887Z" stroke="black"/>
<path d="M834.5 30.8887L827.5 30.8887L834.311 25.3289C834.323 25.319 834.334 25.2657 834.345 25.1744L829.833 25.1744L834.482 19.4827C834.485 19.0938 834.487 18.7033 834.49 18.3172L832.167 18.3172L834.5 14.8887L836.833 18.3172L834.49 18.3172C834.487 18.7033 834.485 19.0938 834.482 19.4827L834.5 19.4601L839.167 25.1744L834.5 25.1744L841.5 30.8887L834.5 30.8887Z" fill="black"/>
<path d="M834.5 38.8887L834.5 30.8887M834.5 30.8887L827.5 30.8887L834.311 25.3289M834.5 30.8887L841.5 30.8887L834.5 25.1744M834.5 30.8887L834.5 19.4601M834.5 25.1744L829.833 25.1744L834.5 19.4601M834.5 25.1744L839.167 25.1744L834.5 19.4601M834.5 25.1744L834.311 25.3289M834.311 25.3289C834.462 25.2053 834.5 18.3172 834.5 14.8887M834.5 14.8887L832.167 18.3172L836.833 18.3172L834.5 14.8887Z" stroke="black"/>
<path d="M872.5 54.8887L865.5 54.8887L872.311 49.3289C872.323 49.319 872.334 49.2657 872.345 49.1744L867.833 49.1744L872.482 43.4827C872.485 43.0938 872.487 42.7033 872.49 42.3172L870.167 42.3172L872.5 38.8887L874.833 42.3172L872.49 42.3172C872.487 42.7033 872.485 43.0938 872.482 43.4827L872.5 43.4601L877.167 49.1744L872.5 49.1744L879.5 54.8887L872.5 54.8887Z" fill="black"/>
<path d="M872.5 62.8887L872.5 54.8887M872.5 54.8887L865.5 54.8887L872.311 49.3289M872.5 54.8887L879.5 54.8887L872.5 49.1744M872.5 54.8887L872.5 43.4601M872.5 49.1744L867.833 49.1744L872.5 43.4601M872.5 49.1744L877.167 49.1744L872.5 43.4601M872.5 49.1744L872.311 49.3289M872.311 49.3289C872.462 49.2053 872.5 42.3172 872.5 38.8887M872.5 38.8887L870.167 42.3172L874.833 42.3172L872.5 38.8887Z" stroke="black"/>
<path d="M933.5 42.8887L926.5 42.8887L933.311 37.3289C933.323 37.319 933.334 37.2657 933.345 37.1744L928.833 37.1744L933.482 31.4827C933.485 31.0938 933.487 30.7033 933.49 30.3172L931.167 30.3172L933.5 26.8887L935.833 30.3172L933.49 30.3172C933.487 30.7033 933.485 31.0938 933.482 31.4827L933.5 31.4601L938.167 37.1744L933.5 37.1744L940.5 42.8887L933.5 42.8887Z" fill="black"/>
<path d="M933.5 50.8887L933.5 42.8887M933.5 42.8887L926.5 42.8887L933.311 37.3289M933.5 42.8887L940.5 42.8887L933.5 37.1744M933.5 42.8887L933.5 31.4601M933.5 37.1744L928.833 37.1744L933.5 31.4601M933.5 37.1744L938.167 37.1744L933.5 31.4601M933.5 37.1744L933.311 37.3289M933.311 37.3289C933.462 37.2053 933.5 30.3172 933.5 26.8887M933.5 26.8887L931.167 30.3172L935.833 30.3172L933.5 26.8887Z" stroke="black"/>
<path d="M107 95.3887V105.389H849V65.3887L840 44.3887L832.5 36.3887L813.5 57.3887L807.5 49.3887L781 67.3887L759 57.3887L741 64.3887L716.5 44.3887L691.5 36.3887L675 44.3887L626.5 72.8887L577 74.3887L479.5 19.8887L440 49.3887L429 44.3887L376 78.8887L347 64.3887L323.5 81.8887L312 77.3887L307.5 78.8887L273.5 57.3887L251 72.8887L245 77.3887L229 78.8887L213.5 64.3887L198.5 70.3887L193.5 67.3887L184.5 77.3887L174.5 78.8887L168 81.8887L159 74.3887L150 70.3887L133.5 77.3887L107 95.3887Z" fill="black" stroke="black"/>
<path d="M110.5 105.389H0.5V91.3887H3L5.5 86.8887C8 84.8887 13 80.7888 13 80.3888C13 79.9888 22.6667 84.2221 27.5 86.3888L30.5 89.3888L36.5 88.3888L41 85.8888L47 83.3888C49.3333 84.3888 54.1 86.3888 54.5 86.3888C54.9 86.3888 56.6667 89.0554 57.5 90.3888H75C75.8 90.3888 81 89.0554 83.5 88.3888L90 92.3888L96 91.8888L109.5 95.8888L110.5 105.389Z" fill="black" stroke="black"/>
<path d="M982 67.3887V105.389H847L831.5 63.3887L859.5 55.8887L885.5 61.3887L896.5 55.8887L904 58.3887L916 53.8887L929 44.8887L945 55.8887H951L955 61.3887L963.5 58.3887L982 67.3887Z" fill="black" stroke="black"/>
</svg>
