<svg width="744" height="119" viewBox="0 0 744 119" fill="none" xmlns="http://www.w3.org/2000/svg">
<path d="M224.432 106.59H227.966L224.528 109.402C224.521 109.407 224.516 109.434 224.51 109.48H226.788L224.441 112.358C224.44 112.555 224.438 112.753 224.437 112.948H225.61L224.432 114.682L223.254 112.948H224.437C224.438 112.753 224.44 112.555 224.441 112.358L224.432 112.37L222.076 109.48H224.432L220.898 106.59H224.432Z" fill="black"/>
<path d="M235.035 109.119H238.57L235.131 111.93C235.125 111.935 235.119 111.962 235.114 112.009H237.392L235.045 114.887C235.043 115.084 235.042 115.281 235.04 115.477H236.213L235.035 117.211L233.857 115.477H235.04C235.042 115.281 235.043 115.084 235.045 114.887L235.035 114.899L232.679 112.009H235.035L231.501 109.119H235.035Z" fill="black"/>
<path d="M202.973 11.5075L199.439 11.5075L202.878 8.69557C202.884 8.69056 202.889 8.66364 202.895 8.61744H200.617L202.964 5.73882C202.965 5.54216 202.967 5.34464 202.968 5.14939H201.795L202.973 3.41537L204.151 5.14939H202.968C202.967 5.34464 202.965 5.54216 202.964 5.73882L202.973 5.7274L205.329 8.61744H202.973L206.508 11.5075H202.973Z" fill="black"/>
<path d="M218.626 14.0363L215.091 14.0363L218.53 11.2243C218.536 11.2193 218.542 11.1924 218.547 11.1462H216.269L218.616 8.2676C218.618 8.07094 218.619 7.87343 218.62 7.67818L217.447 7.67818L218.626 5.94415L219.804 7.67818H218.62C218.619 7.87343 218.618 8.07094 218.616 8.2676L218.626 8.25619L220.982 11.1462H218.626L222.16 14.0363H218.626Z" fill="black"/>
<path d="M278.458 11.5075H274.924L278.362 8.69556C278.369 8.69056 278.374 8.66363 278.38 8.61744H276.102L278.449 5.73881C278.45 5.54216 278.452 5.34464 278.453 5.14939H277.28L278.458 3.41537L279.636 5.14939H278.453C278.452 5.34464 278.45 5.54216 278.449 5.73881L278.458 5.7274L280.814 8.61744H278.458L281.992 11.5075H278.458Z" fill="black"/>
<path d="M324.658 16.5651L321.123 16.5651L324.562 13.7531C324.568 13.7481 324.574 13.7212 324.579 13.675H322.301L324.648 10.7964C324.65 10.5997 324.651 10.4022 324.653 10.207H323.48L324.658 8.47294L325.836 10.207H324.653C324.651 10.4022 324.65 10.5997 324.648 10.7964L324.658 10.785L327.014 13.675H324.658L328.192 16.5651H324.658Z" fill="black"/>
<path d="M331.727 18.5881H328.192L331.631 15.7762C331.637 15.7712 331.643 15.7442 331.648 15.698H329.37L331.717 12.8194C331.719 12.6228 331.72 12.4252 331.721 12.23H330.548L331.727 10.496L332.905 12.23H331.721C331.72 12.4252 331.719 12.6228 331.717 12.8194L331.727 12.808L334.083 15.698H331.727L335.261 18.5881H331.727Z" fill="black"/>
<path d="M393.831 16.5651L390.297 16.5651L393.736 13.7531C393.742 13.7481 393.747 13.7212 393.753 13.675H391.475L393.822 10.7964C393.823 10.5997 393.825 10.4022 393.826 10.207H392.653L393.831 8.47294L395.009 10.207H393.826C393.825 10.4022 393.823 10.5997 393.822 10.7964L393.831 10.785L396.187 13.675H393.831L397.366 16.5651H393.831Z" fill="black"/>
<path d="M438.516 9.48445H434.982L438.421 6.67253C438.427 6.66753 438.432 6.6406 438.438 6.59441H436.16L438.507 3.71578C438.508 3.51912 438.51 3.32161 438.511 3.12636L437.338 3.12636L438.516 1.39233L439.694 3.12636L438.511 3.12636C438.51 3.32161 438.508 3.51912 438.507 3.71578L438.516 3.70437L440.872 6.59441H438.516L442.051 9.48445L438.516 9.48445Z" fill="black"/>
<path d="M451.139 14.0363L447.605 14.0363L451.044 11.2243C451.05 11.2193 451.055 11.1924 451.061 11.1462H448.783L451.13 8.26759C451.131 8.07094 451.133 7.87342 451.134 7.67817L449.961 7.67817L451.139 5.94415L452.317 7.67817H451.134C451.133 7.87342 451.131 8.07094 451.13 8.26759L451.139 8.25618L453.495 11.1462H451.139L454.673 14.0363H451.139Z" fill="black"/>
<path d="M497.844 21.6226H494.309L497.748 18.8107C497.754 18.8057 497.76 18.7788 497.765 18.7326H495.487L497.834 15.854C497.836 15.6573 497.837 15.4598 497.839 15.2645H496.666L497.844 13.5305L499.022 15.2645H497.839C497.837 15.4598 497.836 15.6573 497.834 15.854L497.844 15.8425L500.2 18.7326H497.844L501.378 21.6226H497.844Z" fill="black"/>
<path d="M528.896 11.5075H525.362L528.8 8.69556C528.807 8.69056 528.812 8.66363 528.818 8.61744H526.54L528.887 5.73881C528.888 5.54216 528.89 5.34464 528.891 5.14939H527.718L528.896 3.41537L530.074 5.14939H528.891C528.89 5.34464 528.888 5.54216 528.887 5.73881L528.896 5.7274L531.252 8.61744H528.896L532.43 11.5075H528.896Z" fill="black"/>
<path d="M541.519 16.565L537.985 16.565L541.423 13.7531C541.429 13.7481 541.435 13.7212 541.441 13.675H539.163L541.51 10.7964C541.511 10.5997 541.513 10.4022 541.514 10.207H540.341L541.519 8.47293L542.697 10.207H541.514C541.513 10.4022 541.511 10.5997 541.51 10.7964L541.519 10.785L543.875 13.675H541.519L545.053 16.565H541.519Z" fill="black"/>
<path d="M296.13 105.578H299.664L296.226 108.39C296.219 108.395 296.214 108.422 296.208 108.468H298.486L296.139 111.347C296.138 111.544 296.136 111.741 296.135 111.936H297.308L296.13 113.67L294.952 111.936H296.135C296.136 111.741 296.138 111.544 296.139 111.347L296.13 111.358L293.774 108.468H296.13L292.596 105.578H296.13Z" fill="black"/>
<path d="M383.48 99.5092H387.015L383.576 102.321C383.57 102.326 383.564 102.353 383.559 102.399H385.837L383.49 105.278C383.488 105.475 383.487 105.672 383.486 105.867H384.659L383.48 107.601L382.302 105.867H383.486C383.487 105.672 383.488 105.475 383.49 105.278L383.48 105.289L381.124 102.399H383.48L379.946 99.5092H383.48Z" fill="black"/>
<path d="M343.087 106.59H346.622L343.183 109.402C343.177 109.407 343.171 109.434 343.165 109.48H345.443L343.096 112.358C343.095 112.555 343.094 112.753 343.092 112.948H344.265L343.087 114.682L341.909 112.948H343.092C343.094 112.753 343.095 112.555 343.096 112.358L343.087 112.37L340.731 109.48H343.087L339.553 106.59H343.087Z" fill="black"/>
<path d="M485.978 90.4056H489.513L486.074 93.2175C486.068 93.2225 486.062 93.2494 486.057 93.2956H488.335L485.988 96.1742C485.986 96.3709 485.985 96.5684 485.983 96.7637H487.156L485.978 98.4977L484.8 96.7637H485.983C485.985 96.5684 485.986 96.3709 485.988 96.1742L485.978 96.1856L483.622 93.2956H485.978L482.444 90.4056H485.978Z" fill="black"/>
<path d="M434.982 105.578H438.516L435.077 108.39C435.071 108.395 435.065 108.422 435.06 108.468H437.338L434.991 111.347C434.989 111.544 434.988 111.741 434.987 111.936H436.16L434.982 113.67L433.804 111.936H434.987C434.988 111.741 434.989 111.544 434.991 111.347L434.982 111.358L432.625 108.468H434.982L431.447 105.578H434.982Z" fill="black"/>
<path d="M551.617 84.3365H555.152L551.713 87.1484C551.707 87.1534 551.701 87.1803 551.696 87.2265H553.974L551.627 90.1052C551.625 90.3018 551.624 90.4993 551.622 90.6946H552.795L551.617 92.4286L550.439 90.6946H551.622C551.624 90.4993 551.625 90.3018 551.627 90.1052L551.617 90.1166L549.261 87.2265H551.617L548.083 84.3365H551.617Z" fill="black"/>
<path d="M493.047 94.4516H496.581L493.143 97.2635C493.136 97.2685 493.131 97.2955 493.125 97.3417H495.403L493.056 100.22C493.055 100.417 493.053 100.614 493.052 100.81H494.225L493.047 102.544L491.869 100.81H493.052C493.053 100.614 493.055 100.417 493.056 100.22L493.047 100.232L490.691 97.3417H493.047L489.513 94.4516H493.047Z" fill="black"/>
<path d="M203.983 15.7813L187.068 19.0111V94.0137L194.894 98.8584L207.265 92.2194L228.219 106.753L238.57 104.241L254.475 108.368L272.651 102.447L286.032 98.8584L300.674 104.241L334.251 100.114L349.904 109.624L382.471 96.8847L399.385 102.447L404.182 98.8584L432.457 104.241L459.975 94.0137L473.355 89.7074L516.526 96.8847L537.732 84.8627L561.716 81.4535V21.1643L555.152 22.2409L545.053 19.0111L529.148 15.7813L502.64 22.2409L489.513 25.8295L463.762 13.4487L459.975 15.7813L439.778 12.0132L399.385 22.2409L375.907 12.0132L354.195 23.8558L349.904 22.2409L343.34 23.8558L328.445 19.0111L314.559 23.8558L268.865 12.0132L249.173 19.0111L203.983 15.7813Z" fill="black"/>
<path d="M224.432 102.544V106.59M224.432 106.59H227.966L224.528 109.402M224.432 106.59H220.898L224.432 109.48M224.432 106.59V109.48M224.432 109.48V112.37M224.432 109.48H224.51M224.432 109.48H222.076L224.432 112.37M224.432 109.48L224.528 109.402M224.432 112.37L224.441 112.358M224.441 112.358L226.788 109.48H224.51M224.441 112.358C224.452 111.061 224.473 109.802 224.51 109.48M224.441 112.358C224.44 112.555 224.438 112.753 224.437 112.948M224.51 109.48C224.516 109.434 224.521 109.407 224.528 109.402M224.437 112.948C224.434 113.587 224.432 114.202 224.432 114.682M224.437 112.948H225.61L224.432 114.682M224.437 112.948H223.254L224.432 114.682M235.035 105.073V109.119M235.035 109.119H238.57L235.131 111.93M235.035 109.119H231.501L235.035 112.009M235.035 109.119V112.009M235.035 112.009V114.899M235.035 112.009H235.114M235.035 112.009H232.679L235.035 114.899M235.035 112.009L235.131 111.93M235.035 114.899L235.045 114.887M235.045 114.887L237.392 112.009H235.114M235.045 114.887C235.055 113.59 235.076 112.331 235.114 112.009M235.045 114.887C235.043 115.084 235.042 115.281 235.04 115.477M235.114 112.009C235.119 111.962 235.125 111.935 235.131 111.93M235.04 115.477C235.037 116.116 235.035 116.73 235.035 117.211M235.04 115.477H236.213L235.035 117.211M235.04 115.477H233.857L235.035 117.211M202.973 15.5535L202.973 11.5075M202.973 11.5075L199.439 11.5075L202.878 8.69557M202.973 11.5075H206.508L202.973 8.61744M202.973 11.5075V8.61744M202.973 8.61744V5.7274M202.973 8.61744H202.895M202.973 8.61744H205.329L202.973 5.7274M202.973 8.61744L202.878 8.69557M202.973 5.7274L202.964 5.73882M202.964 5.73882L200.617 8.61744H202.895M202.964 5.73882C202.953 7.03582 202.933 8.29527 202.895 8.61744M202.964 5.73882C202.965 5.54216 202.967 5.34464 202.968 5.14939M202.895 8.61744C202.889 8.66364 202.884 8.69056 202.878 8.69557M202.968 5.14939C202.972 4.5104 202.973 3.89575 202.973 3.41537M202.968 5.14939H201.795L202.973 3.41537M202.968 5.14939H204.151L202.973 3.41537M218.626 18.0823V14.0363M218.626 14.0363L215.091 14.0363L218.53 11.2243M218.626 14.0363H222.16L218.626 11.1462M218.626 14.0363V11.1462M218.626 11.1462V8.25619M218.626 11.1462H218.547M218.626 11.1462H220.982L218.626 8.25619M218.626 11.1462L218.53 11.2243M218.626 8.25619L218.616 8.2676M218.616 8.2676L216.269 11.1462H218.547M218.616 8.2676C218.606 9.56461 218.585 10.8241 218.547 11.1462M218.616 8.2676C218.618 8.07094 218.619 7.87343 218.62 7.67818M218.547 11.1462C218.542 11.1924 218.536 11.2193 218.53 11.2243M218.62 7.67818C218.624 7.03918 218.626 6.42453 218.626 5.94415M218.62 7.67818L217.447 7.67818L218.626 5.94415M218.62 7.67818H219.804L218.626 5.94415M278.458 15.5535V11.5075M278.458 11.5075H274.924L278.362 8.69556M278.458 11.5075H281.992L278.458 8.61744M278.458 11.5075V8.61744M278.458 8.61744V5.7274M278.458 8.61744H278.38M278.458 8.61744H280.814L278.458 5.7274M278.458 8.61744L278.362 8.69556M278.458 5.7274L278.449 5.73881M278.449 5.73881L276.102 8.61744H278.38M278.449 5.73881C278.438 7.03582 278.417 8.29527 278.38 8.61744M278.449 5.73881C278.45 5.54216 278.452 5.34464 278.453 5.14939M278.38 8.61744C278.374 8.66363 278.369 8.69056 278.362 8.69556M278.453 5.14939C278.457 4.51039 278.458 3.89574 278.458 3.41537M278.453 5.14939H277.28L278.458 3.41537M278.453 5.14939H279.636L278.458 3.41537M324.658 20.6111V16.5651M324.658 16.5651L321.123 16.5651L324.562 13.7531M324.658 16.5651H328.192L324.658 13.675M324.658 16.5651V13.675M324.658 13.675V10.785M324.658 13.675H324.579M324.658 13.675H327.014L324.658 10.785M324.658 13.675L324.562 13.7531M324.658 10.785L324.648 10.7964M324.648 10.7964L322.301 13.675H324.579M324.648 10.7964C324.638 12.0934 324.617 13.3528 324.579 13.675M324.648 10.7964C324.65 10.5997 324.651 10.4022 324.653 10.207M324.579 13.675C324.574 13.7212 324.568 13.7481 324.562 13.7531M324.653 10.207C324.656 9.56797 324.658 8.95332 324.658 8.47294M324.653 10.207H323.48L324.658 8.47294M324.653 10.207H325.836L324.658 8.47294M331.727 22.6341V18.5881M331.727 18.5881H328.192L331.631 15.7762M331.727 18.5881H335.261L331.727 15.698M331.727 18.5881V15.698M331.727 15.698V12.808M331.727 15.698H331.648M331.727 15.698H334.083L331.727 12.808M331.727 15.698L331.631 15.7762M331.727 12.808L331.717 12.8194M331.717 12.8194L329.37 15.698H331.648M331.717 12.8194C331.707 14.1164 331.686 15.3759 331.648 15.698M331.717 12.8194C331.719 12.6228 331.72 12.4252 331.721 12.23M331.648 15.698C331.643 15.7442 331.637 15.7712 331.631 15.7762M331.721 12.23C331.725 11.591 331.727 10.9763 331.727 10.496M331.721 12.23H330.548L331.727 10.496M331.721 12.23H332.905L331.727 10.496M393.831 20.6111V16.5651M393.831 16.5651L390.297 16.5651L393.736 13.7531M393.831 16.5651H397.366L393.831 13.675M393.831 16.5651V13.675M393.831 13.675V10.785M393.831 13.675H393.753M393.831 13.675H396.187L393.831 10.785M393.831 13.675L393.736 13.7531M393.831 10.785L393.822 10.7964M393.822 10.7964L391.475 13.675H393.753M393.822 10.7964C393.811 12.0934 393.791 13.3528 393.753 13.675M393.822 10.7964C393.823 10.5997 393.825 10.4022 393.826 10.207M393.753 13.675C393.747 13.7212 393.742 13.7481 393.736 13.7531M393.826 10.207C393.83 9.56797 393.831 8.95332 393.831 8.47294M393.826 10.207H392.653L393.831 8.47294M393.826 10.207H395.009L393.831 8.47294M438.516 13.5305V9.48445M438.516 9.48445H434.982L438.421 6.67253M438.516 9.48445L442.051 9.48445L438.516 6.59441M438.516 9.48445V6.59441M438.516 6.59441V3.70437M438.516 6.59441H438.438M438.516 6.59441H440.872L438.516 3.70437M438.516 6.59441L438.421 6.67253M438.516 3.70437L438.507 3.71578M438.507 3.71578L436.16 6.59441H438.438M438.507 3.71578C438.496 5.01279 438.476 6.27223 438.438 6.59441M438.507 3.71578C438.508 3.51912 438.51 3.32161 438.511 3.12636M438.438 6.59441C438.432 6.6406 438.427 6.66753 438.421 6.67253M438.511 3.12636C438.515 2.48736 438.516 1.87271 438.516 1.39233M438.511 3.12636L437.338 3.12636L438.516 1.39233M438.511 3.12636L439.694 3.12636L438.516 1.39233M451.139 18.0823V14.0363M451.139 14.0363L447.605 14.0363L451.044 11.2243M451.139 14.0363H454.673L451.139 11.1462M451.139 14.0363V11.1462M451.139 11.1462V8.25618M451.139 11.1462H451.061M451.139 11.1462H453.495L451.139 8.25618M451.139 11.1462L451.044 11.2243M451.139 8.25618L451.13 8.26759M451.13 8.26759L448.783 11.1462H451.061M451.13 8.26759C451.119 9.5646 451.098 10.824 451.061 11.1462M451.13 8.26759C451.131 8.07094 451.133 7.87342 451.134 7.67817M451.061 11.1462C451.055 11.1924 451.05 11.2193 451.044 11.2243M451.134 7.67817C451.138 7.03918 451.139 6.42452 451.139 5.94415M451.134 7.67817L449.961 7.67817L451.139 5.94415M451.134 7.67817H452.317L451.139 5.94415M497.844 25.6687V21.6226M497.844 21.6226H494.309L497.748 18.8107M497.844 21.6226H501.378L497.844 18.7326M497.844 21.6226V18.7326M497.844 18.7326V15.8425M497.844 18.7326H497.765M497.844 18.7326H500.2L497.844 15.8425M497.844 18.7326L497.748 18.8107M497.844 15.8425L497.834 15.854M497.834 15.854L495.487 18.7326H497.765M497.834 15.854C497.824 17.151 497.803 18.4104 497.765 18.7326M497.834 15.854C497.836 15.6573 497.837 15.4598 497.839 15.2645M497.765 18.7326C497.76 18.7788 497.754 18.8057 497.748 18.8107M497.839 15.2645C497.842 14.6255 497.844 14.0109 497.844 13.5305M497.839 15.2645H496.666L497.844 13.5305M497.839 15.2645H499.022L497.844 13.5305M528.896 15.5535V11.5075M528.896 11.5075H525.362L528.8 8.69556M528.896 11.5075H532.43L528.896 8.61744M528.896 11.5075V8.61744M528.896 8.61744V5.7274M528.896 8.61744H528.818M528.896 8.61744H531.252L528.896 5.7274M528.896 8.61744L528.8 8.69556M528.896 5.7274L528.887 5.73881M528.887 5.73881L526.54 8.61744H528.818M528.887 5.73881C528.876 7.03582 528.855 8.29527 528.818 8.61744M528.887 5.73881C528.888 5.54216 528.89 5.34464 528.891 5.14939M528.818 8.61744C528.812 8.66363 528.807 8.69056 528.8 8.69556M528.891 5.14939C528.895 4.51039 528.896 3.89574 528.896 3.41537M528.891 5.14939H527.718L528.896 3.41537M528.891 5.14939H530.074L528.896 3.41537M541.519 20.6111V16.565M541.519 16.565L537.985 16.565L541.423 13.7531M541.519 16.565H545.053L541.519 13.675M541.519 16.565V13.675M541.519 13.675V10.785M541.519 13.675H541.441M541.519 13.675H543.875L541.519 10.785M541.519 13.675L541.423 13.7531M541.519 10.785L541.51 10.7964M541.51 10.7964L539.163 13.675H541.441M541.51 10.7964C541.499 12.0934 541.478 13.3528 541.441 13.675M541.51 10.7964C541.511 10.5997 541.513 10.4022 541.514 10.207M541.441 13.675C541.435 13.7212 541.429 13.7481 541.423 13.7531M541.514 10.207C541.517 9.56796 541.519 8.95331 541.519 8.47293M541.514 10.207H540.341L541.519 8.47293M541.514 10.207H542.697L541.519 8.47293M296.13 101.532V105.578M296.13 105.578H299.664L296.226 108.39M296.13 105.578H292.596L296.13 108.468M296.13 105.578V108.468M296.13 108.468V111.358M296.13 108.468H296.208M296.13 108.468H293.774L296.13 111.358M296.13 108.468L296.226 108.39M296.13 111.358L296.139 111.347M296.139 111.347L298.486 108.468H296.208M296.139 111.347C296.15 110.05 296.171 108.79 296.208 108.468M296.139 111.347C296.138 111.544 296.136 111.741 296.135 111.936M296.208 108.468C296.214 108.422 296.219 108.395 296.226 108.39M296.135 111.936C296.131 112.575 296.13 113.19 296.13 113.67M296.135 111.936H297.308L296.13 113.67M296.135 111.936H294.952L296.13 113.67M383.48 95.4631V99.5092M383.48 99.5092H387.015L383.576 102.321M383.48 99.5092H379.946L383.48 102.399M383.48 99.5092V102.399M383.48 102.399V105.289M383.48 102.399H383.559M383.48 102.399H381.124L383.48 105.289M383.48 102.399L383.576 102.321M383.48 105.289L383.49 105.278M383.49 105.278L385.837 102.399H383.559M383.49 105.278C383.5 103.981 383.521 102.721 383.559 102.399M383.49 105.278C383.488 105.475 383.487 105.672 383.486 105.867M383.559 102.399C383.564 102.353 383.57 102.326 383.576 102.321M383.486 105.867C383.482 106.506 383.48 107.121 383.48 107.601M383.486 105.867H384.659L383.48 107.601M383.486 105.867H382.302L383.48 107.601M343.087 102.544V106.59M343.087 106.59H346.622L343.183 109.402M343.087 106.59H339.553L343.087 109.48M343.087 106.59V109.48M343.087 109.48V112.37M343.087 109.48H343.165M343.087 109.48H340.731L343.087 112.37M343.087 109.48L343.183 109.402M343.087 112.37L343.096 112.358M343.096 112.358L345.443 109.48H343.165M343.096 112.358C343.107 111.061 343.128 109.802 343.165 109.48M343.096 112.358C343.095 112.555 343.094 112.753 343.092 112.948M343.165 109.48C343.171 109.434 343.177 109.407 343.183 109.402M343.092 112.948C343.089 113.587 343.087 114.202 343.087 114.682M343.092 112.948H344.265L343.087 114.682M343.092 112.948H341.909L343.087 114.682M485.978 86.3595V90.4056M485.978 90.4056H489.513L486.074 93.2175M485.978 90.4056H482.444L485.978 93.2956M485.978 90.4056V93.2956M485.978 93.2956V96.1856M485.978 93.2956H486.057M485.978 93.2956H483.622L485.978 96.1856M485.978 93.2956L486.074 93.2175M485.978 96.1856L485.988 96.1742M485.988 96.1742L488.335 93.2956H486.057M485.988 96.1742C485.998 94.8772 486.019 93.6178 486.057 93.2956M485.988 96.1742C485.986 96.3709 485.985 96.5684 485.983 96.7637M486.057 93.2956C486.062 93.2494 486.068 93.2225 486.074 93.2175M485.983 96.7637C485.98 97.4026 485.978 98.0173 485.978 98.4977M485.983 96.7637H487.156L485.978 98.4977M485.983 96.7637H484.8L485.978 98.4977M434.982 101.532V105.578M434.982 105.578H438.516L435.077 108.39M434.982 105.578H431.447L434.982 108.468M434.982 105.578V108.468M434.982 108.468V111.358M434.982 108.468H435.06M434.982 108.468H432.625L434.982 111.358M434.982 108.468L435.077 108.39M434.982 111.358L434.991 111.347M434.991 111.347L437.338 108.468H435.06M434.991 111.347C435.002 110.05 435.022 108.79 435.06 108.468M434.991 111.347C434.989 111.544 434.988 111.741 434.987 111.936M435.06 108.468C435.065 108.422 435.071 108.395 435.077 108.39M434.987 111.936C434.983 112.575 434.982 113.19 434.982 113.67M434.987 111.936H436.16L434.982 113.67M434.987 111.936H433.804L434.982 113.67M551.617 80.2904V84.3365M551.617 84.3365H555.152L551.713 87.1484M551.617 84.3365H548.083L551.617 87.2265M551.617 84.3365V87.2265M551.617 87.2265V90.1166M551.617 87.2265H551.696M551.617 87.2265H549.261L551.617 90.1166M551.617 87.2265L551.713 87.1484M551.617 90.1166L551.627 90.1052M551.627 90.1052L553.974 87.2265H551.696M551.627 90.1052C551.637 88.8081 551.658 87.5487 551.696 87.2265M551.627 90.1052C551.625 90.3018 551.624 90.4993 551.622 90.6946M551.696 87.2265C551.701 87.1803 551.707 87.1534 551.713 87.1484M551.622 90.6946C551.619 91.3336 551.617 91.9482 551.617 92.4286M551.622 90.6946H552.795L551.617 92.4286M551.622 90.6946H550.439L551.617 92.4286M493.047 90.4056V94.4516M493.047 94.4516H496.581L493.143 97.2635M493.047 94.4516H489.513L493.047 97.3417M493.047 94.4516V97.3417M493.047 97.3417V100.232M493.047 97.3417H493.125M493.047 97.3417H490.691L493.047 100.232M493.047 97.3417L493.143 97.2635M493.047 100.232L493.056 100.22M493.056 100.22L495.403 97.3417H493.125M493.056 100.22C493.067 98.9233 493.088 97.6638 493.125 97.3417M493.056 100.22C493.055 100.417 493.053 100.614 493.052 100.81M493.125 97.3417C493.131 97.2955 493.136 97.2685 493.143 97.2635M493.052 100.81C493.049 101.449 493.047 102.063 493.047 102.544M493.052 100.81H494.225L493.047 102.544M493.052 100.81H491.869L493.047 102.544M187.068 19.0111L203.983 15.7813L249.173 19.0111L268.865 12.0132L314.559 23.8558L328.445 19.0111L343.34 23.8558L349.904 22.2409L354.195 23.8558L375.907 12.0132L399.385 22.2409L439.778 12.0132L459.975 15.7813L463.762 13.4487L489.513 25.8295L502.64 22.2409L529.148 15.7813L545.053 19.0111L555.152 22.2409L561.716 21.1643V81.4535L537.732 84.8627L516.526 96.8847L473.355 89.7074L459.975 94.0137L432.457 104.241L404.182 98.8584L399.385 102.447L382.471 96.8847L349.904 109.624L334.251 100.114L300.674 104.241L286.032 98.8584L272.651 102.447L254.475 108.368L238.57 104.241L228.219 106.753L207.265 92.2194L194.894 98.8584L187.068 94.0137V19.0111Z" stroke="black"/>
<path d="M581.606 15.9955L578.081 15.9955L581.511 13.1958C581.517 13.1909 581.523 13.164 581.528 13.1181L579.256 13.1181L581.597 10.2519C581.598 10.0561 581.6 9.85948 581.601 9.66508L580.431 9.66508L581.606 7.9386L582.781 9.66508L581.601 9.66508C581.6 9.85948 581.598 10.0561 581.597 10.2519L581.606 10.2406L583.956 13.1181L581.606 13.1181L585.131 15.9955L581.606 15.9955Z" fill="black"/>
<path d="M581.606 20.024L581.606 15.9955M581.606 15.9955L578.081 15.9955L581.511 13.1958M581.606 15.9955L585.131 15.9955L581.606 13.1181M581.606 15.9955L581.606 10.2406M581.606 13.1181L579.256 13.1181L581.606 10.2406M581.606 13.1181L583.956 13.1181L581.606 10.2406M581.606 13.1181L581.511 13.1958M581.511 13.1958C581.587 13.1336 581.606 9.66508 581.606 7.9386M581.606 7.9386L580.431 9.66508L582.781 9.66508L581.606 7.9386Z" stroke="black"/>
<path d="M621.891 19.5204L618.366 19.5204L621.795 16.7207C621.802 16.7158 621.807 16.689 621.813 16.643L619.541 16.643L621.881 13.7768C621.883 13.581 621.884 13.3844 621.885 13.19L620.716 13.19L621.891 11.4635L623.066 13.19L621.885 13.19C621.884 13.3844 621.883 13.581 621.881 13.7768L621.891 13.7655L624.241 16.643L621.891 16.643L625.416 19.5204L621.891 19.5204Z" fill="black"/>
<path d="M621.891 23.5489L621.891 19.5204M621.891 19.5204L618.366 19.5204L621.795 16.7207M621.891 19.5204L625.416 19.5204L621.891 16.643M621.891 19.5204L621.891 13.7655M621.891 16.643L619.541 16.643L621.891 13.7655M621.891 16.643L624.241 16.643L621.891 13.7655M621.891 16.643L621.795 16.7207M621.795 16.7207C621.872 16.6585 621.891 13.19 621.891 11.4635M621.891 11.4635L620.716 13.19L623.066 13.19L621.891 11.4635Z" stroke="black"/>
<path d="M652.608 18.0097L649.083 18.0097L652.512 15.21C652.519 15.205 652.524 15.1782 652.53 15.1322L650.258 15.1322L652.598 12.2661C652.6 12.0703 652.601 11.8736 652.603 11.6792L651.433 11.6792L652.608 9.95276L653.783 11.6792L652.603 11.6792C652.601 11.8736 652.6 12.0703 652.598 12.2661L652.608 12.2547L654.958 15.1322L652.608 15.1322L656.133 18.0097L652.608 18.0097Z" fill="black"/>
<path d="M652.608 22.0382L652.608 18.0097M652.608 18.0097L649.083 18.0097L652.512 15.21M652.608 18.0097L656.133 18.0097L652.608 15.1322M652.608 18.0097L652.608 12.2547M652.608 15.1322L650.258 15.1322L652.608 12.2547M652.608 15.1322L654.958 15.1322L652.608 12.2547M652.608 15.1322L652.512 15.21M652.512 15.21C652.589 15.1478 652.608 11.6792 652.608 9.95276M652.608 9.95276L651.433 11.6792L653.783 11.6792L652.608 9.95276Z" stroke="black"/>
<path d="M688.864 20.5276L685.339 20.5276L688.769 17.7279C688.775 17.723 688.78 17.6962 688.786 17.6502L686.514 17.6502L688.855 14.784C688.856 14.5882 688.857 14.3916 688.859 14.1972L687.689 14.1972L688.864 12.4707L690.039 14.1972L688.859 14.1972C688.857 14.3916 688.856 14.5882 688.855 14.784L688.864 14.7727L691.214 17.6502L688.864 17.6502L692.389 20.5276L688.864 20.5276Z" fill="black"/>
<path d="M688.864 24.5561L688.864 20.5276M688.864 20.5276L685.339 20.5276L688.769 17.7279M688.864 20.5276L692.389 20.5276L688.864 17.6502M688.864 20.5276L688.864 14.7727M688.864 17.6502L686.514 17.6502L688.864 14.7727M688.864 17.6502L691.214 17.6502L688.864 14.7727M688.864 17.6502L688.769 17.7279M688.769 17.7279C688.845 17.6657 688.864 14.1972 688.864 12.4707M688.864 12.4707L687.689 14.1972L690.039 14.1972L688.864 12.4707Z" stroke="black"/>
<path d="M695.914 19.5204L692.389 19.5204L695.818 16.7207C695.825 16.7158 695.83 16.689 695.836 16.643L693.564 16.643L695.904 13.7768C695.906 13.581 695.907 13.3844 695.909 13.19L694.739 13.19L695.914 11.4635L697.089 13.19L695.909 13.19C695.907 13.3844 695.906 13.581 695.904 13.7768L695.914 13.7655L698.264 16.643L695.914 16.643L699.439 19.5204L695.914 19.5204Z" fill="black"/>
<path d="M695.914 23.5489L695.914 19.5204M695.914 19.5204L692.389 19.5204L695.818 16.7207M695.914 19.5204L699.439 19.5204L695.914 16.643M695.914 19.5204L695.914 13.7655M695.914 16.643L693.564 16.643L695.914 13.7655M695.914 16.643L698.264 16.643L695.914 13.7655M695.914 16.643L695.818 16.7207M695.818 16.7207C695.895 16.6585 695.914 13.19 695.914 11.4635M695.914 11.4635L694.739 13.19L697.089 13.19L695.914 11.4635Z" stroke="black"/>
<path d="M732.673 91.5293L736.198 91.5293L732.769 94.3289C732.763 94.3339 732.757 94.3607 732.752 94.4067L735.023 94.4067L732.683 97.2728C732.681 97.4686 732.68 97.6653 732.679 97.8597L733.848 97.8597L732.673 99.5862L731.498 97.8597L732.679 97.8597C732.68 97.6653 732.681 97.4686 732.683 97.2728L732.673 97.2842L730.324 94.4067L732.673 94.4067L729.149 91.5293L732.673 91.5293Z" fill="black"/>
<path d="M732.673 87.5008L732.673 91.5293M732.673 91.5293L736.198 91.5293L732.769 94.3289M732.673 91.5293L729.149 91.5293L732.673 94.4067M732.673 91.5293L732.673 97.2842M732.673 94.4067L735.023 94.4067L732.673 97.2842M732.673 94.4067L730.324 94.4067L732.673 97.2842M732.673 94.4067L732.769 94.3289M732.769 94.3289C732.693 94.3912 732.673 97.8597 732.673 99.5862M732.673 99.5862L733.848 97.8597L731.498 97.8597L732.673 99.5862Z" stroke="black"/>
<path d="M705.481 97.572L709.006 97.572L705.577 100.372C705.571 100.377 705.565 100.403 705.559 100.449L707.831 100.449L705.491 103.316C705.489 103.511 705.488 103.708 705.487 103.902L706.656 103.902L705.481 105.629L704.306 103.902L705.487 103.902C705.488 103.708 705.489 103.511 705.491 103.316L705.481 103.327L703.131 100.449L705.481 100.449L701.956 97.572L705.481 97.572Z" fill="black"/>
<path d="M705.481 93.5435L705.481 97.572M705.481 97.572L709.006 97.572L705.577 100.372M705.481 97.572L701.956 97.572L705.481 100.449M705.481 97.572L705.481 103.327M705.481 100.449L707.831 100.449L705.481 103.327M705.481 100.449L703.131 100.449L705.481 103.327M705.481 100.449L705.577 100.372M705.577 100.372C705.5 100.434 705.481 103.902 705.481 105.629M705.481 105.629L706.656 103.902L704.306 103.902L705.481 105.629Z" stroke="black"/>
<path d="M628.437 95.054L631.962 95.054L628.532 97.8537C628.526 97.8587 628.52 97.8855 628.515 97.9315L630.787 97.9315L628.446 100.798C628.445 100.993 628.443 101.19 628.442 101.384L629.612 101.384L628.437 103.111L627.262 101.384L628.442 101.384C628.443 101.19 628.445 100.993 628.446 100.798L628.437 100.809L626.087 97.9315L628.437 97.9315L624.912 95.054L628.437 95.054Z" fill="black"/>
<path d="M628.437 91.0256L628.437 95.054M628.437 95.054L631.962 95.054L628.532 97.8537M628.437 95.054L624.912 95.054L628.437 97.9315M628.437 95.054L628.437 100.809M628.437 97.9315L630.787 97.9315L628.437 100.809M628.437 97.9315L626.087 97.9315L628.437 100.809M628.437 97.9315L628.532 97.8537M628.532 97.8537C628.456 97.9159 628.437 101.384 628.437 103.111M628.437 103.111L629.612 101.384L627.262 101.384L628.437 103.111Z" stroke="black"/>
<path d="M615.848 96.5648L619.373 96.5648L615.943 99.3645C615.937 99.3694 615.931 99.3963 615.926 99.4422L618.198 99.4422L615.857 102.308C615.856 102.504 615.854 102.701 615.853 102.895L617.023 102.895L615.848 104.622L614.673 102.895L615.853 102.895C615.854 102.701 615.856 102.504 615.857 102.308L615.848 102.32L613.498 99.4422L615.848 99.4422L612.323 96.5648L615.848 96.5648Z" fill="black"/>
<path d="M615.848 92.5363L615.848 96.5648M615.848 96.5648L619.373 96.5648L615.943 99.3645M615.848 96.5648L612.323 96.5648L615.848 99.4422M615.848 96.5648L615.848 102.32M615.848 99.4422L618.198 99.4422L615.848 102.32M615.848 99.4422L613.498 99.4422L615.848 102.32M615.848 99.4422L615.943 99.3645M615.943 99.3645C615.867 99.4267 615.848 102.895 615.848 104.622M615.848 104.622L617.023 102.895L614.673 102.895L615.848 104.622Z" stroke="black"/>
<path d="M144.518 101.6L148.043 101.6L144.613 104.4C144.607 104.405 144.601 104.432 144.596 104.478L146.868 104.478L144.527 107.344C144.525 107.54 144.524 107.736 144.523 107.931L145.693 107.931L144.518 109.657L143.343 107.931L144.523 107.931C144.524 107.736 144.525 107.54 144.527 107.344L144.518 107.355L142.168 104.478L144.518 104.478L140.993 101.6L144.518 101.6Z" fill="black"/>
<path d="M144.518 97.5718L144.518 101.6M144.518 101.6L148.043 101.6L144.613 104.4M144.518 101.6L140.993 101.6L144.518 104.478M144.518 101.6L144.518 107.355M144.518 104.478L146.868 104.478L144.518 107.355M144.518 104.478L142.168 104.478L144.518 107.355M144.518 104.478L144.613 104.4M144.613 104.4C144.537 104.462 144.518 107.931 144.518 109.657M144.518 109.657L145.693 107.931L143.343 107.931L144.518 109.657Z" stroke="black"/>
<path d="M129.411 104.118L132.936 104.118L129.506 106.918C129.5 106.923 129.494 106.95 129.489 106.996L131.761 106.996L129.42 109.862C129.419 110.058 129.417 110.254 129.416 110.449L130.586 110.449L129.411 112.175L128.236 110.449L129.416 110.449C129.417 110.254 129.419 110.058 129.42 109.862L129.411 109.873L127.061 106.996L129.411 106.996L125.886 104.118L129.411 104.118Z" fill="black"/>
<path d="M129.411 100.09L129.411 104.118M129.411 104.118L132.936 104.118L129.506 106.918M129.411 104.118L125.886 104.118L129.411 106.996M129.411 104.118L129.411 109.873M129.411 106.996L131.761 106.996L129.411 109.873M129.411 106.996L127.061 106.996L129.411 109.873M129.411 106.996L129.506 106.918M129.506 106.918C129.43 106.98 129.411 110.449 129.411 112.175M129.411 112.175L130.586 110.449L128.236 110.449L129.411 112.175Z" stroke="black"/>
<path d="M48.338 98.0755L51.8629 98.0755L48.4333 100.875C48.4272 100.88 48.4215 100.907 48.4161 100.953L50.6879 100.953L48.3473 103.819C48.3457 104.015 48.3443 104.212 48.3432 104.406L49.513 104.406L48.338 106.132L47.163 104.406L48.3432 104.406C48.3443 104.212 48.3457 104.015 48.3473 103.819L48.338 103.83L45.9881 100.953L48.338 100.953L44.8131 98.0755L48.338 98.0755Z" fill="black"/>
<path d="M48.338 94.0471L48.338 98.0755M48.338 98.0755L51.8629 98.0755L48.4333 100.875M48.338 98.0755L44.8131 98.0755L48.338 100.953M48.338 98.0755L48.338 103.83M48.338 100.953L50.6879 100.953L48.338 103.83M48.338 100.953L45.9881 100.953L48.338 103.83M48.338 100.953L48.4333 100.875M48.4333 100.875C48.3571 100.937 48.338 104.406 48.338 106.132M48.338 106.132L49.513 104.406L47.163 104.406L48.338 106.132Z" stroke="black"/>
<path d="M72.0052 104.118L75.5302 104.118L72.1005 106.918C72.0944 106.923 72.0887 106.95 72.0833 106.996L74.3552 106.996L72.0145 109.862C72.0129 110.058 72.0116 110.254 72.0104 110.449L73.1802 110.449L72.0052 112.175L70.8303 110.449L72.0104 110.449C72.0116 110.254 72.0129 110.058 72.0145 109.862L72.0052 109.873L69.6553 106.996L72.0052 106.996L68.4803 104.118L72.0052 104.118Z" fill="black"/>
<path d="M72.0052 100.09L72.0052 104.118M72.0052 104.118L75.5302 104.118L72.1005 106.918M72.0052 104.118L68.4803 104.118L72.0052 106.996M72.0052 104.118L72.0052 109.873M72.0052 106.996L74.3552 106.996L72.0052 109.873M72.0052 106.996L69.6553 106.996L72.0052 109.873M72.0052 106.996L72.1005 106.918M72.1005 106.918C72.0243 106.98 72.0052 110.449 72.0052 112.175M72.0052 112.175L73.1802 110.449L70.8303 110.449L72.0052 112.175Z" stroke="black"/>
<path d="M122.361 14.9884L118.836 14.9884L122.266 12.1888C122.272 12.1838 122.278 12.157 122.283 12.111L120.011 12.111L122.352 9.24486C122.353 9.04906 122.355 8.8524 122.356 8.658L121.186 8.658L122.361 6.93152L123.536 8.658L122.356 8.658C122.355 8.8524 122.353 9.04906 122.352 9.24486L122.361 9.2335L124.711 12.111L122.361 12.111L125.886 14.9884L122.361 14.9884Z" fill="black"/>
<path d="M122.361 19.0169L122.361 14.9884M122.361 14.9884L118.836 14.9884L122.266 12.1888M122.361 14.9884L125.886 14.9884L122.361 12.111M122.361 14.9884L122.361 9.2335M122.361 12.111L120.011 12.111L122.361 9.2335M122.361 12.111L124.711 12.111L122.361 9.2335M122.361 12.111L122.266 12.1888M122.266 12.1888C122.342 12.1265 122.361 8.658 122.361 6.93152M122.361 6.93152L121.186 8.658L123.536 8.658L122.361 6.93152Z" stroke="black"/>
<path d="M48.3381 8.9456L44.8132 8.9456L48.2428 6.14591C48.2489 6.14093 48.2546 6.11412 48.26 6.06813L45.9881 6.06813L48.3288 3.20202C48.3304 3.00622 48.3317 2.80956 48.3329 2.61516L47.1631 2.61516L48.3381 0.888672L49.513 2.61516L48.3329 2.61516C48.3317 2.80956 48.3304 3.00622 48.3288 3.20202L48.3381 3.19065L50.688 6.06813L48.3381 6.06813L51.863 8.9456L48.3381 8.9456Z" fill="black"/>
<path d="M48.3381 12.9741L48.3381 8.9456M48.3381 8.9456L44.8132 8.9456L48.2428 6.14591M48.3381 8.9456L51.863 8.9456L48.3381 6.06813M48.3381 8.9456L48.3381 3.19065M48.3381 6.06813L45.9881 6.06813L48.3381 3.19065M48.3381 6.06813L50.688 6.06813L48.3381 3.19065M48.3381 6.06813L48.2428 6.14591M48.2428 6.14591C48.319 6.08368 48.3381 2.61516 48.3381 0.888672M48.3381 0.888672L47.1631 2.61516L49.513 2.61516L48.3381 0.888672Z" stroke="black"/>
<path d="M15.6068 11.967L12.0818 11.967L15.5115 9.16727C15.5176 9.16229 15.5233 9.13548 15.5287 9.08949L13.2568 9.08949L15.5975 6.22338C15.5991 6.02758 15.6004 5.83092 15.6016 5.63652L14.4318 5.63652L15.6068 3.91003L16.7817 5.63652L15.6016 5.63652C15.6004 5.83092 15.5991 6.02758 15.5975 6.22338L15.6068 6.21201L17.9567 9.08949L15.6068 9.08949L19.1317 11.967L15.6068 11.967Z" fill="black"/>
<path d="M15.6068 15.9954L15.6068 11.967M15.6068 11.967L12.0818 11.967L15.5115 9.16727M15.6068 11.967L19.1317 11.967L15.6068 9.08949M15.6068 11.967L15.6068 6.21201M15.6068 9.08949L13.2568 9.08949L15.6068 6.21201M15.6068 9.08949L17.9567 9.08949L15.6068 6.21201M15.6068 9.08949L15.5115 9.16727M15.5115 9.16727C15.5877 9.10505 15.6068 5.63652 15.6068 3.91003M15.6068 3.91003L14.4318 5.63652L16.7817 5.63652L15.6068 3.91003Z" stroke="black"/>
<path d="M562.471 82.9688L565.996 82.9688L562.566 85.7685C562.56 85.7735 562.554 85.8003 562.549 85.8463L564.821 85.8463L562.48 88.7124C562.478 88.9082 562.477 89.1049 562.476 89.2993L563.646 89.2993L562.471 91.0258L561.296 89.2993L562.476 89.2993C562.477 89.1049 562.478 88.9082 562.48 88.7124L562.471 88.7238L560.121 85.8463L562.471 85.8463L558.946 82.9688L562.471 82.9688Z" fill="black"/>
<path d="M562.471 78.9404L562.471 82.9688M562.471 82.9688L565.996 82.9688L562.566 85.7685M562.471 82.9688L558.946 82.9688L562.471 85.8463M562.471 82.9688L562.471 88.7238M562.471 85.8463L564.821 85.8463L562.471 88.7238M562.471 85.8463L560.121 85.8463L562.471 88.7238M562.471 85.8463L562.566 85.7685M562.566 85.7685C562.49 85.8307 562.471 89.2993 562.471 91.0258M562.471 91.0258L563.646 89.2993L561.296 89.2993L562.471 91.0258Z" stroke="black"/>
<path d="M172.969 97.0684L187.824 94.047L193.363 21.2829L182.788 13.4777L171.206 9.9528L161.387 13.4777L156.351 11.7153L139.23 21.2829L105.492 16.2473L98.1903 13.4777L94.4136 16.2473L77.5444 9.9528L61.4305 3.65833L55.3878 8.44213L37.5115 13.4777L29.2028 17.758L8.80871 11.7153L0.5 13.4777V93.2917L4.27669 94.047L27.1886 89.2632L37.5115 97.0684L52.3665 94.047L71.7535 103.363L88.6227 97.0684H94.4136L101.463 94.047L133.439 103.363L164.408 94.047L172.969 97.0684Z" fill="black" stroke="black"/>
<path d="M591.929 91.781L557.184 78.6885L546.105 24.8078L573.297 15.7438L598.727 20.024L604.014 22.7936L609.302 20.024H619.625L633.976 24.8078L649.838 20.024L667.714 27.0738L694.151 20.024L705.23 24.8078L723.358 18.0098L743.5 24.8078V91.2775L742.493 90.5222L738.716 91.781L730.407 88.7597L718.07 91.781L711.02 96.8166H705.23L698.432 91.781L683.577 86.7455L676.527 88.7597L670.736 84.7312L653.363 88.7597L623.653 95.0542L609.302 91.781H591.929Z" fill="black" stroke="black"/>
</svg>
