<svg width="99" height="147" viewBox="0 0 99 147" fill="none" xmlns="http://www.w3.org/2000/svg">
<path d="M0.5 35.8292H97.5V98.8292H0.5V35.8292Z" fill="black"/>
<path d="M9.5 22.8292L12.4189 20.3968C12.4241 20.3925 12.429 20.3692 12.4336 20.3292H10.5L12.4921 17.8391C12.4935 17.669 12.4946 17.4981 12.4956 17.3292H11.5L12.5 15.8292L13.5 17.3292H12.4956C12.4946 17.4981 12.4935 17.669 12.4921 17.8391L12.5 17.8292L14.5 20.3292H12.5L15.5 22.8292H9.5Z" fill="black"/>
<path d="M18.5 16.8292L21.4189 14.3968C21.4241 14.3925 21.429 14.3692 21.4336 14.3292H19.5L21.4921 11.8391C21.4935 11.669 21.4946 11.4981 21.4956 11.3292H20.5L21.5 9.82921L22.5 11.3292H21.4956C21.4946 11.4981 21.4935 11.669 21.4921 11.8391L21.5 11.8292L23.5 14.3292H21.5L24.5 16.8292H18.5Z" fill="black"/>
<path d="M20 119.829L17.0811 122.262C17.0759 122.266 17.071 122.289 17.0664 122.329H19L17.0079 124.819C17.0065 124.989 17.0054 125.16 17.0044 125.329H18L17 126.829L16 125.329H17.0044C17.0054 125.16 17.0065 124.989 17.0079 124.819L17 124.829L15 122.329H17L14 119.829H17H20Z" fill="black"/>
<path d="M60 127.829L57.0811 130.262C57.0759 130.266 57.071 130.289 57.0664 130.329H59L57.0079 132.819C57.0065 132.989 57.0054 133.16 57.0044 133.329H58L57 134.829L56 133.329H57.0044C57.0054 133.16 57.0065 132.989 57.0079 132.819L57 132.829L55 130.329H57L54 127.829H60Z" fill="black"/>
<path d="M86 138.829L83.0811 141.262C83.0759 141.266 83.071 141.289 83.0664 141.329H85L83.0079 143.819C83.0065 143.989 83.0054 144.16 83.0044 144.329H84L83 145.829L82 144.329H83.0044C83.0054 144.16 83.0065 143.989 83.0079 143.819L83 143.829L81 141.329H83L80 138.829H86Z" fill="black"/>
<path d="M82.5 9.82921L85.4189 7.39679C85.4241 7.39246 85.429 7.36917 85.4336 7.32921H83.5L85.4921 4.83908C85.4935 4.66897 85.4946 4.4981 85.4956 4.32921H84.5L85.5 2.82921L86.5 4.32921H85.4956C85.4946 4.4981 85.4935 4.66897 85.4921 4.83908L85.5 4.82921L87.5 7.32921H85.5L88.5 9.82921H82.5Z" fill="black"/>
<path d="M1.5 100.329L24 124.329L38.5 111.829L37.5 111.329L35 103.829L10.5 100.329L11 96.3292L1.5 96.8292V100.329Z" fill="black"/>
<path d="M76 141.329L38 112.329L2.5 99.3292L14.5 81.8292L53 74.8292L97 97.8292V123.829L76 141.329Z" fill="black"/>
<path d="M97 23.8292V37.8292L1 39.8292V35.3292L21 18.8292L31.5 27.3292L54 0.829208L70 24.8292L84.5 11.3292L97 23.8292Z" fill="black"/>
<path d="M98 123.829L78 135.829L85 23.8292L87 16.8292L98 22.8292V123.829Z" fill="black"/>
<path d="M0.5 98.3292L1 97.8292L3 101.829L0.5 100.329V98.3292Z" fill="black"/>
<path d="M3 34.3292L0.5 35.8292V34.3292L6 33.3292L3 34.3292Z" fill="black"/>
<path d="M0.5 35.8292H97.5V98.8292H0.5V35.8292ZM0.5 35.8292L3 34.3292L6 33.3292L0.5 34.3292V35.8292ZM12.4921 17.8391L10.5 20.3292H12.4336C12.429 20.3692 12.4241 20.3925 12.4189 20.3968L9.5 22.8292H15.5L12.5 20.3292H14.5L12.5 17.8292L12.4921 17.8391ZM12.4921 17.8391C12.4935 17.669 12.4946 17.4981 12.4956 17.3292M12.4956 17.3292H11.5L12.5 15.8292L13.5 17.3292H12.4956ZM21.4921 11.8391L19.5 14.3292H21.4336C21.429 14.3692 21.4241 14.3925 21.4189 14.3968L18.5 16.8292H24.5L21.5 14.3292H23.5L21.5 11.8292L21.4921 11.8391ZM21.4921 11.8391C21.4935 11.669 21.4946 11.4981 21.4956 11.3292M21.4956 11.3292H20.5L21.5 9.82921L22.5 11.3292H21.4956ZM17.0079 124.819L19 122.329H17.0664C17.071 122.289 17.0759 122.266 17.0811 122.262L20 119.829H17M17.0079 124.819C17.0065 124.989 17.0054 125.16 17.0044 125.329M17.0079 124.819L17 124.829L15 122.329H17L14 119.829H17M17.0044 125.329H18L17 126.829L16 125.329H17.0044ZM57.0079 132.819L59 130.329H57.0664C57.071 130.289 57.0759 130.266 57.0811 130.262L60 127.829H54L57 130.329H55L57 132.829L57.0079 132.819ZM57.0079 132.819C57.0065 132.989 57.0054 133.16 57.0044 133.329M57.0044 133.329H58L57 134.829L56 133.329H57.0044ZM83.0079 143.819L85 141.329H83.0664C83.071 141.289 83.0759 141.266 83.0811 141.262L86 138.829H80L83 141.329H81L83 143.829L83.0079 143.819ZM83.0079 143.819C83.0065 143.989 83.0054 144.16 83.0044 144.329M83.0044 144.329H84L83 145.829L82 144.329H83.0044ZM85.4921 4.83908L83.5 7.32921H85.4336C85.429 7.36917 85.4241 7.39246 85.4189 7.39679L82.5 9.82921H88.5L85.5 7.32921H87.5L85.5 4.82921L85.4921 4.83908ZM85.4921 4.83908C85.4935 4.66897 85.4946 4.4981 85.4956 4.32921M85.4956 4.32921H84.5L85.5 2.82921L86.5 4.32921H85.4956ZM22.5 121.829L1 100.329V94.3292L26.5 100.329L23 121.829M17 119.829V115.829M57 128.329V123.829M83 139.829V132.329M85.5 8.82921V18.8292M12.5 21.8292V30.8292M21.5 15.8292V29.3292M1.5 100.329L24 124.329L38.5 111.829L37.5 111.329L35 103.829L10.5 100.329L11 96.3292L1.5 96.8292V100.329ZM76 141.329L38 112.329L2.5 99.3292L14.5 81.8292L53 74.8292L97 97.8292V123.829L76 141.329ZM97 23.8292V37.8292L1 39.8292V35.3292L21 18.8292L31.5 27.3292L54 0.829208L70 24.8292L84.5 11.3292L97 23.8292ZM78 135.829L98 123.829V22.8292L87 16.8292L85 23.8292L78 135.829ZM1 97.8292L0.5 98.3292V100.329L3 101.829L1 97.8292Z" stroke="black"/>
</svg>
