<svg width="95" height="295" viewBox="0 0 95 295" fill="none" xmlns="http://www.w3.org/2000/svg">
<path d="M0 244.551C2.35458 251.278 6.47765 262.594 7.60352 265.242C8.59702 267.578 14.9888 286.022 16.9404 292.185C17.1934 292.984 17.4557 293.793 17.7393 294.662H7.59863C5.7923 289.587 4.01875 284.633 2.74609 281.114C1.76848 278.41 0.817968 275.73 0 273.401V253.431C1.13547 256.546 1.92782 258.57 1.99414 258.475C2.06929 258.361 1.24174 255.755 0 252.143V244.551ZM1.91992 196.867C1.21352 194.46 1.88101 194.593 3.04199 197.09C4.05113 199.262 4.38015 199.437 8.36914 199.926C9.74373 200.095 11.3348 200.359 11.9043 200.513C12.8068 200.758 12.9045 200.672 12.667 199.847C11.7703 196.733 12.183 196.177 13.458 198.782C14.0883 200.07 14.6676 200.55 16.1357 201.003L18.0098 201.582L16.3135 201.639C15.3808 201.671 14.6172 201.815 14.6172 201.96C14.6178 202.739 18.2774 212.452 18.6455 212.652C18.8855 212.782 20.0449 213.087 21.2227 213.331L23.3652 213.773L21.1338 213.835C19.9065 213.869 18.9023 213.972 18.9023 214.065C18.9042 214.162 19.8389 216.848 20.9814 220.038L23.0615 225.843L25.1689 226.221C28.0672 226.74 28.5133 227.168 25.7754 226.803C24.5487 226.64 23.5486 226.7 23.5527 226.937C23.558 227.174 24.4828 229.885 25.6084 232.961L27.6553 238.552L29.6162 238.883C30.6946 239.065 33.0363 239.238 34.8203 239.265L38.0645 239.315L36.0107 233.596L33.9561 227.878L31.5166 227.31L29.0771 226.744L31.3252 226.674L33.5723 226.606L31.7773 221.632C29.2757 214.698 29.4843 214.977 26.3994 214.448L23.7217 213.989L26.1318 214.028C27.4573 214.049 28.6327 213.937 28.7432 213.78C28.8519 213.618 28.2035 211.352 27.3008 208.739C26.2913 205.817 25.9538 204.474 26.4258 205.254C26.8484 205.953 27.7255 208.025 28.374 209.859C29.0225 211.692 29.7735 213.454 30.043 213.772C30.3131 214.09 32.4395 214.513 34.7686 214.711L39.0039 215.072L37.083 209.945L35.1631 204.818L32.2988 204.272C30.7235 203.972 27.7474 203.494 25.6855 203.211C21.1783 202.594 18.376 201.556 22.2393 201.935C24.2913 202.136 24.6492 202.055 24.4707 201.427C23.859 199.277 23.9278 199.04 24.7627 200.425C25.2682 201.264 25.6823 202.1 25.6836 202.284C25.6846 202.467 27.2524 202.761 29.167 202.936C31.0812 203.111 33.1064 203.36 33.668 203.49C34.6183 203.709 34.6724 203.633 34.4512 202.378L34.2129 201.031L35.4443 202.569C36.512 203.904 37.0466 204.153 39.4814 204.449C41.025 204.637 42.7294 204.913 43.2695 205.063C44.0068 205.268 44.2518 205.135 44.252 204.533C44.252 203.52 44.5926 203.506 45.1045 204.498C45.3476 204.968 46.8078 205.566 48.877 206.042C50.7329 206.468 52.3395 206.952 52.4473 207.117C52.5545 207.282 51.1345 207.253 49.292 207.054L45.9414 206.693L47.2891 210.125C48.0304 212.012 48.8897 214.183 49.1982 214.949C49.7828 216.399 50.8435 216.879 53.7129 216.992C54.4984 217.023 55.5432 217.245 56.0342 217.484C56.6288 217.774 55.8269 217.884 53.624 217.814C51.8075 217.756 50.3212 217.9 50.3213 218.132C50.3216 218.366 51.1539 220.682 52.1719 223.281L54.0234 228.005L56.1523 228.323C57.3231 228.497 58.9096 228.639 59.6777 228.639C60.6224 228.639 60.9943 228.825 60.8262 229.212C60.6539 229.609 59.6593 229.679 57.5918 229.44C55.9501 229.25 54.6063 229.259 54.6055 229.461C54.6055 229.901 58.1111 239.325 58.582 240.151C58.9117 240.729 66.6161 241.701 66.9619 241.209C67.0585 241.064 65.1839 235.504 62.7939 228.849C60.4029 222.191 57.5008 213.873 56.3457 210.364L54.2461 203.984L55.5869 206.017C56.3243 207.136 57.2128 208.623 57.5615 209.322L58.1953 210.592L57.9785 209.322C57.8592 208.623 57.6852 207.593 57.5908 207.034C57.1273 204.285 60.0474 210.792 65.0068 223.556C67.9942 231.245 70.8131 238.474 71.2715 239.621L72.1055 241.705L75.584 242.033C80.0014 242.449 82.4541 242.454 82.4541 242.045C82.4535 241.43 79.0958 232.661 78.665 232.15C78.4267 231.868 76.4901 231.502 74.3623 231.336C72.2345 231.169 70.172 230.832 69.7793 230.586C69.349 230.317 70.8728 230.249 73.6172 230.415C76.1194 230.566 78.1675 230.54 78.1699 230.359C78.1699 229.92 74.9735 221.394 74.5967 220.828C74.4349 220.585 72.247 220.183 69.7354 219.934C67.225 219.685 65.0036 219.227 64.7969 218.916C64.4186 218.34 64.9286 218.367 71.6846 219.287L74.3037 219.643L72.4541 214.7C71.4369 211.981 70.6812 209.647 70.7744 209.514C70.9679 209.246 73.3835 214.564 74.5547 217.836C75.3151 219.961 75.359 219.997 77.1953 220.002C78.2223 220.004 79.9205 220.152 80.9688 220.332L82.874 220.658L81.5713 216.973C80.8545 214.947 80.1142 212.681 79.9268 211.94L79.5859 210.592L80.2988 211.863C80.6906 212.562 81.5737 214.647 82.2617 216.496C83.7407 220.47 84.029 220.863 85.6689 221.145L86.917 221.359L85.5781 221.441C84.8423 221.486 84.247 221.693 84.2549 221.903C84.2628 222.113 85.0319 224.229 85.9619 226.606L87.6533 230.926L89.4277 231.263C90.8207 231.528 92.9889 231.666 94.3672 231.639V232.841C91.9757 232.396 88.1688 232.035 88.167 232.405C88.167 232.733 90.4542 238.873 91.4512 241.221L92.1523 242.874H94.3672V247.229C94.0608 247.307 93.8799 247.397 93.8799 247.5C93.8801 247.683 94.0725 248.346 94.3672 249.215V251.607L92.6602 247.049L91.0771 246.741C89.0472 246.345 86.5986 246.346 85.8721 246.743C85.3985 247.002 85.6154 247.883 87.1807 252.061L89.0566 257.07L91.7354 257.241C92.6942 257.302 93.6818 257.376 94.3672 257.435V258.278L93.2471 258.234C91.2074 258.153 89.5947 258.294 89.5947 258.553C89.5952 259.062 92.6662 267.139 93.249 268.165C93.3381 268.321 93.763 268.452 94.3672 268.557V270.019C94.2482 270.047 94.174 270.077 94.1523 270.107C94.112 270.165 94.1988 270.551 94.3672 271.14V274.232L93.0049 270.326L89.4258 270.318C85.6319 270.31 84.124 269.987 84.4434 269.251C84.5509 269.003 86.3712 268.799 88.4883 268.799H92.3369L88.4912 258.124L84.3125 258.116C82.0155 258.111 79.895 257.887 79.5986 257.616C79.2374 257.283 80.554 257.12 83.6436 257.115L88.2246 257.107L86.2598 251.896L84.2939 246.685L79.5576 246.287C76.9532 246.067 74.5997 246.009 74.3271 246.158C73.9434 246.367 74.0893 247.086 74.9775 249.353C76.5514 253.37 78.7047 258.819 81.4561 265.75C82.7326 268.965 85.0299 274.912 86.5615 278.966C88.0932 283.021 90.6373 289.655 92.2148 293.71C92.3336 294.015 92.4555 294.333 92.582 294.662H87.3613C86.4071 292.145 85.4406 289.571 84.7725 287.754L82.6758 282.053L78.7266 282.36C76.5561 282.529 74.7011 282.767 74.6025 282.889C74.4376 283.097 76.5292 289.043 77.8975 292.255L78.5166 293.711H82.4277C84.5789 293.711 86.4282 293.915 86.5371 294.166C86.62 294.357 86.6014 294.521 86.4883 294.662H69.7451L72.5518 294.432C74.5616 294.268 76.3914 294.054 76.6172 293.958C76.8658 293.849 76.2353 291.623 75.0098 288.281L72.9932 282.781L68.9561 282.852C66.7356 282.891 64.8368 283.04 64.7373 283.181C64.5371 283.471 66.7091 289.793 68.04 292.795L68.8672 294.662H66.7686C66.885 294.626 66.9585 294.592 66.9814 294.559C67.1148 294.368 66.3275 291.755 65.2314 288.752L63.2383 283.289L59.3916 283.143C57.2762 283.063 55.3353 283.114 55.0781 283.253C54.7398 283.438 55.1125 284.944 56.4365 288.736C57.4407 291.611 58.4392 294.278 58.6553 294.661L58.6562 294.662H57.043C56.7814 293.613 56.1651 291.617 55.3975 289.384L53.3896 283.543H43.5312L45.3604 288.733C46.4121 291.717 47.0008 293.553 47.543 294.662H45.9873C44.9662 291.419 42.3475 284.282 41.9727 283.916C41.6669 283.618 33.6056 283.929 33.2998 284.249C33.2652 284.285 33.9165 286.257 34.748 288.631C35.7386 291.46 36.4092 293.375 36.8896 294.662H35.4473C35.0987 293.571 34.647 292.224 34.1416 290.788L31.9502 284.56H27.8066C25.5287 284.56 23.5619 284.706 23.4346 284.884C23.255 285.14 25.156 290.818 26.6553 294.662H25.2021C24.8905 293.767 24.5369 292.75 24.1611 291.676L21.9365 285.322L19.7949 285.196C14.7841 284.902 13.8171 283.875 18.0693 283.363C19.5745 283.182 20.8751 282.936 20.96 282.816C21.0439 282.696 20.0927 279.78 18.8467 276.335L16.5811 270.071L13.4736 269.734C8.52316 269.197 8.39066 267.891 13.2793 267.819C14.6046 267.801 15.6885 267.593 15.6885 267.36C15.6877 267.125 14.8364 264.553 13.7959 261.641C12.4428 257.855 11.7056 256.317 11.208 256.245C10.8253 256.19 9.42706 256.001 8.10156 255.824C6.77626 255.647 5.6916 255.291 5.69141 255.034C5.69141 254.777 6.89656 254.566 8.36914 254.566C10.274 254.566 11.0468 254.382 11.0459 253.93C11.0451 253.58 10.1792 250.892 9.12109 247.957L7.19727 242.619L5.28418 242.498C4.23208 242.431 2.51246 242.24 1.46289 242.074C0.718401 241.956 0.262666 241.854 0 241.703V237.282H1.44238C3.58318 237.282 5.32296 237.11 5.30859 236.9C5.29472 236.688 4.3701 234.001 3.25586 230.927L1.22852 225.335L0 225.153V223.474C0.433695 223.432 0.69302 223.385 0.693359 223.334C0.693359 223.216 0.412232 222.357 0 221.165V218.15L1.94238 223.81L8.0127 224.92L5.22461 225.127L2.43652 225.335L6.74316 237.79H11.3945C13.9526 237.79 16.0459 237.646 16.0459 237.471C16.0447 237.293 15.0705 234.549 13.8799 231.371L11.7139 225.588H10.1094C9.09954 225.588 8.59023 225.395 8.7334 225.065C8.86531 224.761 9.47399 224.678 10.1826 224.868C11.0545 225.101 11.4043 225.008 11.4043 224.545C11.4035 223.905 7.65807 213.492 7.16406 212.756C6.97479 212.476 2.66251 211.835 0 211.587V210.689C2.78355 211.14 6.76436 211.402 6.74902 210.973C6.741 210.763 5.89834 208.313 4.875 205.528C3.306 201.258 2.84557 200.402 1.94238 200.065C1.50438 199.902 0.807068 199.737 0 199.587V198.656C1.00099 198.736 1.82088 198.758 2.19238 198.691C2.32954 198.667 2.20819 197.845 1.91992 196.867ZM94.3672 294.605C94.0704 294.534 93.9685 294.425 94.0332 294.276C94.0749 294.18 94.1935 294.088 94.3672 294.005V294.605ZM11.9004 286.225C11.7271 286.472 13.1407 290.148 13.4102 290.152C13.493 290.152 13.2248 289.214 12.8145 288.069C12.4044 286.924 11.9932 286.095 11.9004 286.225ZM6.5791 271.342C6.48504 271.353 7.53039 274.552 8.90527 278.46C10.2824 282.374 11.4897 285.577 11.5879 285.577C11.6839 285.571 10.6377 282.371 9.26172 278.46C7.88453 274.545 6.67729 271.342 6.5791 271.342ZM21.5352 269.308C19.0987 269.308 18.1868 269.481 18.1826 269.944C18.18 270.293 19.1758 273.382 20.3965 276.807L22.6162 283.035L26.3828 283.027C28.4541 283.022 30.3712 282.818 30.6426 282.574C31.0374 282.217 30.7282 280.916 29.085 276.025C26.7259 269.004 27.0677 269.308 21.5352 269.308ZM83.7764 277.603C83.5587 277.412 83.8376 278.384 84.3965 279.763C84.9553 281.143 85.4863 282.459 85.5762 282.687C85.6661 282.916 85.8183 282.99 85.9141 282.854C86.009 282.716 85.6564 281.558 85.1299 280.279C84.6031 278.999 83.994 277.795 83.7764 277.603ZM34.248 269.682C32.5826 269.468 30.5419 269.425 29.7139 269.585L28.209 269.875L30.4268 276.215L32.6445 282.555L36.9307 282.414C41.2074 282.272 41.217 282.269 41.124 281.063C41.0727 280.398 40.1858 277.653 39.1533 274.962L37.2764 270.071L34.248 269.682ZM3.71875 275.409C3.622 275.412 4.10741 277.012 4.79883 278.967C5.49107 280.925 6.13814 282.526 6.23633 282.526C6.3343 282.526 5.8484 280.924 5.15625 278.967C4.46404 277.01 3.81693 275.409 3.71875 275.409ZM94.3672 282.402L93.1025 282.46C88.9675 282.646 87.5925 282.34 88.5752 281.454C88.842 281.213 90.7072 281.014 92.7197 281.009C93.328 281.008 93.8831 280.988 94.3672 280.957V282.402ZM43.7129 269.817C41.0636 269.817 38.8965 269.936 38.8965 270.082C38.8979 270.48 42.1112 279.516 42.7285 280.857C43.2391 281.967 43.4665 282.018 47.8633 282.018C50.7409 282.018 52.4622 281.825 52.4639 281.502C52.4639 281.217 51.5787 278.472 50.4971 275.401L48.5303 269.817H43.7129ZM50.5537 271.725C50.8578 272.774 51.7513 275.404 52.5391 277.571L53.9707 281.511H62.4355L61.7686 279.295C61.402 278.078 60.4841 275.45 59.7285 273.458L58.3545 269.835L50.001 269.819L50.5537 271.725ZM70.7061 276.298C67.947 269.011 68.1143 269.181 63.915 269.388C61.9691 269.484 60.2601 269.729 60.1172 269.932C59.9748 270.135 60.6987 272.71 61.7256 275.652L63.5928 281.002H72.4873L70.7061 276.298ZM64.8408 245.526C62.5498 245.447 60.6784 245.562 60.6826 245.781C60.6888 246.002 61.4569 248.239 62.3916 250.753L64.0918 255.329L67.6494 255.741C72.419 256.293 72.88 257.108 68.4229 257.108C66.5184 257.108 64.9604 257.265 64.96 257.457C64.96 257.649 65.8403 260.019 66.916 262.724L68.8711 267.642L70.5361 267.967C71.4516 268.146 73.0519 268.292 74.0928 268.292C75.1338 268.292 76.0847 268.521 76.2061 268.8C76.3469 269.125 75.2776 269.308 73.252 269.308C71.5059 269.308 69.978 269.45 69.8564 269.624C69.6084 269.977 71.6869 276.066 73.0752 279.053L73.9805 281.002H78.0771C81.8291 281.002 82.154 280.926 81.9404 280.112C81.8122 279.623 79.6458 273.846 77.127 267.275C74.6081 260.704 71.7512 253.155 70.7773 250.499L69.0059 245.67L64.8408 245.526ZM75.7988 256.599C75.5975 256.606 78.761 265.123 80.5674 269.436C82.4954 274.039 82.3306 272.851 80.2852 267.402C78.028 261.389 76.0387 256.599 75.7988 256.599ZM5.1377 267.784C5.03995 267.784 5.20926 268.471 5.51367 269.309C5.81825 270.148 6.14793 270.834 6.24609 270.834C6.34323 270.832 6.17417 270.147 5.87012 269.309C5.56549 268.47 5.23588 267.784 5.1377 267.784ZM56.9766 256.785C55.7777 256.551 55.3193 256.635 55.3193 257.089C55.3197 257.77 58.3766 266.614 58.9717 267.657C59.4488 268.493 67.459 268.565 67.459 267.733C67.4587 267.425 66.5586 264.909 65.458 262.141L63.4561 257.108H61.0449C59.7186 257.108 57.8877 256.962 56.9766 256.785ZM49.25 256.6C47.0921 256.6 45.3256 256.718 45.3223 256.863C45.3223 257.507 49.0224 267.564 49.3838 267.903C49.9645 268.443 57.4619 268.379 57.4619 267.835C57.4618 266.825 54.6177 258.651 53.9219 257.66C53.2577 256.714 52.7545 256.6 49.25 256.6ZM30.9463 256.42C28.1149 255.935 24.3279 256.029 24.084 256.589C23.9652 256.863 24.7187 259.437 25.7588 262.308C27.9305 268.304 27.7196 268.134 33.0947 268.232C35.5198 268.276 36.3971 268.123 36.3984 267.657C36.3991 267.307 35.5924 264.708 34.6064 261.88L32.8145 256.739L30.9463 256.42ZM39.1396 256.712C36.4529 256.635 34.2549 256.689 34.2549 256.834C34.2561 257.814 38.085 267.793 38.5254 267.962C39.6034 268.378 47.8169 268.284 47.8223 267.856C47.8223 267.616 46.9681 265.042 45.9238 262.136L44.0244 256.853L39.1396 256.712ZM15.0117 261.302C16.0176 264.168 17.003 266.798 17.2012 267.148C17.4542 267.594 18.8749 267.784 21.9785 267.784H26.3955L24.3525 261.937L22.3086 256.091H13.1826L15.0117 261.302ZM51.7881 248.085C52.4042 249.832 53.3056 252.234 53.791 253.422L54.6738 255.584H58.7451C60.9847 255.584 62.8138 255.411 62.8096 255.202C62.8042 254.992 62.037 252.762 61.1016 250.247C59.145 244.986 59.2487 245.063 53.9756 244.967L50.668 244.908L51.7881 248.085ZM48.2314 244.716C46.6306 244.339 41.0381 244.299 41.0381 244.665C41.0394 245.061 43.8969 253.082 44.5156 254.426C45.0178 255.518 45.278 255.583 49.1123 255.583C51.3471 255.583 53.1762 255.44 53.1777 255.265C53.1777 255.09 52.3578 252.714 51.3555 249.985C49.6401 245.314 49.4564 245.005 48.2314 244.716ZM30.0801 245.289C30.3181 246.058 31.209 248.565 32.0596 250.861L33.6064 255.036L36.6973 255.205C38.3975 255.297 40.4622 255.421 41.2852 255.478C42.108 255.535 42.8841 255.346 43.0098 255.057C43.1354 254.768 42.4621 252.309 41.5137 249.592L39.7891 244.653L38.1816 244.309C37.2977 244.12 35.0162 243.949 33.1113 243.928L29.6475 243.89L30.0801 245.289ZM20.7715 247.982C23.0365 255.062 23.0499 255.075 27.9893 255.075C30.2569 255.075 32.1082 254.903 32.1035 254.693C32.0971 254.48 31.255 252.033 30.2295 249.252C28.8172 245.421 28.1462 244.105 27.4707 243.837C26.9798 243.643 24.9408 243.461 22.9395 243.433L19.3008 243.382L20.7715 247.982ZM10.626 248.72L12.625 254.566H17.1914C19.7031 254.566 21.7588 254.448 21.7588 254.303C21.7574 254.155 20.8728 251.526 19.792 248.458L17.8252 242.874H8.62598L10.626 248.72ZM70.4277 243.051C70.2352 243.326 71.6566 246.937 71.958 246.94C72.044 246.94 71.7795 246.003 71.3691 244.858C70.9587 243.712 70.5346 242.899 70.4277 243.051ZM80.9756 235.375C81.7322 237.401 82.6191 239.803 82.9473 240.712L83.5439 242.365H87.1055C89.0635 242.365 90.6632 242.194 90.6611 241.984C90.6585 241.774 89.8779 239.543 88.9268 237.027C86.9723 231.856 86.8701 231.777 82.0088 231.718L79.5996 231.689L80.9756 235.375ZM33.0049 241.16C30.5097 240.963 29.3383 241.021 29.792 241.318C30.4617 241.755 37.4043 242.084 37.0811 241.663C36.9972 241.556 35.1636 241.33 33.0049 241.16ZM25.5967 240.978C24.8604 240.868 23.6554 240.869 22.9189 240.978C22.1826 241.088 22.7852 241.177 24.2578 241.177C25.7303 241.177 26.3327 241.088 25.5967 240.978ZM51.5947 228.937C47.6641 228.371 44.9658 228.269 44.9658 228.685C44.9673 229.121 47.8181 236.997 48.7617 239.171C49.2132 240.212 49.5615 240.309 53.2676 240.442C55.4746 240.521 57.3376 240.542 57.4102 240.49C57.4799 240.437 56.6073 237.874 55.4707 234.795L53.4043 229.198L51.5947 228.937ZM39.4561 227.953C37.1618 227.715 35.2222 227.609 35.1416 227.715C34.9255 228.023 38.8619 238.715 39.3496 239.145C39.8089 239.549 47.0785 240.234 47.5693 239.92C47.7251 239.819 46.9038 237.182 45.7432 234.06L43.6328 228.385L39.4561 227.953ZM19.5117 226.353C18.0963 226.169 16.1129 226.094 15.1045 226.185L13.2715 226.351L17.2949 238.045L20.6875 238.328C22.553 238.484 24.5116 238.656 25.04 238.71C25.5684 238.763 26.0761 238.633 26.168 238.421C26.2584 238.207 25.3777 235.482 24.21 232.363L22.085 226.688L19.5117 226.353ZM60.7578 217.675C60.6731 217.796 61.9231 221.285 63.5352 225.427C67.5819 235.827 68.177 237.282 68.3818 237.282C68.4794 237.281 68.1751 236.308 67.7051 235.121C67.2347 233.932 65.5138 229.472 63.8809 225.209C62.2484 220.946 60.8434 217.557 60.7578 217.675ZM79.4609 220.968C77.5262 220.686 75.8649 220.568 75.7695 220.704C75.6757 220.844 76.3814 223.083 77.3389 225.684L79.082 230.419L81.5713 230.71C82.9407 230.87 84.6657 231.042 85.4043 231.091L86.7471 231.181L85.3438 227.241C83.2295 221.302 83.4638 221.551 79.4609 220.968ZM42.1104 221.318C43.1513 224.086 44.1529 226.627 44.3369 226.965C44.5244 227.31 45.7935 227.657 47.2285 227.754C48.6348 227.85 50.468 227.974 51.3027 228.03C52.1368 228.085 52.8195 227.988 52.8203 227.813C52.8203 227.638 52.0002 225.262 50.998 222.534L49.1758 217.572L47.5176 217.275C46.6053 217.112 44.5894 216.822 43.0381 216.631L40.2168 216.284L42.1104 221.318ZM87.8096 210.068C87.8097 209.086 88.7792 211.069 90.708 215.997C91.9148 219.08 93.0817 221.678 93.3018 221.772C93.4283 221.825 93.8372 221.949 94.3672 222.103V222.712C93.856 222.735 93.5225 222.826 93.5225 222.972C93.5227 223.163 93.8831 224.225 94.3672 225.545V227.766C94.2594 227.479 94.1494 227.182 94.0352 226.881C92.2474 222.174 92.7329 222.601 88.3457 221.856C87.7566 221.756 88.3558 221.64 89.6748 221.598L92.0762 221.522L90.9941 218.911C89.7609 215.933 87.8096 210.514 87.8096 210.068ZM31.25 217.759C31.7577 219.13 32.7558 221.795 33.4678 223.682L34.7617 227.114H39.001C41.3324 227.114 43.1865 226.933 43.1211 226.712C43.0548 226.49 42.2096 224.107 41.2422 221.417C39.2345 215.832 39.5896 216.118 33.9863 215.604L30.3262 215.268L31.25 217.759ZM9.27148 215.217C9.672 216.588 10.6072 219.311 11.3506 221.268C12.6569 224.708 12.7556 224.837 14.2852 225.131C16.4752 225.553 21.7555 225.657 21.7588 225.278C21.7588 225.107 20.8342 222.488 19.7051 219.459C18.3775 215.897 17.4003 213.855 16.9385 213.677C16.5457 213.527 14.4961 213.251 12.3838 213.065L8.54297 212.726L9.27148 215.217ZM42.252 205.922C39.3335 205.299 36.3965 205.081 36.3965 205.487C36.3986 205.849 39.6476 214.604 39.9521 215.068C40.4205 215.782 48.5383 216.717 48.5312 216.057C48.5286 215.847 47.7485 213.617 46.7988 211.1L45.0723 206.525L42.252 205.922ZM12.1377 201.486C9.81556 200.919 4.26367 200.52 4.26367 200.92C4.26455 201.14 5.09263 203.572 6.10449 206.327C8.17553 211.966 7.73693 211.595 13.1895 212.327C16.6805 212.795 16.9803 212.752 16.8232 211.799C16.7598 211.415 15.9647 209.007 15.0566 206.448C13.5205 202.119 13.3177 201.774 12.1377 201.486ZM0 148.694C1.28649 149.006 2.43199 149.328 3.01562 149.552C3.99743 149.93 5.88547 150.371 7.21191 150.531C9.57301 150.815 16.0361 152.136 27.8291 154.746C38.4676 157.1 41.449 157.909 42.252 158.658C42.7557 159.128 43.2452 159.237 43.5957 158.958C43.9429 158.681 47.3714 159.367 52.8584 160.812C66.6641 164.448 67.6135 164.841 66.1865 166.327C65.5878 166.95 65.5948 167.077 66.333 168.778C67.4375 171.322 67.7937 171.629 70.0771 172.011L72.1113 172.352L71.4199 170.154C70.9706 168.725 70.3135 167.649 69.541 167.078L68.3525 166.199L69.334 165.845C70.575 165.401 88.0887 170.341 94.3672 172.703V174.602C93.7877 174.31 93.0638 174.124 92.0732 173.937L90.2373 173.59L91.2197 175.824C92.3884 178.48 92.5221 178.636 94.3672 179.034V179.906C93.6792 179.828 93.1674 179.86 93.167 179.995C93.167 180.155 93.5029 181.096 93.9131 182.086C95.0181 184.752 94.5424 185.443 93.3242 182.941C91.3643 178.915 91.3497 178.901 88.0967 177.967C86.388 177.477 84.895 177.21 84.7793 177.375C84.6637 177.539 84.9168 178.514 85.3418 179.54C86.3851 182.057 85.9831 182.391 84.7227 180.053C83.0181 176.892 82.4952 176.279 81.4736 176.238C80.9335 176.217 79.8497 175.88 79.0645 175.49L77.6357 174.781L79.4209 175.049C80.4027 175.197 81.4874 175.435 81.8311 175.578C82.5934 175.894 82.6317 175.278 81.9316 173.96C81.6433 173.417 81.4073 172.515 81.4072 171.956C81.4072 170.869 81.6045 171.137 83.8164 175.237C84.2699 176.078 84.7521 176.727 84.8877 176.679C85.0257 176.633 86.3104 176.889 87.7451 177.25C89.1809 177.61 90.427 177.805 90.5146 177.682C90.6012 177.559 90.309 176.503 89.8662 175.336C89.2609 173.74 88.7508 173.093 87.8115 172.73C85.4288 171.809 72.7416 168.08 72.6133 168.263C72.5427 168.365 73.0116 169.695 73.6562 171.218C74.3011 172.743 74.8328 174.104 74.8369 174.244C74.8422 174.383 75.0466 175.371 75.2939 176.438C75.8764 178.951 75.611 179.262 74.5537 177.306C72.3567 173.241 72.3215 173.203 70.3164 172.753C69.2371 172.511 68.2855 172.407 68.2002 172.522C68.116 172.637 68.3231 173.557 68.6611 174.567C69.5308 177.164 69.2286 177.121 67.9854 174.471C66.8288 172.007 66.014 171.492 62.2988 170.875L60.1729 170.521L61.3174 172.737C62.4543 174.938 62.788 176.116 62.1045 175.514C61.9084 175.342 61.7482 175.413 61.748 175.672C61.748 176.16 63.895 176.833 68.5312 177.796C70.004 178.103 73.5393 179.009 76.3867 179.811L81.5635 181.27L82.8633 183.416C84.0735 185.414 84.1794 185.487 84.4043 184.478C84.6927 183.184 85.6372 183.101 88.6309 184.104C91.5508 185.082 91.6222 185.608 88.793 185.299C87.4691 185.155 86.3862 185.105 86.3838 185.187C86.3838 185.27 87.5007 187.976 88.8662 191.2C91.2797 196.898 93.167 201.849 93.167 202.482C93.1669 202.653 92.7002 202.647 92.1299 202.468C91.1508 202.162 90.3074 202.843 90.957 203.415C91.0691 203.513 92.4401 203.917 94.3672 204.43V206.923C93.7259 206.774 92.9576 206.636 92.2773 206.559L90.1309 206.315L92.4512 206.994C93.0947 207.182 93.7816 207.354 94.3672 207.481V209.042C94.094 208.992 93.8126 208.939 93.5225 208.886C82.3037 206.837 75.2284 205.498 68.5303 204.159C64.3083 203.314 59.8091 202.428 58.5322 202.189C56.3427 201.779 53.4108 201.047 44.6084 198.711C42.5464 198.163 38.4493 197.336 35.5039 196.872C32.5584 196.408 28.2206 195.597 25.8643 195.07C18.2803 193.374 5.72163 190.731 0 189.622V184.031C2.10602 184.292 4.43906 184.64 6.22852 184.974C9.17398 185.524 12.3688 186.116 13.3281 186.289C14.3272 186.469 15.0062 186.406 14.918 186.142C12.3648 178.513 8.74408 168.584 8.34082 168.107C8.04714 167.76 4.95286 166.956 1.46484 166.32C1.0441 166.243 0.551865 166.15 0 166.045V162.771C2.03788 163.223 3.7034 163.611 4.44238 163.811C5.81688 164.183 7.20748 164.509 7.53223 164.536C7.97589 164.571 7.5185 162.977 5.68848 158.103L3.25391 151.621L0 150.874V148.694ZM61.5684 200.735C60.3057 200.82 62.9823 201.529 68.0674 202.456C70.7763 202.949 75.4836 203.865 78.5273 204.491C84.2323 205.664 85.895 205.913 85.6377 205.555C85.3652 205.182 76.6757 203.268 71.5645 202.455C68.8154 202.017 65.602 201.441 64.4238 201.173C63.2461 200.906 61.9616 200.709 61.5684 200.735ZM21.6064 169.944C16.908 168.959 12.9959 168.25 12.9131 168.368C12.8325 168.492 14.2055 172.808 15.9668 177.965L19.1719 187.349L21.0898 187.718C22.1445 187.922 23.3287 188.191 23.7217 188.316C25.2701 188.809 39.9651 192.422 42.8232 193.013C46.1902 193.71 49.9418 194.525 57.0049 196.096C63.0027 197.43 70.418 198.669 70.627 198.372C70.7149 198.246 70.549 197.741 70.2588 197.251C69.9682 196.76 69.0523 194.701 68.2236 192.676C67.2391 190.271 66.4436 188.908 65.9277 188.742C64.4938 188.28 60.5116 187.469 59.6582 187.465L58.8193 187.462L59.582 189.301C60.423 191.331 61.4296 194.58 61.2178 194.58C61.1423 194.577 60.3407 192.884 59.4355 190.816C58.4099 188.473 57.4919 186.95 57.001 186.779C55.2246 186.161 49.9393 185.295 49.7334 185.588C49.6118 185.762 50.1756 187.496 50.9873 189.441C51.7989 191.386 52.4636 193.137 52.4639 193.333C52.4639 194.185 51.336 192.22 49.9482 188.95C49.122 187.003 48.3331 185.31 48.1953 185.189C48.0002 185.018 40.9813 183.395 40.4355 183.395C40.3695 183.395 40.8904 185.021 41.5928 187.006C42.2947 188.991 42.786 190.733 42.6855 190.878C42.5316 191.098 41.5041 188.973 39.418 184.119C39.1599 183.518 37.9704 182.992 35.4912 182.382C33.5361 181.902 31.8175 181.601 31.6709 181.714C31.5261 181.829 31.97 183.512 32.6572 185.455C34.814 191.553 33.3774 189.285 30.1514 181.499C30.0577 181.273 24.4291 179.837 23.6357 179.836C22.8536 179.836 22.8661 179.924 24.168 183.67C25.0538 186.219 25.7405 187.573 26.2178 187.71C26.6125 187.823 27.8991 188.139 29.0771 188.413L31.2197 188.911L28.7207 188.654C25.5876 188.332 24.9862 188.092 24.6807 187.037C24.5461 186.572 23.8 184.649 23.0225 182.763C21.7823 179.756 21.4535 179.3 20.3447 179.048C17.5673 178.419 17.211 178.085 19.1348 177.916L20.9746 177.753L19.8965 174.779C18.2557 170.249 18.8744 170.108 20.7119 174.593C22.5028 178.965 22.2026 178.74 27.3574 179.573L29.5654 179.929L28.3037 176.545C27.6099 174.685 27.1399 173.023 27.2598 172.851C27.5448 172.445 28.2574 173.823 29.6084 177.392C30.8144 180.578 30.8553 180.612 34.4336 181.341C38.9181 182.256 38.7788 182.392 37.2656 178.54C36.5463 176.708 36.0571 175.069 36.1777 174.897C36.4471 174.513 36.308 174.265 38.2695 178.632L39.8975 182.257L42.1641 182.797C43.4105 183.095 45.2128 183.496 46.1689 183.688L47.9072 184.038L46.9102 181.556C46.3623 180.192 45.7664 178.798 45.585 178.457C45.4037 178.116 45.3172 177.571 45.3936 177.246C45.4701 176.922 46.3288 178.398 47.3018 180.527C48.2751 182.657 49.2465 184.402 49.46 184.406C49.6738 184.409 51.4311 184.751 53.3652 185.165C55.2975 185.578 56.9391 185.829 57.0166 185.724C57.0908 185.619 56.6403 184.24 56.0146 182.662C54.4405 178.69 54.9324 178.564 56.7715 182.467C57.6049 184.236 58.3169 185.743 58.3535 185.815C58.5307 186.155 65.7229 187.76 65.8418 187.486C65.916 187.314 65.4307 185.923 64.7627 184.395C63.5776 181.685 63.2583 180.342 63.7998 180.349C64.0557 180.352 64.3732 180.992 66.4834 185.753C67.3485 187.704 67.5779 187.896 69.6689 188.409C70.9082 188.713 72.8635 189.116 74.0137 189.305L76.1045 189.649L75.2275 187.667C72.5786 181.679 72.8862 180.247 75.5781 186.034L77.2773 189.688L79.8965 190.313C83.3581 191.14 83.6601 191.756 80.4014 191.342C78.9778 191.162 77.8135 191.091 77.8135 191.185C77.8139 191.28 78.5365 193.163 79.4199 195.371C82.1308 202.144 81.2108 201.788 78.1982 194.898L76.3379 190.644L72.5234 189.813C70.4275 189.357 68.5919 188.984 68.4414 188.985C67.9049 188.99 68.2026 190.151 69.6016 193.503C70.3871 195.386 71.0293 197.298 71.0293 197.753C71.0293 198.816 71.2143 198.879 77.9912 200.137C81.1331 200.72 84.6685 201.382 85.8467 201.609C87.0239 201.835 88.0924 201.948 88.2227 201.859C88.3514 201.77 87.7817 199.922 86.957 197.755C84.1568 190.399 82.0616 185.178 81.4375 184.003C80.9219 183.032 80.2073 182.705 77.2617 182.095C75.307 181.691 71.7793 180.898 69.4229 180.334C63.7448 178.974 46.2134 175.099 37.2891 173.23C33.3617 172.408 26.3047 170.929 21.6064 169.944ZM92.4512 195.043C91.8277 194.538 92.1303 194.482 94.3672 194.902V195.698C93.3951 195.447 92.6412 195.196 92.4512 195.043ZM28.542 191.781C25.2255 190.988 21.8131 190.439 22.3037 190.777C22.8703 191.165 28.942 192.448 30.1484 192.434C30.7375 192.426 30.0149 192.133 28.542 191.781ZM18.9023 189.615C18.1061 189.615 18.1255 189.657 19.0811 190.003C19.67 190.217 20.5531 190.391 21.0439 190.391C21.84 190.391 21.8212 190.349 20.8662 190.003C20.2772 189.79 19.3933 189.615 18.9023 189.615ZM11.0469 188.054C10.1174 188.084 10.3914 188.257 12.1182 188.732C15.286 189.603 17.1692 189.579 14.4395 188.702C13.2612 188.323 11.7342 188.032 11.0469 188.054ZM89.3193 187.176C89.4514 186.99 91.4638 187.206 93.792 187.657C93.9818 187.694 94.1742 187.728 94.3672 187.763V188.91L92.9893 188.747C90.1444 188.409 88.8441 187.853 89.3193 187.176ZM9.35156 187.633C9.10609 187.492 8.70445 187.492 8.45898 187.633C8.21358 187.774 8.41442 187.889 8.90527 187.889C9.39585 187.889 9.59648 187.774 9.35156 187.633ZM8.0127 184.557C6.45552 184.024 6.82699 183.552 8.61621 183.791C11.2451 184.141 12.4393 184.863 10.333 184.828C9.4496 184.812 8.40559 184.692 8.0127 184.557ZM0 169.865C0.515041 170.912 1.07964 172.238 1.28809 173.011C1.39548 173.409 1.98834 173.943 2.60547 174.198C3.49425 174.564 3.56096 174.67 2.9248 174.707C2.48296 174.733 2.12109 174.829 2.12109 174.922C2.12151 175.017 2.69102 176.759 3.38672 178.795C5.2098 184.128 4.69569 184.425 2.69336 179.195C1.7616 176.761 0.890055 174.673 0.755859 174.553C0.703627 174.507 0.426625 174.439 0 174.361V173.537C0.153843 173.535 0.247533 173.523 0.266602 173.496C0.321995 173.416 0.210013 172.877 0 172.144V169.865ZM44.332 160.746C44.278 160.821 44.764 162.23 45.4121 163.878C46.3115 166.163 48.3035 171.662 48.7627 173.126C48.8319 173.346 61.185 176.123 61.3447 175.954C61.4181 175.875 61.0508 175.088 60.5283 174.204C60.0059 173.32 59.3479 171.962 59.0664 171.187C58.6322 169.992 58.21 169.692 56.2832 169.214C52.6689 168.318 52.6259 168.337 53.5322 170.425C53.9557 171.401 54.2418 172.602 54.168 173.094C54.0717 173.735 53.6571 173.163 52.71 171.085C51.5894 168.625 51.155 168.096 49.8721 167.628C47.8205 166.881 47.3378 166.629 47.5029 166.396C47.58 166.287 48.3266 166.375 49.1611 166.594C50.8344 167.031 50.9937 166.704 50.1426 164.585C49.4966 162.975 49.4815 162.515 50.0859 162.845C50.3494 162.989 50.9166 163.996 51.3457 165.084C52.0336 166.826 52.3465 167.12 53.9902 167.565C57.7791 168.59 57.8822 168.593 57.6084 167.697C57.4697 167.243 57.1832 166.143 56.9717 165.253C56.6262 163.797 56.4046 163.596 54.793 163.285C53.806 163.094 51.071 162.415 48.7148 161.774C46.3604 161.134 44.3893 160.671 44.332 160.746ZM5.40332 174.637C6.1321 174.227 8.48771 174.712 8.75586 175.328C8.97143 175.824 7.48066 175.816 5.87012 175.312C5.045 175.054 4.93781 174.899 5.40332 174.637ZM28.2549 157.043C27.5853 157.199 27.7012 157.662 29.6338 162.551C30.7939 165.487 31.7454 168.253 31.749 168.701C31.7543 169.335 32.5581 169.701 35.415 170.37C43.0911 172.166 45.8706 172.83 46.2158 172.95C46.9845 173.217 46.6761 172.161 44.208 166.072C42.8019 162.603 41.6339 159.732 41.6104 159.686C41.463 159.409 28.8303 156.908 28.2549 157.043ZM35.499 161.342C34.757 158.814 35.295 159.031 36.5 161.747C37.4567 163.903 37.5933 164.014 39.9814 164.587C41.3471 164.915 42.4648 165.305 42.4668 165.454C42.4668 165.602 41.5024 165.624 40.3242 165.503C39.1461 165.381 38.1843 165.411 38.1865 165.569C38.1889 165.727 38.5905 166.851 39.0791 168.068C40.0672 170.529 40.1008 170.685 39.6533 170.685C39.4803 170.683 38.8075 169.433 38.1572 167.905C37.0311 165.259 36.8773 165.098 34.9893 164.586C31.253 163.574 30.6163 163.053 33.4512 163.326C34.8737 163.463 36.0382 163.487 36.04 163.379C36.04 163.272 35.7963 162.355 35.499 161.342ZM57.3281 164.076C57.002 164.076 59.1131 168.473 59.6777 168.97C60.244 169.468 63.8175 170.568 65.0781 170.633L66.0889 170.685L65.291 168.779C64.852 167.73 64.3168 166.605 64.1016 166.279C63.7924 165.81 58.4616 164.076 57.3281 164.076ZM18.0098 154.716C8.11472 152.634 6.32992 152.322 6.11133 152.633C5.98291 152.824 6.82166 155.508 7.97656 158.603C9.6707 163.143 10.0031 164.407 9.69043 165.12C9.38744 165.81 9.44813 166.192 9.96875 166.863C10.5974 167.673 10.6972 167.658 11.7012 166.601L12.7656 165.48L17.8867 166.598C20.7034 167.213 24.0527 168.018 25.3291 168.388C26.6055 168.758 28.33 169.083 29.1611 169.11L30.6719 169.16L29.0615 165.281C28.1757 163.147 27.1209 160.31 26.7178 158.976C25.8929 156.246 26.3578 156.473 18.0098 154.716ZM12.4678 156.428C11.4451 153.574 12.1496 153.562 13.46 156.413C14.5024 158.68 14.7153 158.88 16.4355 159.205C17.4544 159.397 18.7632 159.69 19.3447 159.856L20.4023 160.157L19.8311 158.584C18.6335 155.286 19.3811 154.954 20.748 158.176C21.6655 160.339 21.7769 160.43 24.2266 161.018C25.6179 161.352 26.7562 161.838 26.7568 162.098C26.7568 162.358 26.395 162.465 25.9531 162.336C22.2034 161.242 21.9851 161.388 23.1855 164.191C23.99 166.07 24.0669 166.617 23.5273 166.618C23.3217 166.618 22.8794 165.909 22.5449 165.043C21.1758 161.497 20.8565 161.185 17.9648 160.573C16.4576 160.254 15.1443 160.106 15.0469 160.245C14.95 160.384 15.3076 161.438 15.8418 162.587C16.3757 163.736 16.7557 164.758 16.6865 164.859C16.6165 164.959 15.3591 164.806 13.8926 164.52C10.5366 163.866 9.52117 162.799 12.7432 163.312C13.9701 163.508 14.9741 163.501 14.9746 163.296C14.9746 163.092 14.6453 162.167 14.2432 161.241C13.6384 159.847 13.2213 159.495 11.833 159.204C9.03818 158.617 8.44637 157.927 10.9473 158.17L13.1689 158.385L12.4678 156.428ZM80.9424 163.029C79.8383 161.556 79.8239 161.492 80.6689 161.818C81.6409 162.193 82.8113 163.47 82.8115 164.155C82.8115 164.996 82.0916 164.562 80.9424 163.029ZM1.83105 160.489C1.90999 160.152 2.55401 160.328 3.55664 160.961L5.15625 161.971L3.72852 161.955C2.94307 161.947 1.8982 161.759 1.40723 161.535C0.868776 161.289 0.750771 161.107 1.10938 161.077C1.43659 161.049 1.76176 160.784 1.83105 160.489ZM69.6318 153.4C70.2781 153.403 76.8992 159.387 77.8496 160.828C79.126 162.762 78.2795 162.25 73.7314 158.336C69.8006 154.954 68.5106 153.4 69.6318 153.4ZM60.6426 150.548C59.9104 149.292 61.3598 149.721 63.4082 151.367C64.452 152.206 65.5311 152.892 65.8057 152.892C66.5043 152.894 71.524 157.324 72.4951 158.795C72.9355 159.463 73.2172 160.009 73.1211 160.009C73.0239 160.009 71.5105 158.946 69.7568 157.648C68.0026 156.349 66.165 154.891 65.6738 154.407C65.1829 153.923 63.9427 153.016 62.918 152.391C61.8932 151.767 60.8692 150.937 60.6426 150.548ZM72.5469 146.553C70.4055 144.899 70.0191 143.848 71.9814 145.015C73.927 146.173 87.4495 157.982 87.4531 158.526C87.4531 158.782 87.4024 158.993 87.3408 158.993C87.2789 158.993 84.3471 156.519 80.8252 153.497C77.3034 150.474 73.578 147.35 72.5469 146.553ZM0 155.561C1.94646 156.097 3.86436 156.858 3.12891 156.914C2.81414 156.939 1.43382 156.732 0 156.455V155.561ZM47.3525 136.068C46.7135 133.274 47.0637 131.878 48.0088 133.45C48.7165 134.628 50.4035 140.558 51.2656 144.899C51.9135 148.161 52.7393 149.603 52.3223 146.744C52.1833 145.792 51.9758 143.925 51.8604 142.597C51.6865 140.598 51.7484 140.183 52.2217 140.183C52.8717 140.184 53.3823 142.434 53.75 146.919C54.0959 151.137 54.7582 150.665 54.5059 146.379C54.2858 142.642 54.5569 141.162 55.2461 142.344C55.4656 142.721 55.7541 143.996 55.8867 145.176C56.1196 147.251 56.748 148.658 56.748 147.106C56.748 145.685 57.4565 145.71 57.8662 147.144C58.0901 147.929 58.4811 149.246 58.7344 150.072C59.0364 151.057 59.0804 151.876 58.8633 152.454C58.4403 153.579 58.4466 153.909 58.8896 153.909C59.0861 153.909 59.2471 153.451 59.2471 152.892C59.2471 151.356 60.3019 151.651 61.9248 153.643L63.3525 155.396L61.3896 155.355C60.3099 155.331 58.9464 155.168 58.3594 154.989C57.7727 154.81 57.2611 154.322 57.2227 153.905C57.1844 153.488 57.0412 152.231 56.9053 151.113L56.6582 149.08L56.2256 150.859C55.9875 151.837 55.5175 152.714 55.1816 152.807C54.1534 153.092 52.8218 151.492 52.8096 149.958C52.8017 148.77 52.7462 148.699 52.4346 149.461C51.4729 151.811 48.3847 148.871 46.7764 144.073C46.1726 142.272 45.1609 140.03 44.5273 139.092C42.8609 136.625 41.3962 134.012 41.3955 133.504C41.3955 131.445 46.2633 138.147 47.8213 142.351C48.3117 143.675 48.8236 144.758 48.959 144.758C49.1906 144.758 48.5586 141.34 47.3525 136.068ZM2.5957 74.2877C4.14639 69.872 5.04194 68.4355 5.53516 69.5718C5.65801 69.8556 5.3745 70.9322 4.90527 71.9644C4.43612 72.9968 3.57741 75.1684 2.99707 76.7906C1.77034 80.2195 1.47242 79.6605 6.22656 82.8463C8.78748 84.5623 9.38103 84.7613 11.9639 84.7662C15.7703 84.7741 17.988 85.7844 21.3506 89.0445C22.8812 90.5284 24.7229 91.8998 25.4434 92.0924C26.2535 92.3087 27.7408 93.5639 29.3428 95.3824C32.4478 98.9072 40.9531 105.346 43.123 105.815C45.1373 106.25 47.0188 107.645 49.9482 110.876C51.2544 112.316 53.9893 115.324 56.0254 117.561C58.0613 119.798 60.4373 122.492 61.3057 123.549C63.1223 125.761 76.7431 135.409 79.4189 136.379C80.4008 136.736 83.2522 138.077 85.7559 139.36C88.2596 140.643 90.3069 141.524 90.3057 141.319C90.3043 141.114 89.9759 140.26 89.5752 139.421C88.3479 136.853 87.798 135.171 88.0986 134.905C88.2568 134.766 89.4824 136.697 90.8213 139.197C92.3227 142 93.5062 143.742 93.9092 143.742C94.7355 143.738 88.5139 131.483 83.6484 123.532C81.8135 120.533 80.312 117.854 80.3115 117.578C80.3115 116.737 85.9427 124.949 88.1006 128.937C91.1213 134.519 92.5815 137.335 94.3672 141.036V148.338C91.1785 146.353 87.3813 144.018 85.1318 142.663C82.3826 141.006 78.1965 138.306 75.8291 136.664C72.9606 134.674 71.2339 133.756 70.6523 133.912C69.4347 134.238 67.3403 132.529 61.7266 126.628C59.0863 123.853 55.3238 120.001 53.3652 118.069C51.4068 116.137 49.1976 113.776 48.4561 112.822C46.4647 110.26 46.819 111.595 49.0713 115.139C50.9521 118.099 51.4316 119.339 50.6934 119.339C50.5053 119.339 49.6775 118.428 48.8545 117.313C47.5331 115.523 47.3095 115.382 46.9375 116.106C46.608 116.748 46.3592 116.807 45.7988 116.38C44.9525 115.735 43.05 112.667 41.6406 109.675C41.0881 108.502 40.5456 107.671 40.4355 107.828C40.3255 107.985 40.6569 108.826 41.1719 109.698C41.6872 110.57 42.1094 111.609 42.1094 112.007C42.1094 112.972 41.2408 112.929 40.6621 111.936C40.2434 111.218 40.1698 111.218 39.8887 111.934C39.4238 113.116 38.4902 112.063 35.1396 106.58C33.5732 104.016 31.0861 100.606 29.6133 99.0025C28.1406 97.399 26.6324 95.604 26.2617 95.0142C25.8911 94.4246 25.0073 93.7956 24.2979 93.6168C23.5885 93.4379 22.0259 92.4203 20.8252 91.355C18.8354 89.5897 17.4784 88.6338 14.9746 87.234L14.082 86.7349L15.0234 88.1685C16.123 89.8416 16.5932 91.661 16.0498 92.1392C15.839 92.3228 14.6161 91.6508 13.3311 90.6451C12.0453 89.6388 10.0811 88.2688 8.9668 87.6011C7.85207 86.9332 4.62018 84.8611 1.78418 82.9957C1.24915 82.6438 0.645718 82.2557 0 81.8453V78.8765C0.437756 79.0973 0.786052 79.2049 0.84082 79.1207C0.910055 79.0132 1.70001 76.8383 2.5957 74.2877ZM4.06152 107.545C4.43966 103.486 5.21333 102.576 6.29297 104.922C6.73837 105.891 6.96447 107.766 7.10449 111.658L7.29883 117.052L8.11328 114.698C8.75845 112.833 9.16243 112.276 10.0547 112.022C10.6743 111.846 11.3249 111.907 11.501 112.158C11.6769 112.409 11.9112 114.019 12.0205 115.736C12.2046 118.626 12.2646 118.801 12.8223 118.083C13.1536 117.656 13.7729 117.306 14.1992 117.306C14.8693 117.306 14.9746 117.59 14.9746 119.399C14.9746 121.242 15.0598 121.46 15.6895 121.225C16.0826 121.079 16.525 121.253 16.6719 121.611C16.8187 121.969 17.9825 123.009 19.2588 123.92C20.5352 124.83 22.7851 126.647 24.2578 127.956C27.3321 130.688 30.4196 133.366 31.8516 134.542C32.7262 135.26 32.8797 135.265 33.1836 134.59C33.4839 133.924 33.6737 133.95 34.6943 134.795C35.3364 135.327 36.8258 136.458 38.0039 137.308C39.182 138.158 40.9488 139.65 41.9307 140.624L43.7158 142.394L42.124 140.017C40.3155 137.317 40.7656 136.937 43.1963 139.111C44.3704 140.161 45.134 141.406 45.9629 143.621C47.765 148.435 47.4845 148.938 44.7354 145.822C42.7228 143.54 37.7359 139.674 36.8057 139.674C36.4591 139.673 34.3262 138.306 32.0645 136.634C29.8024 134.963 27.3215 133.241 26.5508 132.806C25.258 132.077 25.2049 132.08 25.8643 132.837C26.2572 133.289 27.8112 134.548 29.3174 135.635C33.3769 138.566 37.9079 142.466 38.6973 143.709C39.3847 144.791 39.3847 144.799 38.6973 144.436C38.3154 144.235 37.4411 143.575 36.7539 142.97C36.0666 142.365 34.183 140.925 32.5684 139.769C30.9537 138.613 28.4631 136.663 27.0342 135.433C25.6051 134.204 23.7128 132.677 22.8291 132.042C21.9454 131.406 20.0982 129.918 18.7236 128.737C17.3492 127.556 15.8231 126.413 15.332 126.199C14.8411 125.984 12.4004 124.468 9.9082 122.829C7.41597 121.189 4.91373 119.848 4.34863 119.848C3.70811 119.848 2.60547 119.087 1.4209 117.829C0.945649 117.324 0.466387 116.864 0 116.456V110.182C0.480735 110.982 0.84645 111.654 0.983398 112.026C1.63321 113.792 1.79293 113.372 1.39648 110.937C1.21585 109.827 1.06333 108.518 1.05859 108.029C1.04286 106.502 2.10495 107.055 2.72168 108.896C3.04535 109.863 3.42334 110.554 3.56152 110.433C3.69972 110.311 3.92481 109.012 4.06152 107.545ZM23.4297 141.2C23.8388 141.2 27.114 144.127 27.1143 144.493C27.1143 145.04 26.1853 144.723 25.1504 143.822C23.9579 142.784 22.9187 141.2 23.4297 141.2ZM10.1543 141.223C10.9555 141.213 11.36 141.557 12.0732 142.852C12.856 144.274 11.6541 144.005 10.4424 142.487C9.54793 141.366 9.51701 141.231 10.1543 141.223ZM0 133.837C3.52999 136.755 7.1186 139.943 7.12012 140.267C7.12012 140.5 7.07204 140.69 7.01367 140.691C6.95493 140.691 4.34413 138.609 1.21191 136.065C0.810498 135.739 0.403585 135.412 0 135.086V133.837ZM13.2344 133.574C13.9305 133.577 20.3299 139.557 20.3301 140.206C20.3301 141.039 19.887 140.729 16.5811 137.576C12.8532 134.02 12.481 133.574 13.2344 133.574ZM86.3623 123.678C86.5409 123.522 87.0742 123.911 87.5479 124.544C88.9647 126.436 91.778 131.238 94.3672 136.048V138.715C92.8468 135.893 90.962 132.496 89.1777 129.405C87.4506 126.412 86.1838 123.835 86.3623 123.678ZM9.55566 132.517C7.20424 130.818 6.44191 129.664 8.04883 130.235C8.88534 130.532 10.1084 131.586 11.7314 133.407C11.8133 133.499 11.8133 133.666 11.7314 133.778C11.6495 133.89 10.6707 133.323 9.55566 132.517ZM93.2842 130.016C93.4525 130.017 93.839 130.46 94.3672 131.214V133.316C92.6469 129.979 92.7986 130.016 93.2842 130.016ZM0 123.976C2.30285 125.512 6.25596 128.752 6.59668 129.537C6.84001 130.097 6.88719 130.105 5.50195 129.341C4.79257 128.95 2.04536 126.871 0 125.234V123.976ZM42.2002 69.73C42.3309 69.5443 44.9745 72.7993 48.0752 76.9644C51.1758 81.1294 54.5605 85.4139 55.5967 86.4859C56.6325 87.5575 58.3783 89.9549 59.4766 91.8131C60.5748 93.6713 62.6033 96.5185 63.9834 98.1392C65.3634 99.7599 66.9708 101.933 67.5557 102.968C68.7094 105.011 72.4563 115.475 72.457 116.656C72.457 117.054 73.7143 119.251 75.25 121.538C78.2638 126.024 79.4747 128.327 79.1016 128.858C78.9707 129.041 77.2214 126.791 75.2129 123.858C73.2039 120.924 71.2119 117.506 70.7861 116.262C70.3604 115.019 69.5273 112.515 68.9346 110.698C67.3775 105.924 65.9373 103.039 63.876 100.564C62.8785 99.3665 61.996 98.4809 61.915 98.5963C61.834 98.7117 62.4005 100.052 63.1738 101.575C64.5098 104.205 64.9243 105.64 64.335 105.592C64.1876 105.579 63.0225 103.592 61.7461 101.173C60.4697 98.7549 58.658 95.5186 57.7197 93.982C56.7816 92.4456 55.919 90.6492 55.8027 89.9898C55.6119 88.9066 52.1304 84.57 51.8125 85.0191C51.5833 85.3456 53.7687 89.5261 55.1377 91.3795C57.1477 94.1009 62.9397 104.594 62.6553 104.999C62.5169 105.195 61.835 104.442 61.1406 103.325C58.0365 98.3302 54.0876 92.4585 53.9561 92.6422C53.6363 93.0974 57.3941 99.5945 61.8359 106.267C62.572 107.373 63.1744 108.598 63.1748 108.991C63.1748 110.19 61.7088 108.504 59.001 104.189C55.5176 98.6382 54.3641 96.4228 53.5537 93.731C53.163 92.4335 52.1933 90.0081 51.3984 88.3414C50.6035 86.6746 49.8937 84.5873 49.8213 83.7027C49.7182 82.4412 49.0057 81.1908 46.5166 77.9058C43.5058 73.9324 41.6789 70.4722 42.2002 69.73ZM94.3672 124.947V126.815C93.8047 125.481 93.8163 124.932 94.3252 124.935C94.338 124.935 94.3516 124.94 94.3672 124.947ZM13.5469 92.7916C13.548 90.6656 22.0734 103.301 24.085 108.41C24.6354 109.808 25.6748 111.982 26.3955 113.24C28.2384 116.457 28.9884 118.196 28.8281 118.88C28.7514 119.203 27.9284 118.263 26.998 116.79C26.0673 115.316 24.3877 112.14 23.2656 109.734C22.1435 107.328 19.4973 102.629 17.3857 99.2916C15.2741 95.9542 13.5469 93.029 13.5469 92.7916ZM10.6104 114.764C10.458 114.764 10.333 114.965 10.333 115.21C10.3329 115.455 10.233 116.369 10.1104 117.243C9.97715 118.191 10.0337 118.831 10.251 118.832C10.4513 118.832 10.6761 117.916 10.751 116.797C10.8259 115.679 10.7619 114.764 10.6104 114.764ZM56.542 103.704C56.7877 103.354 63.7057 112.898 64.2822 114.382C64.728 115.53 64.0684 115.514 62.7451 114.345C61.0027 112.806 56.0811 104.363 56.542 103.704ZM5.59277 111.079C5.51357 110.17 5.44922 110.914 5.44922 112.731C5.44922 114.548 5.51359 115.292 5.59277 114.383C5.67197 113.475 5.67197 111.987 5.59277 111.079ZM10.9248 96.4625C12.8264 96.4625 24.0647 112.662 23.1094 114.026C23.038 114.127 21.3051 111.671 19.2588 108.566C17.2125 105.461 14.367 101.688 12.9355 100.18C10.3378 97.4448 9.80702 96.4626 10.9248 96.4625ZM36.5947 80.7047C36.993 80.7078 43.1351 87.638 45.0098 90.1998C45.7213 91.1722 46.4703 92.465 46.6738 93.0718C46.8774 93.679 47.3742 95.2046 47.7783 96.4625C48.5712 98.9306 52.902 104.897 52.5645 103.056C52.1887 101.01 53.4183 102.152 56.6582 106.856C59.6637 111.22 60.4433 112.73 59.6904 112.73C59.54 112.728 58.0182 110.929 56.3076 108.73C54.4895 106.393 52.7636 104.606 52.1543 104.432C50.3963 103.932 47.0997 99.0923 45.5527 94.7408C44.416 91.5431 43.7012 90.3012 41.4473 87.6119C38.3536 83.9205 36.0928 80.7028 36.5947 80.7047ZM31.3604 102.85C31.704 102.551 37.4657 110.944 37.4678 111.747C37.4678 112.922 36.4253 111.963 34.2334 108.773C31.7051 105.094 30.839 103.309 31.3604 102.85ZM37.9697 108.537C38.6088 109.611 38.8964 109.912 38.8965 109.505C38.8965 109.409 38.5345 108.894 38.0928 108.362L37.2891 107.393L37.9697 108.537ZM36.1289 105.041C35.5627 104.408 35.5502 104.426 35.9941 105.232C36.4605 106.079 36.7538 106.348 36.7539 105.93C36.7539 105.825 36.4726 105.424 36.1289 105.041ZM81.0283 85.1519C81.0231 84.2644 82.1144 84.873 82.7061 86.0884C83.8475 88.4332 85.2891 90.6321 85.2998 90.0435C85.305 89.7283 85.0608 89.1757 84.7559 88.815C84.4506 88.4543 84.0447 87.7448 83.8545 87.2388C83.0102 84.9925 84.8549 87.3401 89.7549 94.7496C92.1316 98.3435 93.6095 100.666 94.3672 102.021V102.955C93.7532 102.165 92.6337 100.691 91.3809 99.0142C89.5154 96.517 87.7087 94.4639 87.3672 94.4517C86.1221 94.406 81.037 86.9458 81.0283 85.1519ZM0 87.1383C0.577421 87.4175 1.90403 88.8911 4.55957 92.1031C6.19521 94.0815 8.20348 96.4539 9.02246 97.3746C11.1945 99.8164 12.4755 101.568 12.4756 102.098C12.4756 103.184 11.4292 102.369 9.08398 99.4566C7.70947 97.7495 5.0181 94.5361 3.10352 92.316C1.75311 90.7501 0.576554 89.2061 0 88.2789V87.1383ZM49.6064 39.4732C49.6065 37.7848 50.2037 38.4325 50.8428 40.815C51.3514 42.7113 51.5852 43.0657 52.1572 42.8072C52.775 42.5281 52.8428 42.7186 52.7686 44.5113C52.6991 46.1905 52.878 46.8038 53.835 48.1666C54.6515 49.3292 54.9214 50.0938 54.7637 50.8013C54.6022 51.526 54.7367 51.8707 55.2559 52.064C56.3058 52.4577 62.7279 64.3458 64.4141 69.0172C65.0199 70.6955 65.6254 71.5518 66.6709 72.2086C67.4567 72.7023 68.778 74.186 69.6064 75.5064C70.435 76.8269 71.7053 78.8226 72.4297 79.941C73.1541 81.0593 74.6151 83.5756 75.6768 85.5328C76.7384 87.49 78.155 90.0642 78.8242 91.2525C80.9735 95.0688 79.3826 93.5566 76.499 89.0425C70.4941 79.6424 66.3877 74.0991 66.3877 75.3922C66.388 75.6115 67.6734 79.3013 69.2441 83.5924C70.8147 87.8829 72.0999 91.5323 72.1006 91.7037C72.1006 93.9512 65.5917 77.8568 62.7178 68.5025C61.8391 65.6429 58.4044 59.0996 57.7812 59.0982C57.5911 59.0982 56.6227 61.6144 55.6299 64.69C54.637 67.7656 53.7569 70.3814 53.6738 70.5025C53.5907 70.6236 53.3502 70.4758 53.1396 70.1773C52.8676 69.789 53.1969 68.1857 54.2812 64.6197C55.1197 61.8625 56.0438 59.2049 56.334 58.7144C56.7531 58.0059 56.7776 57.5626 56.4551 56.5543C55.8757 54.7438 55.1822 54.9853 54.623 57.192C53.6348 61.0921 51.0645 68.5009 50.6992 68.5025C50.0154 68.5025 50.2967 67.2069 52.4707 60.3463C54.4524 54.0926 54.5748 53.5013 54.0352 52.772C53.5189 52.0747 53.4273 52.0716 53.2617 52.7437C52.7262 54.9175 48.978 64.6493 48.6084 64.8258C47.7553 65.2306 48.2158 63.1742 50.1074 58.1343C52.4386 51.9235 52.947 49.625 52.2783 48.3248C51.8557 47.5032 51.5609 48.1409 49.501 54.3267C47.2691 61.0291 46.3936 62.929 46.3936 61.0728C46.3936 60.0867 49.8059 48.473 50.5547 46.9107C51.1629 45.6416 51.1687 44.3824 50.5684 43.6734C50.2016 43.24 49.7386 44.1818 48.4131 48.0592C47.4848 50.7746 46.5232 54.0248 46.2764 55.2818C45.9823 56.7796 45.6019 57.6285 45.1719 57.7467C44.5933 57.9053 44.546 57.6956 44.7715 55.9703C44.9122 54.8939 46.0581 50.9593 47.3174 47.2261C48.5768 43.4926 49.6064 40.0037 49.6064 39.4732ZM77.5488 84.4693C77.7498 84.19 81.997 89.2492 83.4629 91.5142C85.0061 93.8989 83.6083 93.4678 81.4307 90.8873C79.2152 88.262 77.2119 84.9491 77.5488 84.4693ZM86.7197 88.9283C81.6764 82.5801 76.4187 73.7122 78.7949 75.5621C79.7161 76.2793 89.0721 89.9167 89.5596 91.2525C90.2212 93.066 89.6076 92.5632 86.7197 88.9283ZM57.3643 62.4068C57.5171 62.4121 58.2369 64.2986 58.9648 66.6011C60.3677 71.0385 65.0937 87.7929 65.4883 89.7271C65.9044 91.7673 65.3512 90.9405 64.2979 87.9478C62.9097 84.0041 58.6389 69.6125 58.3389 67.8677C58.0738 66.3249 57.6498 66.0567 57.333 67.232C57.22 67.6513 56.8613 67.9946 56.5361 67.9947C56.0812 67.9947 55.9899 67.6717 56.1416 66.5963C56.4362 64.5077 57.0511 62.4015 57.3643 62.4068ZM85.9688 79.7984C86.2082 79.687 87.8031 80.9879 89.5146 82.69C90.7502 83.9187 92.6618 85.5775 94.3672 86.9312V88.5631C94.2286 88.4786 94.0928 88.4001 93.959 88.3277C92.1393 87.3433 85.3476 80.0932 85.9688 79.7984ZM58.5332 75.7838C58.5333 74.2209 59.1829 75.3817 60.6465 79.5601C61.9656 83.3263 62.9926 87.3092 62.6455 87.3121C62.592 87.3121 62.3811 87.0268 62.1777 86.6773C61.5916 85.6699 58.5332 76.5278 58.5332 75.7838ZM9.97656 61.7525C9.97656 60.6702 11.0022 61.9604 12.7441 65.233C15.534 70.4744 16.5769 73.1178 16.041 73.5904C15.7271 73.8667 16.252 75.1802 17.8447 78.106C19.0796 80.3745 20.0067 82.3497 19.9053 82.4957C19.8033 82.641 17.5216 79.4558 14.8359 75.4175C12.1502 71.3792 10.1189 67.9286 10.3213 67.7506C10.5241 67.5732 11.575 68.6204 12.6572 70.0777C13.7389 71.5343 14.6959 72.6237 14.7852 72.5006C14.873 72.3755 13.8274 70.0068 12.4609 67.2379C11.0947 64.4695 9.97688 62.0014 9.97656 61.7525ZM6.37109 74.3795C7.11775 73.7224 7.14864 75.4409 6.43262 77.8189C5.77685 79.9968 4.60976 81.1236 4.62891 79.5601C4.64202 78.5874 5.92332 74.7735 6.37109 74.3795ZM43.3799 1.56696C44.7368 0.28413 45.5379 -0.159422 46.123 0.0493853C46.5776 0.211824 48.6322 2.21111 50.6885 4.49177C52.7446 6.77225 55.3104 9.50374 56.3906 10.5621C57.4707 11.6203 59.2383 13.5722 60.3184 14.899C61.3985 16.2258 63.6474 18.5558 65.3164 20.0767C66.9855 21.5978 69.5565 24.5221 71.0293 26.5758C73.6077 30.1711 73.7688 30.3083 75.3721 30.2633C78.051 30.1879 78.9442 31.0377 81.6152 36.2037C84.3291 41.4526 87.5146 48.057 88.5449 50.5709C88.9354 51.5231 90.7565 53.5447 94.3672 57.0259V70.607C94.2748 70.5158 94.2809 70.5914 94.3672 70.857V72.5054C94.2662 72.1491 94.1662 71.7906 94.0713 71.4322C91.3892 61.3066 89.7449 55.8518 88.9199 54.3453C88.4071 53.4088 87.7068 52.0365 87.3643 51.2955C86.8926 50.2753 86.7407 50.1641 86.7393 50.8375C86.7382 51.3268 86.5953 51.7271 86.4219 51.7271C86.0824 51.7251 83.9785 48.4678 83.2773 46.858C82.9086 46.0115 82.8493 45.9957 82.8311 46.7388C82.797 48.1763 87.3828 64.3174 89.9717 71.8726C91.784 77.1615 92.0519 78.3965 91.3096 78.0445C90.5537 77.6858 88.6439 72.0619 85.6533 61.3863C82.6108 50.5252 82.1291 48.9713 81.9023 49.2925C81.5721 49.7628 84.2424 59.7045 87.252 69.2076C88.458 73.0158 88.3349 74.5139 87.0439 71.7359C85.5532 68.5279 81.4394 53.8281 80.3066 47.6607C79.9215 45.5637 79.4119 42.8856 79.1748 41.7095C78.7954 39.8274 78.8211 39.4493 79.3887 38.5562C80.0115 37.5763 80.008 37.4836 79.291 35.8316C77.9499 32.7419 77.3343 32.2446 75.2334 32.5572L73.3486 32.8384L70.4932 28.6002C68.5042 25.649 66.634 23.5026 64.335 21.5338C62.519 19.9786 58.7431 16.1147 55.9443 12.9468C48.4431 4.45622 45.9962 1.90681 45.3477 1.90681C45.0275 1.90764 43.9284 2.8044 42.9043 3.89997C41.8796 4.99623 40.4375 6.16582 39.7002 6.4986C38.9629 6.83133 37.7172 7.62051 36.9316 8.25251C36.1462 8.88455 34.5085 10.1336 33.293 11.0279L31.083 12.6539L29.1172 11.7711C27.4131 11.0062 27.0693 10.9851 26.541 11.609C25.8468 12.4287 24.8004 15.5806 24.917 16.5006C25.0037 17.1903 23.4173 21.4527 21.3457 26.0963C20.2274 28.6029 20.0086 29.4902 20.1895 30.7779C20.3708 32.0691 20.181 32.8217 19.1826 34.8023C18.5064 36.1423 17.4446 38.5469 16.8232 40.1461C15.7291 42.9622 15.7159 43.0706 16.3955 43.5884C17.0211 44.0652 17.217 43.7892 18.1904 41.0435C19.1795 38.2538 19.9727 37.4602 19.9727 39.2603C19.9728 39.6398 20.1736 40.0474 20.4189 40.1656C20.7025 40.3035 20.3795 41.1482 19.5264 42.4967C18.79 43.6607 18.1875 44.8381 18.1875 45.1129C18.1879 45.3878 19.1113 46.278 20.2402 47.0914C21.3695 47.9051 25.0813 51.2258 28.4893 54.4703C33.671 59.4035 34.907 60.3694 36.0371 60.3697C37.72 60.3697 40.3009 62.7847 41.8281 65.7886C43.4611 69.0009 42.9056 69.6318 40.834 66.9175C38.3528 63.6668 37.4716 62.9118 36.1611 62.9117C35.3746 62.9117 34.3043 62.1941 32.7588 60.6295C31.519 59.3743 29.7227 57.7159 28.7666 56.9439C27.8106 56.172 25.5996 54.2271 23.8535 52.6226C22.1074 51.0181 19.8365 49.1028 18.8076 48.3658C15.4188 45.9382 11.9658 42.9426 10.251 40.9439C8.64029 39.0665 5.97277 37.4916 4.44141 37.5142C3.77203 37.5242 3.76586 37.5678 4.35156 38.2008C4.8742 38.7657 5.23236 40.0347 4.86914 40.0347C4.80208 40.0235 3.15877 37.8482 1.20996 35.191C0.79423 34.6241 0.388987 34.0929 0 33.5943V31.1441C0.217658 31.4129 0.442887 31.6931 0.674805 31.9859C1.74426 33.3364 2.81403 34.4415 3.05273 34.4429C3.52134 34.4429 7.47621 31.3376 10.4463 28.6373C11.4639 27.7121 13.2612 26.2578 14.4395 25.4058C16.1237 24.1879 17.5678 22.3527 21.1963 16.8218C23.7339 12.9537 26.1124 9.57699 26.4824 9.31599C26.9439 8.99163 27.7036 9.12586 28.916 9.74665L30.6787 10.649L33.4375 8.31208C34.9546 7.02653 36.4065 5.97419 36.6641 5.97419C37.5204 5.97417 41.4359 3.40475 43.3799 1.56696ZM9.26172 49.1217C9.26175 47.8307 10.6955 49.1386 13.7129 53.1832C15.5622 55.6621 19.0528 59.6555 21.4697 62.0572C25.5492 66.111 32.46 75.1119 31.4932 75.1119C31.258 75.1094 29.3342 72.9239 27.2168 70.2535C25.0982 67.5816 22.4009 64.5655 21.2227 63.5513C18.8271 61.4893 18.4393 61.051 13.0703 54.3326C10.9757 51.7116 9.26172 49.3666 9.26172 49.1217ZM0 60.5035C0.268507 60.7406 0.579843 60.8775 0.915039 60.8775C1.86166 60.8776 1.91701 61.0452 1.41406 62.3834C1.16027 63.0588 1.20913 63.4838 1.59277 63.9371C1.88305 64.2802 2.11997 64.8545 2.12012 65.2134C2.12012 65.6027 2.39218 65.7652 2.79395 65.6158C3.16451 65.4778 3.56747 65.5921 3.68848 65.8717C3.97053 66.5221 3.56258 68.0677 3.19434 67.7437C2.84123 67.4334 2.45929 68.1262 1.23535 71.2994C0.886933 72.2027 0.415766 73.3927 0 74.4332V70.8375C0.781958 68.893 1.42658 67.1581 1.52344 66.7027C1.79392 65.4305 0.845826 63.5073 0.318359 64.2584C0.261853 64.339 0.150719 64.5591 0 64.8853V60.5035ZM60.4365 26.3111C58.9692 20.9847 58.5826 18.4526 59.2881 18.7867C59.8323 19.047 63.4573 32.4486 63.5029 34.3697C63.5239 35.2384 63.3828 35.487 62.9912 35.273C62.5602 35.0376 62.4985 35.2567 62.6855 36.3619C63.0104 38.2814 64.7268 43.0812 65.6348 44.6109C66.311 45.7502 66.2777 45.429 65.3164 41.4732C64.7273 39.0491 64.2513 36.5319 64.2578 35.8804L64.2705 34.6959L64.9189 35.8023C65.2757 36.411 66.1936 39.6136 66.959 42.9195L68.3506 48.9302L71.3193 52.9859C73.797 56.3716 74.5263 57.7582 75.7314 61.3746C76.5254 63.7572 77.7153 67.0217 78.376 68.6295C79.7941 72.0805 79.4633 72.4205 77.6357 69.3922C76.9186 68.2037 75.5352 65.0279 74.5615 62.3345C73.1136 58.3294 72.3501 56.8789 70.3711 54.3746C65.8643 48.6714 62.3716 41.3568 61.001 34.7506C60.6279 32.9522 60.9122 32.1422 61.6221 32.981C62.0727 33.5135 62.1113 33.389 61.8877 32.1158C61.7439 31.2978 61.0907 28.686 60.4365 26.3111ZM78.7041 48.2457C78.9819 47.2151 79.3562 47.9337 80.1221 50.9644C81.3636 55.8771 83.1224 62.1838 84.2109 65.6275C84.8156 67.5404 85.3104 69.427 85.3105 69.8209C85.3105 71.2632 84.5864 70.4739 83.752 68.1217C82.2862 63.9898 78.4907 49.0443 78.7041 48.2457ZM72.1045 33.4254C72.5829 33.4263 73.7228 36.9651 76.6074 47.4058C77.9206 52.1588 79.6207 58.19 80.3857 60.8092C81.8669 65.88 82.1098 68.4995 80.7871 65.1353C80.3611 64.0518 78.5652 58.0172 76.7959 51.7261C75.0269 45.4359 73.1682 39.0314 72.665 37.4927C71.6805 34.4825 71.5349 33.4254 72.1045 33.4254ZM91.6914 57.3189C91.5327 57.3189 91.4974 57.7193 91.6133 58.2086C92.0595 60.0906 93.9959 65.965 94.1143 65.7965C94.1822 65.6973 93.9356 64.3795 93.5654 62.8668C92.6559 59.1483 92.0379 57.3192 91.6914 57.3189ZM48.9824 35.5484C49.764 35.343 49.8706 37.7477 49.0986 38.1695C48.4144 38.544 44.7374 49.4262 44.4316 51.981C44.0993 54.7576 43.2332 56.1318 42.6553 54.8004C42.1107 53.545 47.9346 35.8241 48.9824 35.5484ZM46.9434 29.231C47.2089 27.6942 47.4616 27.5235 48.1074 28.4429C48.6855 29.2661 48.6504 31.2454 48.0488 31.7476C47.7808 31.9719 46.1652 36.1008 44.458 40.9234C41.5727 49.0742 40.2775 51.7074 40.8311 48.2955C40.9559 47.5266 42.3276 43.2369 43.8799 38.7633C45.4322 34.2896 46.8105 29.9999 46.9434 29.231ZM83.9844 44.6011C83.8073 43.6379 83.1692 42.6518 83.1689 43.3414C83.1689 43.7734 83.8745 45.6234 84.04 45.6256C84.1129 45.6256 84.0877 45.1647 83.9844 44.6011ZM44.9658 16.6148C44.9659 15.5353 45.1064 15.1326 45.4121 15.3355C45.6576 15.4984 46.1523 15.7781 46.5117 15.9566C46.9905 16.1943 47.099 16.5684 46.917 17.355C46.5735 18.8393 46.6144 20.0678 47.1025 22.8756C47.5137 25.241 47.4986 25.3276 46.333 27.2672C45.679 28.3555 44.4335 31.1591 43.5645 33.4967C41.4533 39.1756 40.3884 41.5587 39.9629 41.5592C39.3434 41.5592 39.5815 40.1701 40.6328 37.6529C41.1954 36.306 42.7059 32.4769 43.9893 29.1431C45.9271 24.1093 46.2539 22.9251 45.918 22.1588C45.5336 21.2825 45.4826 21.2804 44.9043 22.1197C44.1749 23.1783 39.7797 33.9901 37.8008 39.5943C36.3811 43.6147 35.6754 44.5689 35.6904 42.4488C35.701 41.1575 36.5656 38.8103 41.5 26.6978C43.8526 20.923 44.9658 17.6846 44.9658 16.6148ZM1.60156 37.4927C2.18951 37.495 5.69 41.9048 5.69141 42.6451C5.69141 43.7247 4.44682 42.8934 2.82031 40.7271C0.969759 38.2625 0.679826 37.4927 1.60156 37.4927ZM37.0225 9.60505C37.3808 8.76611 37.6469 8.56718 37.9102 8.94196C38.315 9.51844 37.314 12.1498 32.6562 22.7496C29.4263 30.1002 26.1874 38.2755 25.6729 40.3765C25.2746 42.0034 24.4417 42.9029 24.0879 42.0884C23.6713 41.1287 23.9643 40.3706 32.9512 19.191C34.9084 14.5783 36.7405 10.2652 37.0225 9.60505ZM19.2607 29.358C19.0774 29.358 18.0651 31.2457 17.0117 33.5523C13.7089 40.7845 13.5187 41.3157 13.9873 41.983C14.5908 42.8418 15.0153 42.0882 16.9014 36.814C17.7848 34.3438 18.652 32.0559 18.8281 31.73C19.3623 30.7419 19.6143 29.3592 19.2607 29.358ZM19.6553 22.7496C19.1398 22.7576 11.7636 38.6522 11.7617 39.7593C11.7617 41.4132 12.6637 40.2114 14.6846 35.8658C17.3225 30.1932 20.1433 22.7496 19.6553 22.7496ZM44.0391 12.1588C44.3147 11.7663 44.7165 11.6003 44.9316 11.7896C45.549 12.3332 45.3886 13.8647 44.6094 14.8687C43.6927 16.0506 39.1278 26.2888 36.2598 33.5953C35.007 36.7868 33.7692 39.341 33.4307 39.4342C32.9806 39.5576 32.8907 39.3663 33.0723 38.6734C33.7242 36.1861 43.1224 13.464 44.0391 12.1588ZM40.4062 10.5963C42.8534 5.13628 43.8257 3.74981 43.6328 5.9947C43.5544 6.88373 30.9662 35.0468 29.3447 37.9605C28.9505 38.6689 28.5648 38.9712 28.4355 38.6734C28.1703 38.0608 29.6024 34.7017 40.4062 10.5963ZM12.9736 33.4224C15.0543 28.6557 15.3318 27.7954 14.4531 28.8336C13.7605 29.652 10.3331 37.2794 10.333 38.0025C10.333 39.1034 10.995 37.9555 12.9736 33.4224ZM11.6807 30.7916C11.6162 30.5162 10.699 31.7043 9.64355 33.4322C8.18172 35.8253 7.84048 36.6753 8.20898 36.9996C8.87545 37.5859 9.08978 37.3191 10.5342 34.1041C11.2287 32.5582 11.7444 31.0681 11.6807 30.7916ZM7.62891 34.3638C8.39246 32.1845 8.36819 32.1638 6.94141 33.7847C5.52908 35.3893 5.38057 35.9674 6.37988 35.9674C6.79488 35.9671 7.29008 35.3309 7.62891 34.3638ZM28.8154 16.2652C29.6341 15.8768 29.2671 18.0363 28.0957 20.5006C26.9199 22.974 26.0413 23.9004 26.0439 22.6646C26.0464 21.6946 28.2897 16.5147 28.8154 16.2652ZM47.3701 14.0592C47.598 12.8181 48.2229 13.0438 48.7588 14.5611C48.9793 15.1854 49.3006 15.6765 49.4727 15.6529C50.7036 15.4812 53.8916 20.1811 53.8916 22.1675C53.8915 23.4153 52.9221 22.6594 52.3564 20.9703C51.7557 19.1767 51.2086 18.7052 50.96 19.7672C50.5135 21.6715 46.9991 16.0833 47.3701 14.0592ZM28.3555 13.0904C29.1131 13.0904 29.0647 13.3326 27.624 16.7095C26.3272 19.7491 25.6855 20.4345 25.6855 18.7818C25.6859 17.4331 27.7227 13.0914 28.3555 13.0904Z" fill="#FFA600" fill-opacity="0.1"/>
</svg>
