<svg width="97" height="354" viewBox="0 0 97 354" fill="none" xmlns="http://www.w3.org/2000/svg">
<path d="M0 350.188C0.442015 351.179 0.861495 352.124 1.25977 353.028H0V350.188Z" fill="#FFA600" fill-opacity="0.1"/>
<path d="M3.73242 331.608C3.84354 331.132 4.28858 331.559 4.73145 332.567C5.17066 333.566 7.34341 338.339 9.55859 343.175C11.4418 347.286 13.2497 351.325 13.9746 353.028H12.373C8.31681 343.968 3.57155 332.307 3.73242 331.608Z" fill="#FFA600" fill-opacity="0.1"/>
<path d="M16.6396 334.984C16.8743 334.649 21.1897 343.606 25.4062 353.028H23.9482C22.6904 350.25 21.3463 347.285 20.4736 345.373C17.6888 339.271 16.2904 335.483 16.6396 334.984Z" fill="#FFA600" fill-opacity="0.1"/>
<path d="M33.9766 353.028C29.3974 343.527 27.3463 338.223 28.7959 339.498C29.2969 339.939 32.8947 347.295 35.501 353.028H33.9766Z" fill="#FFA600" fill-opacity="0.1"/>
<path d="M0 319.033C3.6569 319.832 6.27733 320.451 7.28027 320.771C9.89192 321.603 29.2476 325.746 35.2441 326.756C40.7071 327.676 59.9212 331.528 67.6611 333.256C71.0572 334.014 76.036 335.009 78.7246 335.466C81.4131 335.923 85.6962 336.768 88.2432 337.343C89.8725 337.711 93.2555 338.446 97 339.251V344.766C90.8369 343.625 83.8218 342.261 75.6348 340.608C65.8714 338.636 54.989 336.5 51.4512 335.861C47.914 335.224 43.6812 334.338 42.0449 333.894C40.409 333.449 38.9518 333.253 38.8076 333.458C38.664 333.665 39.8 335.934 41.332 338.503C42.8645 341.073 45.132 345.198 46.3701 347.671C47.245 349.419 48.1689 351.23 49.0996 353.028H45.8994L45.0186 351.967L45.6504 353.028H42.4229C37.8725 343.85 32.6359 333.71 31.8438 332.783C31.4356 332.306 28.3289 331.391 24.9395 330.75C14.404 328.758 6.44445 327.246 0 326.016V319.033Z" fill="#FFA600" fill-opacity="0.1"/>
<path d="M52.7695 342.076C52.1486 340.304 56.1318 346.493 58.7217 351.326C59.0751 351.986 59.3802 352.547 59.6514 353.028H58.1836C55.0501 346.933 53.0747 342.947 52.7695 342.076Z" fill="#FFA600" fill-opacity="0.1"/>
<path d="M63.2998 342.577C63.3153 341.583 65.3304 344.651 69.6191 352.2C69.7852 352.493 69.9456 352.767 70.0957 353.028H68.3887C67.877 352.035 67.2737 350.888 66.6299 349.687C64.7904 346.254 63.2921 343.055 63.2998 342.577Z" fill="#FFA600" fill-opacity="0.1"/>
<path d="M77.0771 344.73C77.3062 344.528 78.6952 346.568 80.1631 349.264C80.9675 350.741 81.649 351.983 82.2383 353.028H80.6826L80.4971 352.699C77.1576 346.765 76.5013 345.237 77.0771 344.73Z" fill="#FFA600" fill-opacity="0.1"/>
<path d="M89.9707 346.472C90.2529 346.472 92.0859 349.226 94.4248 353.028H92.916C89.6597 347.287 89.3627 346.472 89.9707 346.472Z" fill="#FFA600" fill-opacity="0.1"/>
<path d="M51.1816 297.526C51.3788 297.247 52.237 298.255 53.0889 299.766C54.2451 301.816 55.0499 302.539 56.2607 302.613C57.4714 302.688 57.5887 302.793 56.7246 303.03C55.3006 303.421 55.2999 303.523 56.6875 306.197C58.4285 309.55 57.5412 309.409 55.2764 305.972C52.5124 301.778 50.7485 298.14 51.1816 297.526Z" fill="#FFA600" fill-opacity="0.1"/>
<path d="M45.2764 301.752C44.4698 301.366 45.2372 301.293 47.334 301.556C49.1735 301.786 50.7756 302.096 50.8936 302.244C51.3148 302.774 46.5376 302.355 45.2764 301.752Z" fill="#FFA600" fill-opacity="0.1"/>
<path fill-rule="evenodd" clip-rule="evenodd" d="M7.25781 283.245L9.19043 285.933C10.2531 287.41 11.2567 288.429 11.4209 288.196C11.8304 287.613 32.7803 290.664 34.8643 291.611C35.7884 292.031 38.3356 292.475 40.5244 292.598C50.1201 293.136 58.9342 294.583 60.791 295.925C61.824 296.671 62.7736 297.134 62.9014 296.953C63.3908 296.256 81.1185 298.335 82.7393 299.279C83.7665 299.879 85.2965 300.108 86.5986 299.856C87.6271 299.656 92.0596 300.019 97 300.681V302.854C93.0648 302.285 88.3203 301.79 88.126 302.067C87.9887 302.264 88.9064 304.34 90.166 306.681C91.426 309.022 92.7268 311.664 93.0557 312.551C93.544 313.867 94.1948 314.211 96.6074 314.427C96.7393 314.439 96.8703 314.452 97 314.464V317.857C84.6092 316.159 74.6055 315.313 74.6055 315.968C74.6055 316.236 75.436 318.237 76.4512 320.414C78.2035 324.172 78.4321 324.396 80.9541 324.829C82.4152 325.081 84.4788 325.466 85.54 325.686C86.6013 325.906 87.4697 325.839 87.4697 325.536C87.4696 325.234 86.7447 323.379 85.8594 321.414C83.9236 317.119 84.2043 315.971 86.2617 319.769C89.6172 325.962 89.4182 325.801 94.3506 326.339L97 326.627V327.485C94.3248 327.04 90.5587 327.019 90.5566 327.575C90.5566 327.97 91.0441 329.335 91.6396 330.606C92.5199 332.484 92.3185 332.326 90.5615 329.756L88.4014 326.596L79.1689 325.841L80.5645 328.844C82.2944 332.566 81.9288 333.506 80.0879 330.069C77.6728 325.561 77.2728 325.224 74.3418 325.224C72.807 325.224 71.4169 324.847 71.2119 324.377C70.9424 323.757 71.6216 323.644 73.7539 323.957C75.3544 324.192 76.6641 324.207 76.6641 323.987C76.6635 323.769 75.7953 321.678 74.7344 319.342C72.846 315.183 72.7444 315.083 69.9746 314.624C68.4184 314.366 66.6243 314.002 65.9873 313.814C65.3508 313.626 64.8294 313.798 64.8291 314.199C64.8291 314.6 66.4506 318.429 68.4316 322.709C70.4127 326.989 72.0332 330.789 72.0332 331.153C72.0331 332.031 70.4866 331.995 68.6367 331.074C67.5854 330.551 66.1568 328.258 63.7998 323.308C58.7434 312.689 59.2196 313.296 55.5117 312.718C45.1593 311.103 41.2811 310.457 40.1309 310.156C36.8742 309.304 19.7581 306.854 18.4395 307.051L16.9629 307.273L20.623 314.599L25.0947 315.465C27.552 315.941 29.6477 316.209 29.7549 316.063C29.8584 315.915 29.4164 314.457 28.7715 312.823C27.0576 308.481 27.9346 308.343 29.9316 312.641C31.5212 316.061 31.8382 316.367 34.4707 317.013L37.3008 317.708L35.1143 317.802C33.9115 317.854 32.9268 318.077 32.9268 318.299C32.9271 318.521 33.2912 319.705 33.7363 320.931C34.9977 324.404 34.2405 324.195 32.4092 320.564L30.7539 317.281L26.415 316.767C24.0285 316.484 21.9458 316.436 21.7881 316.66C21.6309 316.885 21.8731 317.823 22.3262 318.744C23.9843 322.115 23.0944 322.431 21.2803 319.115C19.9879 316.753 18.995 315.656 18.0645 315.562C16.7508 315.428 16.2399 315.349 11.1875 314.497C9.84324 314.27 8.74316 313.773 8.74316 313.393C8.74344 312.999 9.51848 312.908 10.5439 313.182C11.5342 313.446 12.3444 313.408 12.3447 313.097C12.3447 311.459 9.59419 306.147 8.5957 305.857C5.35672 304.914 3.59766 304.706 3.59766 305.264C3.59841 305.607 4.87167 308.774 6.42773 312.303C7.984 315.832 9.2574 319.029 9.25781 319.407C9.25781 320.745 7.88792 320.067 6.57812 318.079C4.86883 315.486 1.65007 308.869 0 304.848V300.523C0.55426 300.5 1.40254 300.584 2.69727 300.734C4.74904 300.971 7.68593 301.468 9.22363 301.838C10.7613 302.208 12.7965 302.511 13.7461 302.511H15.4727L12.6055 296.99C11.0286 293.954 9.35696 290.331 8.89062 288.939C8.42434 287.546 7.67958 286.266 7.23535 286.093C5.56499 285.444 0.510222 284.84 0.509766 285.289C0.509766 285.547 1.09233 286.844 1.80371 288.172C2.88262 290.186 3.53716 290.661 5.75195 291.034C7.21209 291.281 8.63883 291.811 8.92188 292.214C9.26506 292.702 8.52174 292.793 6.69336 292.485C3.64268 291.97 3.66632 291.698 6.28223 297.198C7.37515 299.496 7.56259 300.313 6.99805 300.313C6.57713 300.312 5.46619 298.506 4.5293 296.299C2.92196 292.513 2.6377 291.981 0 291.405V290.02C1.19209 289.915 1.10552 289.521 0.547852 288.033C0.36823 287.554 0.159435 286.884 0 286.301V282.155L7.25781 283.245ZM15.6895 306.736C14.9346 305.947 10.8008 306.058 10.8008 306.867C10.8012 308.347 13.0706 312.931 14.0947 313.521C15.3478 314.242 18.5195 314.441 18.5195 313.799C18.5195 313.559 18.0705 312.464 17.5215 311.366C16.9724 310.268 16.451 308.899 16.3633 308.322C16.2755 307.746 15.9724 307.032 15.6895 306.736ZM76.9209 303.245C78.7374 305.894 79.1811 306.178 81.5283 306.188C82.9565 306.195 84.472 306.543 84.8965 306.963C85.4473 307.508 84.7429 307.588 82.4326 307.242L79.1963 306.758L80.5352 309.581C81.9695 312.604 83.1309 313.231 87.6162 313.406C89.8142 313.493 90.0257 313.365 89.5889 312.221C89.3198 311.516 87.794 308.795 86.1982 306.176C83.1255 301.133 82.1295 300.508 76.9453 300.369L74.9111 300.315L76.9209 303.245ZM67.7344 299.155C63.8812 298.687 63.718 298.729 64.2139 300.048C64.5 300.809 65.2159 302.052 65.8047 302.811C66.3937 303.57 67.5923 305.782 68.4688 307.727C70.1868 311.539 70.6681 311.824 76.1494 312.27C77.7059 312.396 79.3845 312.56 79.8799 312.635C80.3752 312.709 80.7803 312.508 80.7803 312.187C80.7802 311.865 79.9117 310.429 78.8506 308.994C77.1512 306.697 76.5722 306.366 73.9951 306.23C72.3857 306.144 70.4172 305.775 69.6211 305.408C68.6415 304.957 69.5493 304.881 72.4316 305.171L76.6895 305.6L75.5186 303.004C74.2302 300.146 73.6927 299.88 67.7344 299.155ZM40.5576 297.085C41.1881 298.257 42.6199 301.088 43.7402 303.375C45.7368 307.452 45.8367 307.543 48.7432 307.99C54.7605 308.917 58.5888 309.977 59.5098 310.971C60.6579 312.21 61.5641 312.308 62.0264 311.243C62.2531 310.721 63.4199 310.622 65.4336 310.954L68.4971 311.46L66.2773 307.977C65.0566 306.061 63.0138 302.873 61.7383 300.894L59.4189 297.295L54.8955 296.994C52.4074 296.829 50.1422 296.493 49.8623 296.246C49.5811 296 47.1161 295.608 44.3828 295.376L39.4111 294.954L40.5576 297.085ZM32.6152 293.314C28.8943 292.652 28.5822 292.99 30.3857 295.736C31.6856 297.715 32.3585 298.137 34.3682 298.233L36.7861 298.348L32.0137 299.217L34.2256 302.787C36.2547 306.061 36.6875 306.402 39.4424 306.903C41.0944 307.204 42.644 307.493 42.8857 307.546C43.1271 307.598 42.3646 306.076 41.1914 304.162C40.018 302.248 38.2169 299.132 37.1885 297.238C35.4915 294.113 35.0689 293.75 32.6152 293.314ZM26.8662 297.828C23.8564 297.432 23.6698 297.494 24.1367 298.736C24.4122 299.47 24.9976 300.495 25.4375 301.015C25.8775 301.535 26.2373 302.556 26.2373 303.283C26.2374 304.351 26.8074 304.696 29.1963 305.07C30.8234 305.326 32.5021 305.641 32.9268 305.771C34.3198 306.197 34.4707 306.183 34.46 305.627C34.452 305.324 33.4701 303.542 32.2734 301.665C30.2245 298.452 29.9079 298.228 26.8662 297.828ZM15.5605 290.462C14.1111 290.183 13.3741 290.318 13.374 290.863C13.374 291.316 14.4159 293.809 15.6895 296.402C16.9627 298.996 18.0046 301.412 18.0049 301.773C18.0049 303.16 19.3093 303.683 25.0801 304.609C25.4338 304.665 25.7227 304.523 25.7227 304.293C25.7218 304.062 24.7598 302.249 23.584 300.264C21.758 297.18 21.1753 296.65 19.5967 296.641C18.5799 296.633 17.4002 296.282 16.9756 295.857C16.4126 295.292 16.8805 295.211 18.7041 295.558C20.6811 295.934 21.1392 295.83 20.8916 295.061C20.7193 294.526 20.4343 293.508 20.2588 292.798C19.9319 291.477 19.3656 291.195 15.5605 290.462ZM24.6084 291.993C22.8651 291.734 21.3186 291.692 21.1709 291.901C21.0243 292.11 21.3741 293.182 21.9492 294.283C22.7138 295.747 23.6047 296.404 25.2598 296.726C28.3927 297.334 29.3252 297.426 29.3252 297.131C29.3249 296.991 28.9768 295.884 28.5518 294.671C27.8528 292.676 27.4754 292.42 24.6084 291.993Z" fill="#FFA600" fill-opacity="0.1"/>
<path d="M39.8662 312.172C40.2035 311.695 41.0604 312.946 43.0752 316.856C43.8913 318.439 44.5077 318.682 48.8105 319.112L53.6318 319.596L52.209 316.534C50.1607 312.127 51.0075 311.974 53.3389 316.329C54.8771 319.203 55.6492 320.039 56.8535 320.128C57.7025 320.191 58.976 320.522 59.6836 320.864C60.7512 321.381 60.6022 321.466 58.8057 321.37C57.6152 321.307 56.492 321.468 56.3096 321.727C56.1274 321.986 56.6124 323.383 57.3877 324.83C59.535 328.839 58.5342 328.735 56.2861 324.716C55.2042 322.782 54.2923 321.118 54.2578 321.015C54.1683 320.742 45.0446 319.47 44.8691 319.706C44.7867 319.819 45.2216 321.121 45.834 322.6C47.5252 326.681 46.6758 326.506 44.5225 322.329C43.4744 320.296 42.3662 318.632 42.0596 318.631C41.7534 318.631 41.6563 318.412 41.8438 318.146C42.0304 317.878 41.5821 316.538 40.8477 315.167C40.113 313.796 39.6718 312.448 39.8662 312.172Z" fill="#FFA600" fill-opacity="0.1"/>
<path d="M95.2041 319.075C95.2152 318.498 95.6108 318.908 97 321.176V323.261C95.9997 321.383 95.1958 319.514 95.2041 319.075Z" fill="#FFA600" fill-opacity="0.1"/>
<path d="M37.9434 318.146C38.2971 317.942 38.8767 317.942 39.2305 318.146C39.584 318.349 39.2943 318.516 38.5869 318.516C37.8795 318.516 37.5898 318.349 37.9434 318.146Z" fill="#FFA600" fill-opacity="0.1"/>
<path d="M0 307.588C1.67131 311.366 2.56068 313.508 3.08691 314.977C4.10509 317.818 4.10671 317.897 3.15039 317.897C2.62321 317.897 1.87878 316.905 0 313.115V307.588Z" fill="#FFA600" fill-opacity="0.1"/>
<path d="M95.1904 304.485C95.1917 304.005 95.8977 304.684 96.7598 305.993C96.8423 306.119 96.9223 306.238 97 306.351V309.333C96.2003 308.538 95.4698 308.317 94.1826 308.246L91.8438 308.118L94.0303 307.838C96.1302 307.569 96.7903 306.767 95.7021 305.81C95.4192 305.561 95.1892 304.964 95.1904 304.485Z" fill="#FFA600" fill-opacity="0.1"/>
<path d="M9.51465 299.582C9.91658 298.656 11.3384 298.656 12.3447 299.582C12.9177 300.109 12.6112 300.296 11.1562 300.304C9.97916 300.311 9.32365 300.022 9.51465 299.582Z" fill="#FFA600" fill-opacity="0.1"/>
<path d="M2.53809 298.117C3.0873 298.117 3.67965 298.447 3.85449 298.85C4.0346 299.265 3.60202 299.582 2.85547 299.582C2.13155 299.582 1.53924 299.253 1.53906 298.85C1.53906 298.447 1.98881 298.117 2.53809 298.117Z" fill="#FFA600" fill-opacity="0.1"/>
<path d="M0 298.182C0.593617 299.177 0.57054 299.394 0 299.236V298.182Z" fill="#FFA600" fill-opacity="0.1"/>
<path d="M58.3633 288.144C59.4186 287.568 61.5357 290.22 61.002 291.449C60.4783 292.656 59.987 292.444 58.667 290.444C57.5823 288.8 57.5546 288.586 58.3633 288.144Z" fill="#FFA600" fill-opacity="0.1"/>
<path fill-rule="evenodd" clip-rule="evenodd" d="M1.63574 256.723C1.30663 252.707 2.39297 253.63 4.22559 258.921C5.13267 261.54 6.01938 263.684 6.19531 263.684C6.37133 263.683 6.49526 262.281 6.4707 260.569C6.4367 258.284 6.62824 257.456 7.18555 257.456C7.97142 257.456 8.3523 258.791 9.16895 264.416L9.64746 267.713L9.70898 265.009C9.743 263.522 9.98824 262.114 10.2539 261.88C10.7573 261.438 14.4011 267.728 14.4014 269.039C14.4014 269.451 14.5411 269.59 14.7119 269.347C14.8821 269.103 14.5091 266.711 13.8828 264.031C13.0915 260.646 12.9082 258.924 13.2812 258.393C14.2965 256.947 15.3891 258.492 16.2158 262.541C17.2358 267.537 17.0786 270.684 15.8164 270.541C14.6164 270.406 14.6716 271.504 15.9121 272.449C17.3723 273.562 17.4469 273.477 17.8047 270.291C18.4004 264.987 20.3825 264.803 21.9033 269.91C22.4939 271.894 22.591 271.966 22.9014 270.644C23.9062 266.363 24.3665 265.149 24.9824 265.149C26.0221 265.149 26.27 266.236 25.7578 268.544C24.8811 272.494 24.6388 274.807 25.1475 274.36C25.4199 274.119 25.7948 272.938 25.9805 271.734C26.166 270.53 26.4076 269.544 26.5166 269.544C26.6265 269.545 27.7038 270.505 28.9111 271.677C30.4713 273.192 31.3514 273.624 31.9492 273.168C32.9587 272.399 33.3128 272.831 34.2314 275.955C34.9071 278.253 36.1455 279.294 35.9746 277.42C35.6528 273.89 37.9728 273.583 40.1299 276.871C41.9229 279.604 42.6998 279.659 42.71 277.054C42.7328 271.58 45.3072 273.183 46.5908 279.47C47.5178 284.01 48.4526 284.559 49.6484 281.267C50.9966 277.555 52.4784 278.737 52.4785 283.525C52.4785 285.965 53 286.171 54.8389 284.455C56.5282 282.879 57.2296 283.884 57.0166 287.575C56.851 290.447 55.5727 291.848 54.7812 290.025C54.5662 289.529 53.8065 289.35 52.9502 289.594C52.0238 289.858 50.2442 289.345 48.1016 288.196C46.0878 287.117 44.2222 286.559 43.4971 286.819C41.6368 287.483 33.6917 284.357 30.8525 281.844C28.8626 280.083 27.6988 279.59 25.3535 279.512C23.1729 279.44 21.436 278.78 18.8477 277.042C15.2915 274.655 13.5584 274.051 14.1455 275.404C14.3205 275.807 14.1607 276.136 13.79 276.134C12.7671 276.127 4.88485 270.922 0 267.084V256.486C0.776663 258.121 1.40933 259.287 1.53906 259.287C1.70775 259.286 1.7517 258.132 1.63574 256.723ZM43.7637 279.861C43.7448 280.902 43.9001 281.994 44.1064 282.288C44.7175 283.158 44.8291 281.644 44.2939 279.737L43.7979 277.969L43.7637 279.861ZM37.6865 278.347C36.9171 278.358 36.8983 278.461 37.5576 279.068C38.5287 279.961 38.5869 279.961 38.5869 279.068C38.5866 278.665 38.1816 278.341 37.6865 278.347Z" fill="#FFA600" fill-opacity="0.1"/>
<path d="M97 283.246C95.6847 283.636 94.2284 284.066 92.6152 284.541C77.717 288.932 73.0625 289.944 73.0625 288.793C73.0626 288.001 73.6135 287.823 89.7852 283.4C92.294 282.713 94.8159 281.998 97 281.361V283.246Z" fill="#FFA600" fill-opacity="0.1"/>
<path d="M2.55566 274.002C9.05252 277.964 11.1213 279.841 8.91406 279.771C8.39491 279.755 6.5815 278.915 4.88379 277.906C3.39943 277.025 1.71809 275.953 0 274.816V272.43C0.877597 272.973 1.74126 273.505 2.55566 274.002Z" fill="#FFA600" fill-opacity="0.1"/>
<path d="M97 250.781C92.851 252.966 84.5902 257.448 77.9502 261.123C66.3323 267.553 60.0423 270.286 61.4844 268.278C61.7674 267.885 64.8933 266.169 68.4307 264.466C71.9682 262.763 78.4523 259.391 82.8389 256.974C87.2254 254.557 92.3197 251.759 94.1592 250.757C94.9634 250.319 95.973 249.755 97 249.176V250.781Z" fill="#FFA600" fill-opacity="0.1"/>
<path d="M61.3877 260.069C61.7237 260.1 60.9668 260.773 59.7051 261.569C57.0624 263.238 52.4318 264.332 53.252 263.094C53.7516 262.342 60.147 259.965 61.3877 260.069Z" fill="#FFA600" fill-opacity="0.1"/>
<path d="M93.2959 237.887C95.2315 232.95 96.6994 233.168 94.8994 238.124C94.4577 239.34 94.1829 240.707 94.2891 241.16C94.3764 241.528 95.5166 239.613 97 236.674V243.849C88.8582 249.374 59.3074 263.02 63.2852 259.41C63.7096 259.025 68.9202 256.395 74.8633 253.566C86.4731 248.038 90.5566 245.704 90.5566 244.598C90.5566 243.627 90.1989 243.719 88.7627 245.059C87.4231 246.308 85.2189 245.848 85.5449 244.387C85.6496 243.917 87.1268 243.053 88.8271 242.466C91.7131 241.47 92.0106 241.165 93.2959 237.887Z" fill="#FFA600" fill-opacity="0.1"/>
<path d="M72.8047 237.548C74.2672 237.184 74.2943 237.22 73.3193 238.24C72.0435 239.576 61.9465 244.791 49.3926 250.6C35.7358 256.919 32.4338 258.149 33.7246 256.44C34.2147 255.791 37.1366 254.283 52.9941 246.495C57.6637 244.202 62.6426 241.735 64.0576 241.014C66.9865 239.52 70.5414 238.112 72.8047 237.548Z" fill="#FFA600" fill-opacity="0.1"/>
<path d="M81.9521 245.555C82.861 245.987 71.3819 251.793 63.2852 254.997C61.1635 255.837 59.0225 256.689 58.5264 256.891C58.0311 257.093 57.625 256.941 57.625 256.555C57.6258 256.168 59.1889 255.162 61.0986 254.319C63.0089 253.475 68.3599 251.1 72.9893 249.04C77.6185 246.981 81.6518 245.412 81.9521 245.555Z" fill="#FFA600" fill-opacity="0.1"/>
<path d="M67.0322 244.958C78.9958 239.414 82.3771 238.207 81.1826 239.908C80.7586 240.512 48.913 255.622 48.0645 255.622C47.6629 255.622 47.334 255.337 47.334 254.987C47.3342 254.198 49.7744 252.956 67.0322 244.958Z" fill="#FFA600" fill-opacity="0.1"/>
<path d="M28.8105 244.721C46.9444 236.395 51.9647 234.482 51.9658 235.896C51.9658 236.209 50.7395 237.265 49.2412 238.241C47.7427 239.218 44.3272 241.747 41.6514 243.86C34.9228 249.172 27.2666 252.768 27.2666 250.616C27.2673 250.281 28.3671 249.135 29.7109 248.07C33.0522 245.422 32.1344 245.603 24.6777 249.065C17.4965 252.398 14.2076 253.287 13.666 252.04C13.241 251.061 13.5478 250.874 18.5371 249.067C20.6499 248.301 25.273 246.345 28.8105 244.721Z" fill="#FFA600" fill-opacity="0.1"/>
<path fill-rule="evenodd" clip-rule="evenodd" d="M26.7842 150.499C33.5217 147.325 34.046 147.362 38.1416 151.292C41.5783 154.59 50.5258 161.112 51.6133 161.112C53.6941 161.113 73.2826 171.503 79.3369 175.818C81.1214 177.089 84.7813 179.873 87.4697 182.005C90.1582 184.137 92.937 186.116 93.6445 186.404C94.352 186.693 95.3282 187.425 95.8135 188.031C96.1137 188.406 96.408 188.59 97 188.445V197.405C94.5858 201.533 90.9388 207.564 88.8203 210.931C86.6656 214.356 84.9013 217.405 84.8994 217.708C84.8919 219.208 86.1875 217.723 89.7012 212.213C92.0392 208.545 94.6123 204.325 97 200.263V204.688C93.6478 210.403 94.0759 210.304 97 206.002V210.705C96.7451 211.371 96.7471 211.727 97 211.706V213.57C96.5905 213.874 96.1583 214.216 95.7012 214.596C93.7633 216.207 91.6349 217.526 90.9707 217.527C90.3069 217.527 86.1788 219.862 81.7979 222.718C77.4169 225.573 70.9939 229.235 67.5244 230.854C62.7903 233.063 60.9478 234.282 60.1406 235.736L59.0654 237.674L63.5361 238.406L61.4805 239.676C60.35 240.374 56.7624 242.228 53.5078 243.794C50.2533 245.361 45.5326 247.684 43.0176 248.957C40.5037 250.23 38.3244 251.096 38.1729 250.884C37.8289 250.394 37.514 250.659 42.96 246.852C46.9771 244.043 48.3639 242.516 53.4258 235.332C56.6349 230.778 59.4534 227.051 59.6895 227.051C59.9253 227.051 60.8136 226.218 61.6631 225.2C63.3301 223.203 64.0965 223.741 63.5273 226.508C63.2731 227.744 63.6956 227.381 65.2363 225.036C66.3616 223.324 67.5407 221.922 67.8564 221.922C68.7634 221.923 68.5268 223.747 67.3418 225.892C64.5108 231.016 69.4386 226.691 72.5527 221.318L74.1123 218.625L72.9434 218.196C72.3005 217.96 71.2375 218.043 70.5811 218.38C69.2455 219.067 66.8871 218.461 66.8867 217.431C66.8867 217.063 67.8418 215.285 69.0098 213.481C70.1778 211.676 70.9262 210.199 70.6729 210.199C70.4167 210.201 66.8576 211.813 62.7607 213.783C52.6458 218.647 40.0783 224.251 32.9258 227.088C29.6713 228.379 26.6608 229.841 26.2363 230.337C25.194 231.555 22.2609 232.912 20.6689 232.912C19.9554 232.912 19.0001 233.391 18.5459 233.976C17.8291 234.899 6.96718 239.133 0 241.348V234.901C14.133 229.954 33.3877 222.969 37.8145 221.072C40.6446 219.86 45.6225 217.724 48.877 216.325C65.1195 209.346 78.1539 202.54 86.1816 196.845C95.7281 190.073 96.4253 189.371 94.3389 188.625C92.0878 187.821 83.9419 182.75 79.7109 179.519C74.8566 175.812 67.8591 171.865 56.8252 166.611C52.0294 164.327 47.1845 161.607 46.0586 160.566L44.0117 158.673L45.415 161.048C47.1847 164.043 47.1999 164.945 45.4648 164.006C43.2445 162.804 41.1582 160.368 41.1582 158.978C41.1582 157.292 39.9916 155.87 36.6562 153.49L33.9551 151.563L33.9365 153.224C33.9252 154.137 33.5869 155.709 33.1826 156.716C32.2309 159.086 32.2309 159.699 33.1826 159.179C34.0533 158.704 34.2805 160.738 33.4395 161.479C32.6481 162.176 32.8309 164.043 33.6904 164.043C34.7949 164.044 36.1867 169.145 35.5879 170.997C35.3262 171.807 34.0414 174.492 32.7324 176.965C31.4239 179.437 30.3533 181.747 30.3525 182.1C30.3525 182.451 30.8635 183.194 31.4883 183.749C32.5344 184.679 32.7282 184.569 33.9326 182.354C34.6521 181.03 35.7035 178.777 36.2695 177.348C37.2499 174.872 38.1238 174.163 38.4541 175.573C38.5372 175.932 37.649 178.333 36.4795 180.909C34.8935 184.403 34.4796 185.883 34.8525 186.725C35.7462 188.742 36.7011 187.932 38.4893 183.641C40.2545 179.404 41.6729 178.178 41.6729 180.888C41.6725 181.691 40.8557 183.87 39.8574 185.733C38.4309 188.394 38.1686 189.337 38.6338 190.135C39.6486 191.876 40.5518 191.269 41.9316 187.916C43.4845 184.143 44.5305 182.704 44.9756 183.73C45.1448 184.12 44.5357 186.151 43.6221 188.243L41.9609 192.049L43.1035 193.365C45.6898 196.347 43.7542 196.316 40.4385 193.321C39.0833 192.098 37.5877 191.271 37.1143 191.485C36.5596 191.735 35.1026 190.444 33.0127 187.849C31.2311 185.636 29.5815 183.826 29.3457 183.824C28.136 183.824 28.4928 181.268 30.1289 178.216C33.4414 172.037 34.6122 167.276 31.5781 172.322C30.7622 173.68 29.5205 175.751 28.8184 176.926C28.1163 178.101 27.6058 179.474 27.6836 179.978C27.9531 181.723 26.1786 180.88 23.4814 177.981C21.9911 176.378 19.1691 174.033 17.21 172.768C14.2625 170.865 12.6245 169.011 7.7207 162.025C4.15239 156.941 2.4594 154.592 0 152.688V149.044C2.07455 150.353 3.38016 151.691 5.14062 154.146L7.9707 158.091L14.4023 155.696C17.9399 154.38 23.5121 152.041 26.7842 150.499ZM10.8008 234.598C10.3757 234.456 8.75525 235.012 7.19922 235.832C4.38334 237.317 5.58957 237.235 9.51465 235.675C10.6467 235.225 11.2253 234.74 10.8008 234.598ZM61.1006 228.09C60.9891 227.931 60.5126 228.95 60.042 230.356C58.9838 233.515 59.3502 233.757 60.4805 230.645C60.9327 229.399 61.2115 228.251 61.1006 228.09ZM89.5625 198.476C89.2598 198.476 87.9123 200.524 86.5684 203.027C85.2243 205.531 82.4526 210.15 80.4092 213.292C76.7015 218.994 75.2161 221.921 76.0283 221.921C76.2656 221.919 77.8362 219.54 79.5195 216.634C81.2036 213.726 83.7429 209.523 85.1621 207.293C88.4382 202.145 90.2687 198.477 89.5625 198.476ZM95.6064 195.164C95.4626 194.96 93.1299 198.342 90.4229 202.679C84.3702 212.376 83.1346 214.595 83.7861 214.595C84.0659 214.594 86.5578 210.885 89.3242 206.352C96.0402 195.348 95.9048 195.589 95.6064 195.164ZM80.166 204.684C79.9997 204.447 79.3405 205.343 78.7012 206.676L77.5381 209.1L79.0039 207.107C79.8094 206.011 80.3323 204.921 80.166 204.684ZM27.6162 170.89C27.3966 170.577 24.6946 175.378 24.6943 176.081C24.6943 177.336 25.7637 176.154 26.7227 173.84C27.328 172.379 27.7296 171.052 27.6162 170.89ZM28.7695 174.299C29.3471 172.572 29.3362 172.548 28.582 173.889C28.1419 174.671 27.7812 175.633 27.7812 176.027C27.7813 176.957 28.0197 176.541 28.7695 174.299ZM27.8789 163.309C27.4171 163.312 22.1807 172.496 21.7676 174.027C21.3313 175.645 22.8181 175.134 23.707 173.36C25.8214 169.139 28.2413 163.309 27.8789 163.309ZM22.3496 162.143C28.606 150.254 26.0739 152.276 18.8701 164.921L16.4912 169.097L19.8057 172.863L21.4893 170.144C22.4152 168.648 24.3315 164.824 25.748 161.648C29.0646 154.21 28.3161 154.93 23.6367 163.679C21.5902 167.505 19.7306 170.635 19.5049 170.635C18.2595 170.635 18.9237 168.653 22.3496 162.143ZM18.3945 161.849C21.3941 155.895 21.5409 153.738 18.5947 158.91C17.5628 160.722 16.08 163.14 15.2998 164.283C13.946 166.268 13.8287 168.099 15.0938 167.5C15.4216 167.344 16.907 164.801 18.3945 161.849ZM14.7891 161.471C16.4852 157.753 16.2096 157.517 13.9092 160.715C12.7894 162.272 11.9868 163.808 12.125 164.128C12.5599 165.13 13.5871 164.105 14.7891 161.471ZM11.6191 159.834C11.2624 159.326 10.2864 160.358 10.2861 161.243C10.2861 161.729 10.5813 161.674 11.0703 161.096C11.5017 160.586 11.7487 160.019 11.6191 159.834Z" fill="#FFA600" fill-opacity="0.1"/>
<path d="M34.9258 233.289C46.9224 228.237 53.0317 226.893 42.7031 231.578C25.8582 239.22 6.67647 246.601 7.79004 245.013C8.03533 244.663 12.514 242.728 34.9258 233.289Z" fill="#FFA600" fill-opacity="0.1"/>
<path d="M34.623 229.332C43.1037 225.721 45.7905 224.816 45.791 225.57C45.791 226.456 28.2752 234.158 11.5986 240.605C2.41545 244.155 1.49609 244.401 2.43457 243.065C2.75777 242.605 4.94564 241.485 7.29688 240.576C9.6485 239.667 14.1204 237.862 17.2334 236.565C20.3464 235.267 23.9355 233.789 25.209 233.28C26.4827 232.772 30.7187 230.995 34.623 229.332Z" fill="#FFA600" fill-opacity="0.1"/>
<path d="M85.5049 231.579C86.3933 231.765 85.7132 232.413 82.8389 234.119C78.2702 236.831 76.6641 237.568 76.6641 236.953C76.6659 236.019 84.3616 231.341 85.5049 231.579Z" fill="#FFA600" fill-opacity="0.1"/>
<path d="M56.3389 221.293L54.5195 222.248C53.5188 222.773 51.8982 223.406 50.918 223.653L49.1357 224.104L51.1934 222.664C52.3254 221.873 53.9469 221.241 54.7959 221.259L56.3389 221.293Z" fill="#FFA600" fill-opacity="0.1"/>
<path d="M97 222.285C95.2325 223.612 94.047 224.207 93.7676 223.809C93.3772 223.253 94.2768 221.929 97 219.217V222.285Z" fill="#FFA600" fill-opacity="0.1"/>
<path d="M0 209.84C0.884297 210.731 1.88768 211.7 3.04297 212.783C10.6132 219.879 13.3238 223.411 8.58691 220.006C4.99189 217.422 2.32796 215.293 0 213.025V209.84Z" fill="#FFA600" fill-opacity="0.1"/>
<path d="M0 190.037C4.18625 196.87 8.05043 203.011 11.3135 208C17.5648 217.558 18.3816 218.99 17.584 218.99C17.319 218.99 14.9103 215.739 12.2314 211.765C9.35996 207.505 5.33643 201.112 0 192.325V190.037Z" fill="#FFA600" fill-opacity="0.1"/>
<path d="M15.1104 186.021C15.2166 186.021 17.2846 188.246 19.7061 190.966C22.1276 193.686 27.8291 199.504 32.376 203.894C40.1735 211.422 42.3928 213.883 41.3516 213.845C41.1048 213.837 39.4765 212.734 37.7334 211.396C35.9902 210.058 33.3966 207.675 31.9697 206.101C30.5429 204.526 27.5983 201.425 25.4268 199.209C18.4218 192.06 13.6978 186.021 15.1104 186.021Z" fill="#FFA600" fill-opacity="0.1"/>
<path d="M18.7588 199.168C18.0703 197.582 18.9896 197.686 21.4736 199.479C23.7879 201.149 31.1798 207.813 33.6982 210.5L34.7275 211.599L33.6982 211.583C33.1317 211.575 31.0544 210.103 29.0811 208.318C27.1072 206.531 25.3164 205.07 25.1025 205.07C24.5176 205.068 19.1536 200.078 18.7588 199.168Z" fill="#FFA600" fill-opacity="0.1"/>
<path d="M0 183.794C4.33546 190.92 8.46568 197.498 10.7207 200.814C14.214 205.95 16.9897 210.507 16.8887 210.939C16.7871 211.369 13.653 207.34 9.92383 201.986C7.83652 198.988 4.1876 193.227 0 186.425V183.794Z" fill="#FFA600" fill-opacity="0.1"/>
<path d="M11.7578 196.278C12.6432 196.279 22.6352 209.211 22.6357 210.357C22.6357 211.486 21.8238 210.851 19.0342 207.545C12.8885 200.261 10.316 196.278 11.7578 196.278Z" fill="#FFA600" fill-opacity="0.1"/>
<path d="M53.8682 196.939C54.2208 196.437 54.9146 196.824 56.0078 198.134C58.2895 200.868 58.1942 202.087 55.8066 200.709C54.2555 199.814 53.2384 197.836 53.8682 196.939Z" fill="#FFA600" fill-opacity="0.1"/>
<path d="M62.7705 187.077C62.7705 185.697 63.2883 185.744 64.8438 187.265C66.6838 189.064 74.6055 198.489 74.6055 198.879C74.6054 199.644 73.6281 199.073 71.2334 196.911C66.9463 193.042 62.7708 188.19 62.7705 187.077Z" fill="#FFA600" fill-opacity="0.1"/>
<path d="M46.0947 169.902C46.7448 169.904 51.9658 176.725 51.9658 177.573C51.9668 179.14 57.6778 186.251 63.6523 192.124C66.8243 195.242 69.5577 198.112 69.7285 198.502C70.3601 199.957 68.585 199.032 65.4805 196.287C60.2761 191.686 56.6617 187.401 51.0645 179.194C46.3879 172.336 45.0867 169.902 46.0947 169.902Z" fill="#FFA600" fill-opacity="0.1"/>
<path d="M51.2227 191.882C52.6399 191.882 52.5517 193.583 51.0215 195.762C49.7038 197.638 49.381 197.822 49.1172 196.843C48.7392 195.441 50.25 191.882 51.2227 191.882Z" fill="#FFA600" fill-opacity="0.1"/>
<path d="M47.8906 187.486C49.2274 187.486 49.1319 188.706 47.5654 191.63C46.2827 194.025 44.7619 194.904 44.7617 193.251C44.7617 191.498 46.9386 187.487 47.8906 187.486Z" fill="#FFA600" fill-opacity="0.1"/>
<path d="M3.19824 161.439C3.40364 161.144 4.86043 162.351 6.43555 164.12C8.01085 165.89 11.3156 169.431 13.7803 171.989C16.2449 174.548 18.4473 177.103 18.6738 177.667C19.4747 179.664 17.6287 178.7 13.7471 175.092C9.42619 171.076 2.62123 162.268 3.19824 161.439Z" fill="#FFA600" fill-opacity="0.1"/>
<path d="M58.8867 138.826C57.6424 136.468 57.5613 136.101 58.4316 136.764C60.7775 138.552 65.028 146.448 64.2334 147.542C64.1366 147.675 63.235 146.414 62.2295 144.739C61.2241 143.065 59.7197 140.405 58.8867 138.826Z" fill="#FFA600" fill-opacity="0.1"/>
<path fill-rule="evenodd" clip-rule="evenodd" d="M3.84082 68.7961C5.1324 68.7961 14.6752 74.337 18.8613 77.5177C20.5136 78.7732 23.4601 81.6118 25.4092 83.8253C30.419 89.515 31.6884 90.5075 35.7578 91.9103C37.7387 92.5932 40.7209 94.0953 42.3848 95.2492C46.0106 97.7637 57.0004 107.619 60.0879 111.124C61.7887 113.055 62.4513 113.439 62.9873 112.806C63.9309 111.692 70.9952 109.825 74.2666 109.825C76.4642 109.826 77.4993 110.332 80.2666 112.756C82.1053 114.367 83.7886 115.684 84.0078 115.686C84.2259 115.686 87.7614 113.521 91.8643 110.874L97 107.561V111.375L94.25 115.124C88.7895 122.567 88.2945 123.411 88.7598 124.484C89.3462 125.835 90.0152 125.225 94.7939 118.984C95.5712 117.968 96.323 117.008 97 116.159V118.335C96.5268 118.969 95.998 119.669 95.4102 120.439C91.0865 126.1 90.5778 127.018 91.2393 127.96C91.9007 128.902 92.5095 128.397 96.2256 123.824C96.4943 123.494 96.7524 123.179 97 122.879V124.859C93.2375 129.326 92.8746 130.116 93.6582 131.46C94.1406 132.288 94.6714 131.968 97 128.832V131.41C96.2156 132.56 95.7041 133.431 95.7041 133.703C95.7042 134.981 96.0836 135.295 97 134.543V139.916C96.2185 138.953 95.9761 139.17 94.1562 141.7C91.486 145.413 90.9223 144.466 93.3213 140.297C94.4466 138.342 94.986 136.841 94.665 136.559C94.0906 136.055 91.4595 139.052 88.4502 143.638C86.67 146.351 85.4113 147.228 85.4111 145.757C85.4111 145.371 87.1718 142.637 89.3232 139.681C92.7489 134.974 93.1345 134.188 92.4287 133.354C91.7355 132.535 91.0286 133.205 87.3975 138.13C81.8657 145.633 81.2961 143.938 86.7324 136.152C90.0553 131.392 90.5918 130.312 89.8389 129.901C89.1647 129.532 88.0847 130.593 85.6797 133.987C81.2201 140.281 80.3759 139.257 84.6299 132.715C86.5155 129.815 87.9128 127.105 87.7344 126.693C87.1399 125.323 85.9702 125.918 84.791 128.189C83.498 130.679 80.3953 133.699 79.8818 132.968C79.7021 132.708 80.9202 130.531 82.5898 128.129C84.8176 124.924 85.4742 123.542 85.0547 122.944C84.6348 122.348 83.2004 123.649 79.6729 127.824C77.0274 130.956 73.8833 134.843 72.6865 136.462C71.4897 138.081 70.3863 139.229 70.2344 139.013C70.0829 138.796 72.0997 135.684 74.7168 132.098C83.1999 120.473 83.6563 119.749 82.6562 119.475C81.3376 119.113 79.7861 120.797 73.6133 129.288C70.5566 133.493 67.9189 136.934 67.752 136.934C67.2783 136.932 64.9143 133.4 64.3086 131.788C63.8708 130.623 63.9265 130.339 64.5928 130.339C65.0487 130.339 67.5463 127.557 70.1426 124.157C76.0247 116.455 77.5488 114.761 77.8906 115.549C78.0385 115.891 75.5079 119.536 72.2666 123.65C67.7713 129.354 66.3733 131.556 66.373 132.932C66.373 133.924 66.6111 134.736 66.9023 134.736C67.6991 134.731 80.776 117.661 80.7793 116.621C80.7805 115.36 78.0423 113.488 76.1963 113.488C74.9855 113.489 73.7203 114.702 70.3818 119.064C68.0352 122.13 65.3764 125.729 64.4736 127.064L62.832 129.489L60.8398 125.701C58.1281 120.547 57.7155 119.381 59.3604 121.515L60.7471 123.315L66.6299 114.783L64.3027 115.197C61.6428 115.671 61.5067 115.576 52.3799 106.79C44.1973 98.9138 41.3601 96.8224 37.7441 95.9992C33.6199 95.0603 30.3295 92.6203 26.3232 87.5304C22.6774 82.8984 19.4448 79.7867 18.2783 79.7863C17.8515 79.7863 15.5442 78.6322 13.1514 77.2218C10.7586 75.8115 8.56421 74.6574 8.27539 74.6574C7.89883 74.662 3.23119 81.9132 0 87.2531V84.757C0.521507 83.8581 1.11704 82.8273 1.79785 81.6466C6.35752 73.7393 6.59538 73.1925 5.48633 73.1925C5.0617 73.1945 2.95884 75.8864 0.8125 79.1759C0.536222 79.5994 0.264403 80.01 0 80.4035V77.8068C1.47997 75.1038 2.54684 72.9196 2.44531 72.7726C2.35726 72.6471 1.34222 73.6438 0 75.1437V70.1349C1.64682 69.3805 3.30543 68.7963 3.84082 68.7961ZM71.9277 113.618C71.4035 113.488 69.8812 114.565 68.5449 116.011C67.2088 117.457 65.0161 119.673 63.6719 120.936C61.4392 123.033 60.6825 124.923 61.5703 126.188C62.2566 127.165 62.8918 126.565 67.8428 120.266C71.611 115.471 72.6407 113.795 71.9277 113.618ZM89.8828 118.525C95.1662 112.072 95.1164 111.048 89.7285 115.338C86.1958 118.151 85.6886 118.875 86.1221 120.484C86.5648 122.126 87.2073 121.792 89.8828 118.525Z" fill="#FFA600" fill-opacity="0.1"/>
<path d="M44.4463 123.218C44.6339 122.956 47.4243 126.699 50.6484 131.539C59.5153 144.85 61.0442 147.673 56.5166 142.377C53.9174 139.337 46.0435 127.817 44.8936 125.371C44.4613 124.452 44.2602 123.483 44.4463 123.218Z" fill="#FFA600" fill-opacity="0.1"/>
<path d="M60.4531 130.465C60.7852 130.003 67.459 139.18 69.0195 142.245C69.5836 143.353 69.9709 144.251 69.8809 144.241C69.7888 144.228 68.6424 143.101 67.332 141.732C64.8071 139.093 59.9644 131.161 60.4531 130.465Z" fill="#FFA600" fill-opacity="0.1"/>
<path d="M3.35645 129.24C8.92875 140.249 9.36804 141.224 9.15625 142.129C9.044 142.609 7.68865 140.731 6.14551 137.954C3.47474 133.149 1.38239 129.076 0 126.042V122.592C0.792063 124.163 2.07179 126.702 3.35645 129.24Z" fill="#FFA600" fill-opacity="0.1"/>
<path d="M0.587891 116.019C0.705917 115.148 2.01132 117.85 4.24219 123.582C6.15142 128.488 7.71387 132.674 7.71387 132.886C7.71367 134.054 6.659 132.925 5.50586 130.523C3.2231 125.766 0.396987 117.43 0.587891 116.019Z" fill="#FFA600" fill-opacity="0.1"/>
<path d="M33.1416 128.324C33.3261 128.063 34.3331 129.068 35.3799 130.559C37.6668 133.815 36.9641 134.207 34.5254 131.035C33.5803 129.806 32.9577 128.586 33.1416 128.324Z" fill="#FFA600" fill-opacity="0.1"/>
<path fill-rule="evenodd" clip-rule="evenodd" d="M15.6729 102.66C17.8038 99.0545 18.2187 100.621 16.1533 104.474L14.3379 107.861L16.5352 110.924L18.0078 108.445C19.0643 106.667 19.7379 106.108 20.3926 106.466C21.2102 106.913 21.165 107.132 19.96 108.578C18.4465 110.395 17.3618 113.06 17.8516 113.758C18.6098 114.838 19.6526 114.054 20.6455 111.657C21.7266 109.049 22.933 108.861 22.4717 111.373C22.2752 112.443 22.4939 112.756 23.4453 112.756C24.3626 112.756 24.7574 113.266 25.0029 114.771C25.1836 115.879 25.7005 117.203 26.1514 117.713C26.8438 118.497 26.8751 119.004 26.3516 120.98C25.5599 123.966 26.4144 125.617 27.5938 123.379C28.3522 121.94 28.3887 121.954 29.6152 124.112C31.2194 126.936 31.1928 127.165 29.2627 127.165C28.1831 127.165 26.8756 126.276 25.2744 124.454C23.9645 122.964 22.3161 120.851 21.6104 119.76C20.4296 117.934 20.398 117.719 21.2236 117.061C21.7171 116.667 22.1211 115.645 22.1211 114.789V113.233L20.9307 114.826C20.2756 115.702 19.5226 116.409 19.2578 116.397C18.9926 116.385 17.5174 114.591 15.9785 112.412C12.8596 107.997 12.8423 107.45 15.6729 102.66ZM24.8965 119.656C25.6136 116.995 24.4134 116.085 23.1182 118.307C22.5604 119.264 22.5713 119.576 23.1836 120.127C24.225 121.065 24.54 120.979 24.8965 119.656Z" fill="#FFA600" fill-opacity="0.1"/>
<path d="M41.4102 111.119C37.3316 102.44 36.4337 99.0227 39.7607 104.84C43.2157 110.881 49.1599 125.21 48.2109 125.211C48.0889 125.211 47.418 123.974 46.7197 122.463C46.0214 120.952 43.632 115.847 41.4102 111.119Z" fill="#FFA600" fill-opacity="0.1"/>
<path d="M7.8457 79.6076C9.18535 77.9027 9.87899 78.6501 9.12988 80.9914C8.62891 82.5569 8.66877 83.0261 9.36621 83.7521C9.82815 84.2332 10.2821 85.7502 10.375 87.1232C10.5039 89.03 10.8255 89.7129 11.7363 90.0158C12.8852 90.3979 12.8312 90.5852 10.2695 95.13C7.80222 99.5074 7.67709 99.9165 8.53223 100.807C9.03906 101.334 9.62822 101.766 9.84082 101.766C10.0546 101.764 11.3037 99.9902 12.6182 97.8224C14.4134 94.8617 15.2655 93.974 16.0361 94.2609C17.1784 94.6863 17.7583 96.1593 17.2471 97.3371C17.0207 97.858 16.6029 97.8705 15.9531 97.3752C15.159 96.7701 14.676 97.1719 13.1543 99.7033C12.1434 101.385 11.3162 103.031 11.3154 103.362C11.3154 104.364 9.9402 104.036 9.26172 102.872C8.87198 102.204 8.1714 101.942 7.4541 102.198C5.30688 102.966 5.54117 101.015 8.18359 96.1418C11.0567 90.8425 11.1239 90.6049 10.085 89.3771C9.51079 88.6986 8.8023 89.4363 6.50684 93.1056C4.93296 95.6214 3.48696 97.455 3.29297 97.1808C3.09946 96.9053 4.26566 94.3759 5.88379 91.5597C8.09863 87.705 8.74302 86.07 8.49219 84.9445C8.30888 84.1222 7.96769 83.4494 7.73438 83.4494C7.50026 83.4511 5.63836 86.2527 3.59668 89.6769C0.441144 94.9691 -0.0652172 96.1915 0.220703 97.8136C0.405917 98.8634 0.981388 99.8803 1.5 100.073C2.0186 100.267 2.70975 101.259 3.03613 102.279C3.59553 104.028 3.55765 104.108 2.375 103.686C1.56768 103.397 1.064 103.646 0 105.33V102.715L0.467773 101.939L0 101.336V93.3097C4.14888 85.7345 7.1377 80.5089 7.8457 79.6076Z" fill="#FFA600" fill-opacity="0.1"/>
<path d="M97 34.5334C66.4428 35.5814 33.0132 36.8811 19.8057 37.6183C16.3314 37.8122 14.643 37.6945 15.4316 37.3127C18.0437 36.0491 40.3243 34.9139 97 33.1916V34.5334Z" fill="#FFA600" fill-opacity="0.1"/>
<path d="M84.5664 7.45426C87.9263 1.37245 90.5861 -0.260543 97 0.0323802V1.0607C96.9113 1.05934 96.8217 1.05742 96.7314 1.05679C92.8293 1.02997 92.0621 1.25899 89.6182 3.18668C88.1116 4.375 86.4098 6.28623 85.8359 7.43375C84.4751 10.155 84.0169 14.8994 84.958 16.5246C85.6034 17.6386 85.5628 17.6704 84.5107 16.8722C83.4113 16.038 83.242 15.4424 83.1289 12.0158C83.0269 8.93775 73.331 9.94607 68.3291 13.5548C65.6584 15.4818 64.6048 17.3209 64.0674 20.9914C63.7186 23.373 63.1115 24.0168 62.5137 22.6398C62.0006 21.4577 57.2427 21.7984 55.165 23.1662L53.252 24.4259L60.9697 25.2033L53.7666 26.1906C47.5353 27.0446 42.5287 27.8968 33.6982 29.6056C31.8908 29.9554 31.7972 29.907 32.9268 29.2062C34.9263 27.9658 40.4881 26.4779 45.0186 25.9718C51.1839 25.2833 52.4795 24.8926 52.4795 23.7238C52.4797 22.0441 55.4746 20.3058 59.2285 19.8058C62.4532 19.3764 62.7932 19.161 63.8965 16.8527C64.551 15.4834 66.3494 13.3536 67.8926 12.1193C70.521 10.0171 71.1056 9.85515 77.1318 9.56949C83.2391 9.27998 83.6168 9.17315 84.5664 7.45426Z" fill="#FFA600" fill-opacity="0.1"/>
<path d="M97 29.4396C90.6083 29.4778 85.5381 29.3964 85.0635 29.13C84.5494 28.8404 89.9154 28.5796 96.9893 28.55C96.9928 28.5499 96.9964 28.549 97 28.549V29.4396Z" fill="#FFA600" fill-opacity="0.1"/>
<path d="M97 26.1964C89.195 26.3712 86.4404 26.2201 86.4404 25.6877C86.4409 25.1745 87.4189 24.9446 97 24.7814V26.1964Z" fill="#FFA600" fill-opacity="0.1"/>
<path d="M61.4424 24.9337C61.8778 23.9307 65.5222 23.334 68.1201 23.841C72.0582 24.6095 70.7854 25.5695 65.8281 25.5695C63.2654 25.5695 61.2922 25.2836 61.4424 24.9337Z" fill="#FFA600" fill-opacity="0.1"/>
<path d="M76.6641 23.3722C77.513 23.3723 78.208 23.7017 78.208 24.1046C78.2079 24.5075 77.5129 24.837 76.6641 24.8371C75.8151 24.8371 75.1203 24.5076 75.1201 24.1046C75.1201 23.7017 75.815 23.3722 76.6641 23.3722Z" fill="#FFA600" fill-opacity="0.1"/>
</svg>
