<svg width="731" height="359" viewBox="0 0 731 359" fill="none" xmlns="http://www.w3.org/2000/svg">
<path d="M14.5813 340.246C15.761 340.246 27.3582 348.737 37.9583 357H34.1019C29.5266 353.667 25.2401 350.609 22.6058 348.834C17.1213 345.138 12.5518 340.247 14.5813 340.246ZM27.7327 346.103C27.7331 344.76 29.3785 345.121 33.0325 347.267C34.8845 348.354 36.6831 349.244 37.0296 349.244C37.498 349.245 41.9592 352.618 47.4925 357H42.2874C34.2819 351.478 27.7327 346.574 27.7327 346.103ZM91.0921 348.252C90.2308 347.477 90.627 347.356 92.637 347.782C94.4676 348.17 102.024 353.336 106.576 357H103.108C98.688 354.003 92.6729 349.675 91.0921 348.252ZM0.52861 245.264C0.865163 245.264 4.74134 251.122 9.14189 258.281C13.5418 265.439 17.2987 271.093 17.4915 270.847C17.6821 270.597 15.5194 266.202 12.6849 261.079C8.72862 253.929 7.82203 251.687 8.78252 251.431C9.47146 251.248 10.5714 251.673 11.2259 252.376C13.0831 254.371 24.1742 273.418 31.3714 286.974C34.9551 293.723 38.0575 299.247 38.2688 299.254C39.0009 299.254 34.5762 289.603 31.6009 284.71C29.9447 281.986 27.2873 277.058 25.6956 273.759C24.1039 270.459 21.6506 265.572 20.2444 262.898C17.18 257.072 17.1038 256.262 19.6145 256.262C21.1166 256.262 22.4908 257.925 25.8577 263.816C29.4502 270.102 30.3644 271.166 31.304 270.158C32.2105 269.185 32.878 269.37 34.6878 271.102C35.9275 272.288 37.4477 273.258 38.0657 273.259C38.6836 273.259 40.9724 276.071 43.1517 279.508C51.1011 292.044 55.1727 298.127 55.6556 298.191C55.9262 298.224 56.286 295.076 56.4554 291.196C56.6631 286.437 57.1321 283.839 57.8948 283.214C59.5713 281.842 60.0695 282.017 62.1517 284.711C63.9136 286.991 64.0481 287.879 64.0481 297.209C64.0481 302.731 64.3566 307.25 64.7327 307.252C65.1092 307.251 65.9861 306.127 66.6819 304.753C67.3777 303.379 68.2234 302.254 68.5618 302.253C68.9001 302.253 71.3674 305.853 74.0452 310.252C76.7207 314.647 79.0371 318.243 79.1956 318.25C79.3505 318.25 78.9121 316.716 78.221 314.842C75.6811 307.95 79.3653 305.755 82.1185 312.52C82.9678 314.606 83.8738 315.804 84.1556 315.215C84.6502 314.181 88.4736 318.995 91.2825 324.188C92.008 325.53 92.7864 326.389 93.012 326.098C93.2372 325.806 91.681 322.59 89.553 318.953C85.8057 312.548 84.9608 310.252 86.3519 310.252C87.3454 310.252 96.7002 322.896 97.9017 325.862C99.3079 329.335 99.6522 328.509 98.7942 323.721C98.4032 321.537 98.0748 318.962 98.0647 318C98.0309 314.997 100.329 316.086 101.663 319.707C102.364 321.608 103.182 322.968 103.481 322.729C103.78 322.49 104.266 319.933 104.562 317.048C105.38 309.065 107.055 307.277 109.392 311.891C110.356 313.795 110.845 317.484 111.148 325.139L111.568 335.747L113.33 331.116C114.727 327.45 115.602 326.354 117.533 325.854C118.873 325.508 120.282 325.628 120.663 326.12C121.044 326.613 121.551 329.781 121.787 333.159C122.186 338.843 122.314 339.186 123.521 337.773C124.238 336.934 125.58 336.247 126.502 336.247C127.952 336.247 128.18 336.805 128.18 340.362C128.18 343.987 128.365 344.416 129.728 343.955C130.579 343.667 131.535 344.009 131.853 344.714C132.171 345.419 134.691 347.462 137.452 349.253C140.147 351 144.843 354.443 148.031 357H134.004C131.784 355.38 129.745 354.051 128.952 353.736C127.888 353.313 122.607 350.331 117.215 347.107C111.822 343.884 106.408 341.246 105.185 341.246C103.799 341.246 101.412 339.75 98.8479 337.274C93.6645 332.27 88.2993 329.463 87.0384 331.095C84.9893 333.745 78.1277 330.708 71.8538 324.372C68.5217 321.007 59.3416 314.058 55.4964 311.989C53.9803 311.174 51.1992 310.656 49.3157 310.839C45.9103 311.169 40.7926 309.243 34.844 305.394C30.7392 302.737 27.0926 302.062 24.1897 303.42C21.9204 304.482 21.1643 304.281 16.6761 301.422C10.0159 297.179 0.440757 285.566 0.811813 282.181C1.1461 279.131 3.40687 278.523 5.49931 280.92C6.72705 282.326 6.59382 281.752 4.93193 278.468C3.28749 275.219 2.97809 273.897 3.65556 273.021C4.33308 272.144 5.22595 272.699 7.33818 275.311C9.85076 278.417 9.69701 277.934 5.78056 270.443C1.8498 262.925 1.11439 260.261 2.96904 260.261C3.32296 260.261 6.10937 264.353 9.16142 269.353C12.2134 274.352 14.9073 278.188 15.1478 277.879C15.3868 277.567 12.0581 270.588 7.75029 262.368C0.346395 248.242 -0.910245 245.264 0.52861 245.264ZM189.653 108.621C192.589 106.098 194.324 105.227 195.59 105.638C196.574 105.957 201.019 109.889 205.469 114.374C209.919 118.859 215.472 124.232 217.81 126.313C220.147 128.395 223.973 132.232 226.31 134.842C228.647 137.451 233.515 142.033 237.127 145.024C240.739 148.016 246.302 153.769 249.49 157.808C255.069 164.878 255.419 165.147 258.888 165.059C264.686 164.91 266.619 166.582 272.4 176.743C278.273 187.066 285.166 200.053 287.396 204.997C288.402 207.227 293.796 212.449 304.906 221.945L320.962 235.669L333.939 237.842L346.916 240.015L351.71 246.071C354.347 249.402 363.052 258.481 371.054 266.246C381.743 276.618 386.766 280.857 389.985 282.222C392.394 283.243 397.147 285.495 400.547 287.224C403.947 288.953 409.511 291.716 412.91 293.364C417.761 295.716 420.007 297.522 423.341 301.746L427.591 307.13L437.249 303.863C442.561 302.066 450.928 298.874 455.841 296.771C465.959 292.438 466.747 292.489 472.897 297.853C478.057 302.353 491.49 311.251 493.125 311.253C496.249 311.253 525.664 325.433 534.756 331.321C537.436 333.057 542.932 336.856 546.969 339.765C551.005 342.673 555.177 345.375 556.241 345.769C557.303 346.162 558.768 347.161 559.497 347.988C560.697 349.35 561.835 348.875 571.474 342.99C577.332 339.414 584.731 335.196 587.917 333.618C591.25 331.968 598.23 326.851 604.355 321.568C615.181 312.231 626.204 305.617 635.02 303.171C637.773 302.407 641.58 299.853 647.272 294.951C651.813 291.04 659.354 284.968 664.029 281.459C673.517 274.336 702.267 255.917 712.219 250.585C719.211 246.839 724.65 245.831 725.283 248.164C725.582 249.271 725.035 249.434 722.661 248.943C719.95 248.383 719.029 248.86 713.093 253.897C704.679 261.038 697.478 265.482 693.898 265.744C690.695 265.978 689.171 266.912 676.778 276.232C660.651 288.36 661.401 287.588 650.507 303.271C638.918 319.955 637.632 321.606 637.097 320.486C636.815 319.892 639.042 315.548 642.045 310.832C645.05 306.115 647.186 302.255 646.791 302.255C646.393 302.261 642.453 307.208 638.032 313.253C630.936 322.954 627.327 326.341 627.326 323.299C627.327 322.775 630.109 318.649 633.508 314.13C639.335 306.385 640.533 304.255 639.064 304.255C638.713 304.265 632.524 312.247 625.304 322.001C609.693 343.092 608.254 345.512 615.35 338.741C618.665 335.578 625.766 330.899 626.269 331.547C626.956 332.437 611.063 347.244 609.419 347.246C608.417 347.246 608.117 346.832 608.515 345.997C608.842 345.31 607.651 346.242 605.867 348.069C600.796 353.262 600.802 354.459 605.883 351.752C607.95 350.651 607.524 352.943 605.187 355.502C604.867 355.852 604.399 356.372 603.831 357H589.084C591.952 353.288 595.672 348.355 600.217 342.224C609.601 329.567 617.278 318.756 617.283 318.193C617.282 315.306 612.885 320.895 595.741 345.582C592.259 350.596 589.096 354.953 587.48 357H578.693C584.704 348.012 590.239 339.459 590.239 338.889C590.237 338.299 585.92 339.895 584.032 341.184C583.38 341.628 581.734 342.308 580.373 342.694C578.751 343.156 577.164 344.718 575.763 347.231C574.454 349.58 572.371 353.074 569.957 357H566.153C566.687 356.138 567.205 355.296 567.703 354.478C569.414 351.666 569.905 350.245 569.165 350.244C568.685 350.245 566.46 353.071 563.779 357H549.687C559.564 350.54 560.037 349.692 557.283 348.798C553.903 347.7 541.671 340.78 535.318 336.371C528.028 331.313 517.521 325.927 500.952 318.757C493.751 315.64 486.475 311.927 484.784 310.507L481.711 307.925L483.819 311.165C486.476 315.252 486.499 316.485 483.894 315.203C480.56 313.563 477.427 310.239 477.427 308.341C477.427 306.041 475.674 304.1 470.665 300.853L466.61 298.222L466.581 300.488C466.564 301.735 466.057 303.88 465.45 305.255C464.021 308.489 464.021 309.325 465.45 308.615C466.757 307.966 467.099 310.742 465.836 311.753C464.648 312.704 464.921 315.252 466.211 315.253C467.87 315.253 469.961 322.215 469.062 324.743C468.669 325.848 466.739 329.512 464.774 332.887C462.808 336.261 461.2 339.415 461.2 339.895C461.2 340.374 461.967 341.387 462.906 342.146C464.476 343.415 464.767 343.264 466.575 340.24C467.656 338.434 469.235 335.36 470.085 333.409C471.557 330.031 472.87 329.062 473.366 330.987C473.491 331.475 472.157 334.752 470.401 338.27C468.019 343.037 467.398 345.056 467.957 346.205C469.299 348.958 470.733 347.853 473.418 341.997C476.069 336.216 478.198 334.542 478.199 338.239C478.199 339.334 476.971 342.31 475.472 344.852C473.33 348.483 472.937 349.77 473.635 350.859C475.159 353.235 476.515 352.406 478.587 347.831C480.919 342.683 482.49 340.719 483.158 342.118C483.413 342.65 482.498 345.422 481.126 348.278L478.631 353.472L480.347 355.269C484.23 359.338 481.324 359.293 476.345 355.207C474.31 353.537 472.063 352.409 471.353 352.701C470.52 353.042 468.332 351.28 465.195 347.739C462.519 344.719 460.041 342.248 459.688 342.247C457.872 342.247 458.408 338.759 460.865 334.594C465.839 326.162 467.597 319.664 463.041 326.551C461.816 328.403 459.95 331.231 458.896 332.834C457.842 334.437 457.075 336.31 457.192 336.998C457.596 339.38 454.932 338.229 450.882 334.272C448.644 332.086 444.406 328.884 441.464 327.158C437.038 324.562 434.579 322.031 427.215 312.498C417.59 300.036 417.053 299.614 402.603 293.124C397.786 290.961 393.092 288.564 392.172 287.798C391.252 287.032 389.172 286.092 387.55 285.708C385.873 285.311 382.206 282.783 379.051 279.849C368.012 269.581 350.621 251.1 349.981 248.957C349.621 247.752 348.465 245.73 347.413 244.465C345.761 242.477 344.832 242.205 340.571 242.465L335.64 242.767L337.378 244.738C339.17 246.771 339.668 249.706 338.393 250.726C336.874 251.941 330.551 266.585 330.954 267.954C331.641 270.269 332.453 268.9 336.373 258.813C339.991 249.506 342.207 246.787 342.207 251.657C342.207 252.973 342.729 254.309 343.367 254.626C344.004 254.943 344.526 255.835 344.526 256.609C344.526 257.384 345.048 258.578 345.685 259.263C346.322 259.947 346.844 261.551 346.844 262.826C346.844 264.101 347.192 265.422 347.617 265.762C348.042 266.102 348.389 267.876 348.389 269.705C348.389 272.143 348.902 273.465 350.309 274.658C351.364 275.553 352.463 277.517 352.75 279.022C353.3 281.905 356.392 288.757 358.195 291.09C358.78 291.847 359.071 293.236 358.84 294.177C358.6 295.157 359.452 297.903 360.84 300.614C363.401 305.617 363.355 307.802 360.752 304.755C359.897 303.754 359.063 303.118 358.9 303.344C358.736 303.57 357.538 306.663 356.237 310.217L353.87 316.68L358.2 321.893C360.58 324.76 365.199 328.965 368.462 331.238C371.726 333.511 378.274 339.116 383.013 343.692C387.752 348.269 394.156 354.07 397.245 356.584C397.413 356.721 397.579 356.86 397.745 357H391.793C391.693 356.915 391.591 356.832 391.492 356.745C389.929 355.37 388.441 354.245 388.185 354.245C388.03 354.247 388.363 355.337 388.997 357H385.867C385.818 356.884 385.769 356.766 385.718 356.646C382.801 349.84 375.948 341.327 370.273 337.461C364.659 333.637 357.279 326.619 352.62 320.677C348.309 315.177 344.462 312.362 334.131 307.152C327.374 303.745 324.13 301.359 318.038 295.32C307.979 285.348 303.122 281.225 299.113 279.255C295.175 277.319 280.479 263.063 281.82 262.48C282.335 262.258 285.789 264.817 289.495 268.166C293.201 271.515 299.711 276.499 303.96 279.241C308.21 281.983 315.165 287.613 319.414 291.752C323.664 295.891 328.705 300.013 330.617 300.911C337.01 303.914 349.531 311.382 350.948 313.037C352.634 315.008 352.758 314.805 355.755 305.172C357.702 298.913 357.897 295.256 356.283 295.256C355.922 295.257 354.82 297.844 353.833 301.005C352.846 304.167 351.574 307.402 351.005 308.194C348.798 311.27 349.096 307.981 351.774 299.702C354.89 290.069 355.026 289.258 353.513 289.258C352.931 289.259 351.565 291.91 350.479 295.151C348.557 300.887 347.206 303.057 346.293 301.876C346.048 301.555 347.151 297.27 348.744 292.353C352.485 280.809 351.573 278.086 347.486 288.598C344.745 295.645 342.981 298.144 342.981 294.979C342.981 294.275 344.198 290.414 345.685 286.398C347.172 282.382 348.389 278.458 348.389 277.678C348.389 274.492 346.686 276.636 344.353 282.759C342.991 286.333 341.429 289.257 340.883 289.258C339.408 289.258 339.597 288.342 343.055 278.794C347.028 267.822 346.095 264.869 341.91 275.173C340.345 279.028 338.753 282.431 338.371 282.737C336.568 284.18 337.215 280.966 340.338 272.986C342.216 268.188 343.753 263.812 343.753 263.262C343.753 260.71 342.045 262.747 340.19 267.512C339.066 270.398 337.438 274.06 336.572 275.648C335.219 278.128 335.122 278.971 335.891 281.605C336.981 285.343 336.008 286.995 334.221 284.439C332.893 282.54 329.073 270.858 329.073 268.694C329.073 268.041 328.551 266.946 327.913 266.262C327.276 265.577 326.754 264.233 326.754 263.274C326.754 262.316 326.059 260.388 325.209 258.99C324.359 257.592 323.663 255.337 323.663 253.979C323.663 252.621 323.142 250.949 322.505 250.265C321.86 249.571 321.351 247.414 321.358 245.394C321.369 242.635 321.555 242.125 322.145 243.266C322.815 244.561 323.079 244.497 324.085 242.788C325.138 241.002 325.117 240.748 323.877 240.152C323.122 239.79 322.2 239.861 321.826 240.309C321.05 241.241 320.657 240.982 309.991 232.52C305.658 229.082 301.761 226.269 301.332 226.269C300.904 226.271 301.362 229.083 302.348 232.518C303.335 235.954 304.563 241.086 305.077 243.922C305.592 246.757 308.921 256.644 312.476 265.892C316.03 275.136 318.776 282.91 318.579 283.172C317.874 284.084 316.053 280.627 312.044 270.761C309.81 265.262 308.18 261.801 308.422 263.07C308.762 264.852 308.568 265.307 307.571 265.066C306.109 264.712 302.081 255.378 299.356 246.027C293.551 226.113 289.993 215.385 288.207 212.422C287.097 210.58 285.583 207.88 284.841 206.423C283.821 204.417 283.492 204.198 283.489 205.522C283.486 206.485 283.177 207.272 282.802 207.272C282.069 207.271 277.514 200.862 275.996 197.695C275.199 196.031 275.07 195.999 275.031 197.461C274.955 200.284 284.881 232.034 290.484 246.894C294.406 257.297 294.986 259.724 293.378 259.03C291.742 258.324 287.61 247.263 281.138 226.269C274.552 204.902 273.51 201.85 273.02 202.484C272.306 203.411 278.085 222.962 284.598 241.651C287.208 249.141 286.94 252.087 284.147 246.624C280.921 240.315 272.018 211.404 269.567 199.274C268.733 195.15 267.632 189.883 267.118 187.57C266.297 183.869 266.352 183.126 267.58 181.369C268.929 179.442 268.922 179.26 267.37 176.011C264.468 169.934 263.135 168.957 258.588 169.571L254.51 170.123L248.328 161.787C244.024 155.983 239.977 151.764 235.002 147.892C231.072 144.833 222.901 137.233 216.844 131.003C200.611 114.305 195.316 109.291 193.912 109.291C193.22 109.292 190.84 111.055 188.622 113.211C186.405 115.367 183.285 117.667 181.69 118.321C180.094 118.976 177.397 120.528 175.698 121.771C173.998 123.014 170.454 125.47 167.824 127.229L163.041 130.427L158.785 128.691C155.098 127.187 154.354 127.144 153.211 128.371C151.709 129.983 149.444 136.182 149.697 137.991C149.885 139.346 146.452 147.73 141.968 156.864C139.548 161.794 139.074 163.538 139.465 166.07C139.858 168.61 139.448 170.091 137.287 173.986C135.824 176.622 133.527 181.351 132.182 184.496C129.814 190.036 129.785 190.248 131.256 191.267C132.61 192.204 133.032 191.66 135.139 186.26C137.279 180.773 138.995 179.213 138.995 182.753C138.995 183.499 139.43 184.301 139.961 184.533C140.577 184.803 139.877 186.464 138.03 189.118C136.436 191.407 135.132 193.723 135.132 194.264C135.133 194.804 137.132 196.556 139.575 198.155C142.018 199.755 150.052 206.286 157.428 212.667C168.643 222.37 171.317 224.269 173.763 224.27C177.405 224.27 182.99 229.019 186.295 234.927C189.829 241.244 188.626 242.486 184.143 237.147C178.773 230.754 176.866 229.269 174.03 229.269C172.327 229.268 170.013 227.857 166.668 224.78C163.985 222.312 160.097 219.049 158.028 217.531C155.959 216.013 151.173 212.189 147.395 209.033C143.616 205.878 138.702 202.111 136.476 200.661C129.142 195.887 121.667 189.995 117.956 186.064C114.47 182.372 108.698 179.275 105.384 179.32C103.936 179.34 103.923 179.425 105.191 180.67C106.322 181.781 107.097 184.276 106.312 184.276C106.179 184.27 102.617 179.986 98.3919 174.75C88.3857 162.351 81.8178 158.168 81.8177 164.192C81.8177 166.969 78.9121 169.279 75.4192 169.279C73.7892 169.279 72.631 169.649 72.846 170.1C73.0611 170.551 73.4021 172.093 73.6028 173.526C74.0432 176.667 81.2707 190.778 83.1292 192.126C84.2237 192.919 84.2801 193.345 83.4563 194.63C82.9025 195.494 82.6849 197.084 82.9651 198.227C83.3754 199.899 83.1301 200.273 81.6263 200.273C80.1689 200.274 78.2482 202.93 72.4075 213.021C68.3496 220.032 63.6065 228.468 61.8675 231.768L58.7054 237.767L60.389 239.438C61.3141 240.357 62.3249 240.906 62.636 240.658C63.1701 240.231 73.1583 220.816 78.6145 209.599C79.9981 206.754 81.5572 203.968 82.0794 203.407C83.4933 201.889 85.2045 203.701 84.7024 206.186C84.3847 207.758 84.7854 208.649 86.2601 209.648C87.352 210.389 88.8021 212.518 89.4817 214.381C90.2764 216.559 91.2666 217.767 92.2561 217.769C93.3037 217.77 93.8026 218.452 93.8196 219.905C93.8537 222.904 95.5884 225.269 97.7522 225.27C99.8018 225.27 99.9219 225.597 98.8333 228.229C98.2841 229.558 98.3892 230.394 99.219 231.285C99.8474 231.96 100.362 233.09 100.363 233.796C100.363 234.562 100.951 234.881 101.821 234.587C102.622 234.316 103.492 234.54 103.754 235.09C104.365 236.369 103.484 239.409 102.687 238.771C101.923 238.161 101.096 239.525 98.4476 245.766C97.2806 248.515 95.489 252.619 94.4661 254.885L92.6058 259.004L94.9632 260.268C96.2588 260.962 97.4417 261.358 97.5931 261.147C97.7429 260.936 99.4515 256.658 101.39 251.642C104.746 242.958 106.684 240.133 107.751 242.367C108.017 242.925 107.405 245.043 106.389 247.073C105.374 249.104 103.515 253.375 102.259 256.565C99.6044 263.309 98.9601 262.209 109.248 268.475C114.79 271.849 116.074 272.24 121.663 272.25C129.901 272.265 134.702 274.251 141.979 280.663C145.291 283.582 149.277 286.28 150.836 286.659C152.59 287.085 155.809 289.552 159.276 293.129C165.995 300.061 184.401 312.725 189.097 313.647C193.456 314.503 197.529 317.247 203.868 323.6C206.695 326.432 212.614 332.349 217.02 336.748C221.426 341.147 226.569 346.447 228.448 348.525C229.81 350.033 234.243 353.298 239.694 357H231.908C231.098 356.237 230.248 355.432 229.358 354.582C223.644 349.124 215.501 341.549 211.262 337.748C207.023 333.947 202.242 329.302 200.638 327.427C196.329 322.389 197.096 325.015 201.97 331.984C206.041 337.805 207.078 340.246 205.48 340.246C205.072 340.245 203.282 338.452 201.501 336.26C198.641 332.74 198.156 332.462 197.351 333.887C196.638 335.148 196.101 335.266 194.888 334.426C193.056 333.156 188.938 327.123 185.888 321.239C184.692 318.933 183.519 317.297 183.281 317.605C183.043 317.915 183.761 319.57 184.875 321.284C185.99 322.999 186.903 325.042 186.904 325.825C186.904 327.722 185.024 327.638 183.772 325.686C182.865 324.273 182.705 324.272 182.097 325.681C181.091 328.007 179.07 325.937 171.819 315.15C168.428 310.108 163.047 303.402 159.86 300.248C156.673 297.095 153.409 293.565 152.607 292.405C151.805 291.246 149.892 290.009 148.357 289.657C146.821 289.305 143.439 287.303 140.84 285.208C136.534 281.736 133.598 279.857 128.18 277.104L126.248 276.123L128.286 278.94C130.666 282.231 131.684 285.809 130.508 286.75C130.054 287.113 127.405 285.791 124.622 283.812C121.84 281.833 117.59 279.139 115.179 277.826C112.767 276.513 105.772 272.437 99.6341 268.768C93.4955 265.098 83.2381 259.394 76.8401 256.091C70.4421 252.788 62.4253 247.951 59.0257 245.342C48.3283 237.132 47.1432 236.364 42.6009 234.706C40.1607 233.815 36.4367 232.453 34.3255 231.678C29.335 229.846 25.0787 229.883 23.8694 231.769C22.5491 233.827 19.6089 233.649 13.7591 231.156C11.033 229.995 7.23787 228.751 5.32549 228.394C2.9879 227.957 1.84795 227.257 1.84795 226.257C1.84806 225.051 2.9278 224.819 7.56181 225.034C12.7474 225.275 13.3884 225.09 14.4886 223.035C15.1554 221.79 18.8438 216.271 22.6849 210.772C29.2894 201.317 36.2317 190.2 36.2317 189.08C36.2302 188.8 34.4652 189.163 32.3079 189.887C29.1539 190.945 27.0674 192.765 21.6829 199.157C17.998 203.532 13.2576 209.396 11.1487 212.19C7.44161 217.102 5.32549 218.525 5.32549 216.104C5.32589 214.821 12.0771 206.009 20.222 196.661L25.4603 190.649L22.5394 188.002C14.837 181.02 12.1104 180.831 5.39287 186.811C0.84973 190.854 -0.283281 191.115 0.055954 188.037C0.374951 185.146 9.59189 178.123 13.2435 177.988C14.955 177.926 17.0064 178.951 19.3606 181.047C21.3086 182.781 24.3858 184.862 26.1985 185.67C29.003 186.92 29.7372 186.935 31.1243 185.769C33.6089 183.68 43.9523 178.513 47.9974 177.34C52.0822 176.155 57.5705 172.21 63.3343 166.314C67.7121 161.837 68.5157 161.6 71.8206 163.812C74.4596 165.577 75.6519 165.011 79.0667 160.368C83.1599 154.803 86.727 156.389 97.2347 168.447C99.5495 171.104 101.864 173.278 102.38 173.279C103.394 173.279 111.953 167.171 118.381 161.86C120.583 160.041 124.471 157.181 127.021 155.506C130.666 153.11 133.792 149.502 141.645 138.624C147.137 131.017 152.283 124.375 153.084 123.861C154.083 123.223 155.728 123.488 158.352 124.709L162.166 126.483L168.136 121.887C171.418 119.36 174.559 117.292 175.118 117.29C176.972 117.29 185.446 112.235 189.653 108.621ZM187.099 242.678C187.383 242.314 193.104 248.717 199.814 256.907C206.524 265.098 213.849 273.524 216.091 275.633C218.333 277.74 222.113 282.456 224.49 286.11C226.866 289.765 231.254 295.363 234.241 298.551C237.227 301.738 240.707 306.012 241.973 308.049C244.47 312.067 252.58 332.65 252.58 334.969C252.581 335.753 255.3 340.073 258.623 344.568C263.147 350.688 265.793 354.741 266.722 357H264.842C263.275 355.219 260.999 352.391 258.544 349.133C254.196 343.362 249.885 336.64 248.963 334.194C248.042 331.749 246.238 326.823 244.955 323.249C241.586 313.86 238.469 308.187 234.008 303.319C231.85 300.965 229.942 299.224 229.765 299.449C229.59 299.677 230.815 302.313 232.489 305.307C235.38 310.481 236.278 313.302 235.002 313.209C234.682 313.181 232.162 309.273 229.401 304.519C226.638 299.762 222.716 293.398 220.686 290.376C218.655 287.354 216.789 283.82 216.537 282.523C216.124 280.393 208.59 271.864 207.903 272.748C207.407 273.391 212.135 281.612 215.098 285.257C219.447 290.608 231.978 311.237 231.367 312.04C231.067 312.427 229.592 310.946 228.089 308.749C221.37 298.925 212.824 287.376 212.542 287.741C211.852 288.639 219.982 301.414 229.594 314.536C231.187 316.712 232.491 319.122 232.492 319.894C232.492 322.251 229.32 318.935 223.46 310.449C215.922 299.533 213.425 295.176 211.671 289.882C210.826 287.33 208.727 282.56 207.006 279.282C205.286 276.004 203.75 271.898 203.593 270.158C203.37 267.677 201.827 265.218 196.44 258.758C189.924 250.944 185.971 244.138 187.099 242.678ZM269.577 336.78C269.579 335.266 279.815 348.708 285.119 357H282.308C280.446 354.026 278.581 351.137 276.799 348.49C272.828 342.592 269.577 337.322 269.577 336.78ZM282.671 348.779C283.057 348.47 284.213 349.236 285.239 350.481C286.419 351.915 288.048 354.196 289.924 357H286.877C284.153 352.506 282.356 349.036 282.671 348.779ZM299.906 351.251C300.388 351.254 301.752 353.132 304.068 357H301.03C298.82 352.878 298.552 351.243 299.906 351.251ZM332.35 357C325.113 346.025 321.156 338.739 323.659 340.74C324.081 341.077 327.457 345.941 331.161 351.548C332.266 353.22 333.528 355.091 334.831 357H332.35ZM338.726 357C330.988 344.743 331.814 346.011 333.326 346.388C334.046 346.567 337.196 351.034 341.044 357H338.726ZM381.631 354.245C382.171 354.245 383.221 355.364 384.32 357H381.689C381.057 355.361 380.963 354.245 381.631 354.245ZM366.297 276.751C366.695 276.236 378.766 294.132 393.614 317.25C402.731 331.445 411.819 345.19 419.875 357H417.731C408.852 343.78 397.355 326.216 382.872 303.753C367.753 280.302 365.894 277.274 366.297 276.751ZM377.467 286.256C375.963 282.478 389.428 301.951 405.033 326.123C411.737 336.506 419.743 348.445 425.697 357H423.302C407.788 334.739 379.491 291.339 377.467 286.256ZM438.312 345.245C438.472 345.246 441.577 348.283 445.212 351.994C446.448 353.256 448.256 355.004 450.368 357H447.329C440.576 350.212 436.666 345.246 438.312 345.245ZM492.538 353.244C494.283 353.244 494.509 354.802 493.27 357H489.755C490.412 355.121 491.631 353.245 492.538 353.244ZM484.839 323.249C485.816 323.252 493.654 332.559 493.655 333.717C493.655 335.854 502.232 345.559 511.204 353.574C512.537 354.765 513.817 355.929 514.977 357H511.227C504.788 351.493 499.697 345.782 492.302 335.928C485.28 326.571 483.326 323.249 484.839 323.249ZM509.88 346.687C509.88 344.804 510.657 344.867 512.992 346.942C514.558 348.333 519.054 353.063 522.658 357H518.983C513.996 352.497 509.88 347.917 509.88 346.687ZM572.334 357C579.638 346.691 582.517 343.323 582.508 344.986C582.502 345.995 579.786 350.778 575.833 357H572.334ZM658.337 357C666.78 346.075 669.051 343.861 669.051 346.126C669.051 346.612 666.982 349.874 664.452 353.375C663.535 354.644 662.715 355.886 662.042 357H658.337ZM693.804 347.245C695.274 347.245 694.474 348.86 689.334 356.271C689.17 356.508 689.004 356.752 688.833 357H685.655C690.803 349.46 692.812 347.246 693.804 347.245ZM703.874 343.245C704.695 343.245 705.367 343.526 705.367 343.868C705.367 344.211 703.211 347.472 700.575 351.116C699.674 352.363 698.276 354.41 696.54 357H693.402C701.314 345.138 702.949 343.246 703.874 343.245ZM715.051 336.424C717.407 335.752 716.012 339.177 710.969 346.44C708.741 349.65 706.314 353.227 703.793 357H700.628C708.447 345.388 714.578 336.561 715.051 336.424ZM720.875 342.246C722.615 342.246 721.168 345.114 715.133 353.628C714.338 354.75 713.546 355.875 712.758 357H709.622C716.786 346.937 720.37 342.249 720.875 342.246ZM717.114 357C725.545 345.069 728.547 342.101 728.547 345.335C728.547 345.934 725.488 350.546 721.749 355.583C721.412 356.037 721.065 356.51 720.707 357H717.114ZM723.43 357C729.577 348.14 730.866 347.368 730.866 350.143C730.866 350.951 729.355 353.736 727.211 357H723.43ZM487.536 347.245C489.544 347.245 489.399 348.909 487.047 352.899C485.121 356.167 482.837 357.367 482.837 355.111C482.837 352.719 486.107 347.246 487.536 347.245ZM627.078 312.596C626.55 311.913 624.746 314.24 607.238 338.194C600.651 347.206 595.96 354.096 596.812 353.507C597.665 352.915 602.19 347.329 606.867 341.091C623.597 318.781 627.551 313.207 627.078 312.596ZM69.096 333.247C70.6712 333.249 82.894 341.345 86.4593 344.748C90.7904 348.883 87.371 347.488 77.8235 341.226C68.9408 335.399 66.5887 333.247 69.096 333.247ZM646.644 339.858C646.645 337.326 659.918 324.102 661.026 325.529C661.242 325.809 659.398 328.055 656.929 330.521C654.459 332.986 651.747 336 650.902 337.218C648.675 340.427 646.644 341.686 646.644 339.858ZM125.089 288.034C125.09 283.851 143.541 308.701 147.895 318.75C149.086 321.499 151.337 325.773 152.897 328.248C156.885 334.575 158.508 337.995 158.161 339.342C157.997 339.979 156.214 338.129 154.2 335.23C152.185 332.331 148.551 326.087 146.122 321.355C143.694 316.623 137.969 307.381 133.399 300.817C128.829 294.254 125.089 288.501 125.089 288.034ZM314.277 331.247C314.969 331.247 316.918 334.314 318.563 337.995C319.723 340.591 318.296 339.095 315.94 335.246C314.594 333.048 313.846 331.249 314.277 331.247ZM118.736 331.248C118.406 331.248 118.135 331.642 118.135 332.123C118.135 332.605 117.918 334.404 117.653 336.122C117.364 337.987 117.487 339.245 117.957 339.246C118.391 339.246 118.878 337.447 119.04 335.247C119.203 333.048 119.063 331.249 118.736 331.248ZM420.424 311.699C420.732 311.297 422.919 312.944 425.284 315.358C427.65 317.773 432.614 322.605 436.315 326.097C440.016 329.588 443.322 333.075 443.662 333.846C444.865 336.571 442.094 335.255 436.265 330.331C429.777 324.85 419.559 312.832 420.424 311.699ZM602.602 329.951C602.602 328.61 600.361 331.179 599.364 333.665C598.618 335.523 598.748 335.486 600.565 333.323C601.685 331.99 602.602 330.473 602.602 329.951ZM715.411 289.234C717.224 288.008 717.272 288.038 716.203 289.714C715.576 290.697 711.926 294.773 708.091 298.772C704.256 302.772 699.379 308.456 697.254 311.402C693.267 316.931 678.625 334.246 677.938 334.246C677.725 334.245 677.551 333.974 677.551 333.644C677.552 333.311 682.849 326.28 689.323 318.018C700.333 303.965 710.944 292.258 715.411 289.234ZM457.092 324.596C456.761 324.171 452.704 330.72 452.702 331.681C452.702 333.393 454.308 331.78 455.748 328.622C456.657 326.629 457.262 324.817 457.092 324.596ZM458.823 329.248C459.69 326.891 459.673 326.86 458.54 328.689C457.88 329.757 457.339 331.069 457.339 331.605C457.339 332.876 457.696 332.308 458.823 329.248ZM218.137 309.494C218.669 308.806 233.64 327.579 234.888 330.497C235.852 332.754 234.425 332.723 231.562 330.424C227.791 327.396 217.139 310.79 218.137 309.494ZM107.877 323.999C107.706 322.212 107.566 323.674 107.566 327.248C107.566 330.822 107.706 332.285 107.877 330.498C108.049 328.711 108.049 325.786 107.877 323.999ZM33.0042 315.509C33.566 315.248 36.174 316.013 38.7991 317.209C45.435 320.232 60.9567 329.518 60.9573 330.466C60.9571 331.588 58.5011 331.373 56.8118 330.103C56.0185 329.506 52.1943 327.321 48.3128 325.247C36.6507 319.014 31.9275 316.01 33.0042 315.509ZM457.486 314.251C456.792 314.257 448.927 326.791 448.308 328.878C447.653 331.087 449.886 330.388 451.221 327.967C454.396 322.207 458.03 314.251 457.486 314.251ZM119.416 295.254C123.532 295.254 147.855 327.117 145.784 329.796C145.629 329.994 141.88 325.162 137.452 319.057C133.024 312.95 126.866 305.529 123.768 302.564C118.146 297.185 116.997 295.254 119.416 295.254ZM676.061 289.255C677.893 289.255 676.211 292.303 669.223 301.647C661.792 311.585 655.98 319.79 651.929 326.064C649.74 329.454 648.189 330.174 648.189 327.799C648.189 326.204 674.904 289.261 676.061 289.255ZM449.182 312.66C458.577 296.436 454.775 299.195 443.957 316.451L440.385 322.15L442.873 324.72L445.363 327.29L447.89 323.579C449.28 321.538 452.158 316.32 454.285 311.984C459.266 301.834 458.141 302.817 451.115 314.756C448.042 319.977 445.249 324.249 444.91 324.249C443.041 324.248 444.038 321.543 449.182 312.66ZM174.968 264.262C175.827 264.264 189.123 277.899 193.18 282.938C194.72 284.85 196.34 287.39 196.781 288.584C197.221 289.778 198.297 292.779 199.172 295.254C200.889 300.109 210.26 311.843 209.529 308.221C208.715 304.197 211.378 306.443 218.39 315.695C224.894 324.278 226.581 327.247 224.951 327.247C224.627 327.244 221.334 323.705 217.631 319.379C213.696 314.781 209.959 311.268 208.641 310.927C204.836 309.942 197.704 300.425 194.356 291.867C191.896 285.578 190.348 283.136 185.47 277.847C178.776 270.588 173.885 264.261 174.968 264.262ZM163.641 307.816C164.382 307.225 176.858 323.739 176.859 325.313C176.859 327.624 174.601 325.738 169.858 319.465C164.387 312.229 162.513 308.719 163.641 307.816ZM6.87041 307.163C6.87048 305.945 9.11558 306.707 13.052 309.263C14.5395 310.228 21.4305 313.99 28.3655 317.622C43.0022 325.287 44.4552 326.217 41.6409 326.119C40.5776 326.082 33.7974 323.032 26.5735 319.343C12.0023 311.901 6.87097 308.729 6.87041 307.163ZM667.648 291.843C669.354 289.375 670.549 288.346 670.887 289.053C671.492 290.319 669.677 293.107 655.625 312.5C646.206 325.499 644.325 327.618 644.325 325.234C644.327 324.676 648.966 317.815 654.635 309.987C660.305 302.159 666.16 293.994 667.648 291.843ZM362.769 315.249C363.887 315.249 364.188 317.929 363.376 320.666C362.716 322.891 360.755 322.64 360.755 320.33C360.755 317.351 361.588 315.25 362.769 315.249ZM662.62 290.254C662.758 290.254 662.869 290.911 662.869 291.714C662.867 293.694 643.623 321.245 642.241 321.248C641.571 321.248 641.368 320.761 641.721 319.998C642.411 318.504 662.243 290.28 662.62 290.254ZM177.945 319C179.328 321.114 179.95 321.704 179.95 320.904C179.948 320.713 179.166 319.702 178.211 318.655L176.472 316.751L177.945 319ZM360.594 308.486C361.948 307.903 361.742 310.437 360.01 315.666C358.485 320.271 358.062 320.889 357.394 319.491C356.828 318.304 359.552 308.937 360.594 308.486ZM443.242 312.259C447.747 304.134 447.968 301.189 443.544 308.248C441.995 310.72 439.768 314.02 438.596 315.581C436.563 318.289 436.387 320.787 438.286 319.971C438.778 319.759 441.009 316.288 443.242 312.259ZM685.349 285.205C688.833 282.793 686.178 287.166 674.711 302.729C663.232 318.31 660.552 321.434 660.552 319.231C660.553 317.955 683.47 286.507 685.349 285.205ZM437.828 311.743C440.376 306.669 439.963 306.346 436.509 310.711C434.827 312.836 433.622 314.932 433.829 315.369C434.482 316.736 436.024 315.338 437.828 311.743ZM173.961 312.124C172.736 310.881 172.708 310.916 173.669 312.501C174.679 314.166 175.313 314.696 175.313 313.873C175.312 313.665 174.704 312.878 173.961 312.124ZM692.711 283.596C694.17 282.156 695.599 281.281 695.886 281.651C696.17 282.025 691.38 288.865 685.241 296.853C674.574 310.729 670.307 315.529 671.889 311.87C673.001 309.301 689.854 286.416 692.711 283.596ZM433.07 309.509C432.534 308.816 431.068 310.225 431.068 311.433C431.068 312.095 431.511 312.02 432.245 311.231C432.893 310.536 433.264 309.76 433.07 309.509ZM71.7659 286.256C73.6781 286.256 92.2096 309.402 91.7464 311.211C91.5477 311.982 88.8189 309.309 84.8792 304.481C81.2841 300.076 76.5176 294.613 74.2864 292.341C69.9749 287.95 69.2734 286.256 71.7659 286.256ZM713.781 275.267C718.274 271.247 716.121 274.441 707.298 284.884C698.096 295.775 689.914 306.801 689.913 308.31C689.913 308.828 689.218 309.252 688.368 309.252C687.519 309.252 686.823 308.8 686.823 308.249C686.826 306.695 709.068 279.482 713.781 275.267ZM271.129 273.009C271.118 271.263 273.479 272.46 274.759 274.851C277.229 279.462 280.351 283.786 280.374 282.629C280.385 282.009 279.856 280.921 279.196 280.212C278.535 279.502 277.658 278.107 277.246 277.112C275.42 272.695 279.41 277.312 290.014 291.884C299.442 304.84 302.343 309.393 301.066 309.227C300.952 309.202 297.565 305.177 293.533 300.271C289.496 295.36 285.587 291.323 284.848 291.299C282.154 291.211 271.148 276.537 271.129 273.009ZM705.451 277.258C706.031 277.259 701.125 284.232 694.549 292.755C687.972 301.278 682.066 308.244 681.423 308.234C680.784 308.22 685.689 301.249 692.325 292.737C698.963 284.225 704.869 277.26 705.451 277.258ZM94.9554 277.594C94.9554 275.489 97.1828 277.383 105.641 286.681C109.181 290.571 113.527 295.236 115.299 297.047C119.999 301.849 122.771 305.294 122.772 306.337C122.772 308.472 120.507 306.869 115.431 301.141C112.456 297.783 106.632 291.464 102.489 287.098C98.3453 282.732 94.9554 278.455 94.9554 277.594ZM72.3675 276.258C72.9233 276.264 86.6471 294.056 92.6116 302.503C96.996 308.712 93.7869 306.724 87.7728 299.504C76.4997 285.971 70.064 276.259 72.3675 276.258ZM60.264 290.197C59.6778 288.299 59.4993 289.57 59.4612 295.923C59.3971 306.667 60.499 310.199 60.7942 300.195C60.9168 296.039 60.6782 291.54 60.264 290.197ZM30.302 272.259C29.8256 272.26 30.4881 273.553 38.1282 287.525C45.2249 300.504 47.8899 303.994 42.7571 293.588C39.7216 287.434 30.8601 272.259 30.302 272.259ZM48.9339 296.135C47.1813 291.749 42.2927 283.084 41.8743 283.621C41.5511 284.043 49.3879 299.247 49.9319 299.254C50.0681 299.254 49.6197 297.85 48.9339 296.135ZM600.047 290.256C601.954 290.256 607.395 295.113 606.825 296.308C606.577 296.828 606.307 297.229 606.226 297.198C606.14 297.165 604.511 296.321 602.602 295.321C599.028 293.449 597.418 290.256 600.047 290.256ZM29.3157 290.825C26.0613 284.704 25.6088 285.009 28.6028 291.306C29.9227 294.081 31.1697 296.137 31.3743 295.875C31.5781 295.611 30.652 293.338 29.3157 290.825ZM504.048 280.841C502.18 277.623 502.058 277.121 503.365 278.026C506.887 280.466 513.27 291.243 512.076 292.735C511.931 292.916 510.576 291.194 509.067 288.91C507.557 286.626 505.299 282.994 504.048 280.841ZM380.777 172.608C382.174 172.138 386.052 174.179 396.297 180.774L409.956 189.567L414.867 187.422C417.568 186.242 420.503 185.276 421.389 185.275C423.328 185.275 437.657 192.836 443.944 197.177C446.425 198.89 450.85 202.763 453.777 205.784C461.299 213.548 463.206 214.902 469.317 216.816C472.291 217.748 476.77 219.799 479.269 221.374C484.714 224.806 501.215 238.253 505.852 243.037C508.406 245.672 509.399 246.196 510.204 245.332C511.62 243.812 522.23 241.264 527.143 241.265C530.443 241.265 531.998 241.956 536.154 245.264C538.914 247.461 541.441 249.261 541.771 249.263C542.098 249.263 547.408 246.308 553.569 242.696L564.771 236.129L576.539 243.077C589.987 251.017 592.789 252.546 604.534 258.347C623.93 267.926 654.354 285.603 653.458 286.772C653.291 286.988 651.776 286.531 650.093 285.755C648.41 284.979 646.561 284.325 645.985 284.301C645.407 284.274 638.105 280.49 629.758 275.888C612.615 266.435 603.543 262.193 599.346 261.667C597.633 261.452 594.952 259.89 592.7 257.797C590.623 255.866 586.892 253.083 584.408 251.612C581.925 250.141 578.31 247.683 576.374 246.149C574.439 244.616 571.003 242.432 568.741 241.298L564.626 239.235L557.151 248.496C548.951 258.654 548.208 259.805 548.907 261.269C549.787 263.112 550.792 262.281 557.968 253.763C561.905 249.09 565.386 245.266 565.707 245.264C567.249 245.264 565.696 247.653 558.893 255.749C552.401 263.475 551.636 264.727 552.629 266.013C553.622 267.298 554.536 266.609 560.117 260.369C566.153 253.62 568.657 251.615 567.291 254.624C566.951 255.373 564.587 258.224 562.037 260.959C555.677 267.781 555.035 268.875 556.262 270.789C557.111 272.113 558.063 271.286 563.345 264.635C568.134 258.605 569.647 257.215 570.378 258.174C571.106 259.129 571.045 259.654 570.099 260.578C565.868 264.709 559.334 272.765 559.333 273.85C559.333 276.969 561.158 275.882 566.151 269.788C571.029 263.833 573.254 262.018 573.234 264.011C573.228 264.425 570.774 267.628 567.779 271.13L562.33 277.5L563.923 279.693C564.799 280.899 565.515 282.419 565.515 283.071C565.515 284.807 563.155 284.517 561.499 282.578C560.143 280.99 559.905 281.106 557.01 284.764C553.001 289.83 552.155 288.537 555.757 282.849C557.447 280.181 558.256 278.133 557.775 277.747C556.913 277.059 552.961 281.149 548.442 287.407C545.768 291.109 543.878 292.306 543.878 290.299C543.878 289.772 546.522 286.041 549.752 282.007C554.897 275.582 555.476 274.511 554.415 273.372C553.374 272.255 552.313 273.17 546.861 279.891C538.554 290.129 537.698 287.816 545.862 277.19C550.852 270.695 551.657 269.223 550.526 268.661C549.513 268.159 547.892 269.606 544.281 274.237C537.584 282.826 536.317 281.429 542.705 272.501C545.537 268.544 547.634 264.846 547.366 264.283C546.473 262.414 544.717 263.225 542.947 266.324C541.005 269.722 536.346 273.844 535.575 272.847C535.305 272.493 537.133 269.522 539.641 266.243C542.986 261.869 543.973 259.984 543.343 259.169C542.713 258.354 540.559 260.128 535.261 265.827C531.289 270.101 526.568 275.406 524.771 277.615C522.974 279.825 521.316 281.391 521.088 281.096C520.861 280.799 523.89 276.554 527.82 271.66C540.557 255.798 541.243 254.807 539.742 254.433C537.762 253.939 535.431 256.237 526.162 267.824C521.572 273.563 517.611 278.258 517.361 278.258C516.65 278.256 513.1 273.437 512.19 271.237C511.532 269.648 511.616 269.26 512.617 269.26C513.302 269.259 517.051 265.462 520.95 260.823C529.782 250.312 532.071 248.002 532.584 249.076C532.806 249.544 529.006 254.517 524.139 260.13C517.388 267.916 515.289 270.921 515.289 272.798C515.289 274.151 515.647 275.257 516.084 275.258C517.279 275.254 536.918 251.959 536.923 250.539C536.925 248.818 532.813 246.264 530.041 246.264C528.223 246.264 526.323 247.919 521.31 253.871C517.786 258.055 513.794 262.968 512.438 264.789L509.973 268.1L506.98 262.931C502.908 255.897 502.289 254.305 504.759 257.218L506.841 259.673L515.675 248.03L512.181 248.597C508.187 249.244 507.982 249.112 494.277 237.123C481.989 226.374 477.729 223.52 472.299 222.396C466.106 221.115 461.165 217.786 455.15 210.841C449.675 204.519 444.82 200.273 443.069 200.272C442.427 200.272 438.963 198.698 435.37 196.773C431.779 194.85 428.485 193.275 428.049 193.273C427.18 193.279 410.965 216.823 411.003 218.024C411.037 219.093 413.23 222.702 413.535 222.195C420.837 210.002 426.225 201.39 427.403 200.027C429.414 197.701 430.455 198.722 429.33 201.917C428.578 204.053 428.639 204.694 429.686 205.685C430.379 206.341 431.061 208.411 431.2 210.284C431.394 212.886 431.877 213.819 433.244 214.232C434.97 214.754 434.89 215.009 431.043 221.211C427.339 227.184 427.15 227.742 428.434 228.957C429.195 229.677 430.079 230.266 430.399 230.267C430.719 230.265 432.595 227.844 434.57 224.885C437.265 220.845 438.545 219.633 439.702 220.024C441.417 220.605 442.288 222.616 441.521 224.223C441.181 224.934 440.553 224.95 439.577 224.274C438.385 223.449 437.66 223.997 435.375 227.451C433.856 229.747 432.614 231.995 432.614 232.446C432.613 233.813 430.547 233.364 429.529 231.776C428.943 230.864 427.891 230.508 426.814 230.857C423.59 231.904 423.943 229.243 427.91 222.593C432.225 215.361 432.326 215.035 430.766 213.359C429.904 212.434 428.839 213.442 425.392 218.449C423.028 221.883 420.856 224.385 420.566 224.01C420.276 223.633 422.027 220.181 424.456 216.339C427.782 211.078 428.75 208.848 428.373 207.312C428.098 206.189 427.586 205.271 427.236 205.271C426.883 205.276 424.088 209.098 421.023 213.77C416.284 220.991 415.523 222.66 415.952 224.873C416.23 226.305 417.095 227.693 417.873 227.957C418.652 228.221 419.691 229.576 420.181 230.968C421.021 233.353 420.964 233.463 419.188 232.887C417.583 232.366 416.777 233.128 413.762 238.02C411.814 241.179 409.172 245.676 407.89 248.013C405.611 252.168 403.251 253.629 403.251 250.885C403.251 250.127 402.748 248.967 402.134 248.308C401.215 247.321 400.518 248.007 398.199 252.185C395.513 257.022 393.98 258.489 393.98 256.22C393.98 254.956 397.059 249.374 404.991 236.259C410.998 226.325 411.942 223.683 409.856 222.647C408.691 222.071 406.476 224.949 400.16 235.248C389.92 251.947 386.727 256.792 385.767 257.085C383.916 257.649 384.573 256.207 390.527 246.629L396.345 237.268L392.888 231.217L390.764 233.991C389.595 235.517 386.103 241.004 383.003 246.185C377.836 254.821 375.436 257.796 375.436 255.566C375.436 255.092 378.733 249.318 382.764 242.735C386.795 236.153 390.098 229.824 390.105 228.672C390.11 227.52 389.476 225.828 388.694 224.911C387.339 223.325 386.816 223.917 377.816 237.254C372.616 244.959 368.041 251.263 367.649 251.263C365.917 251.263 366.573 250.156 380.954 228.826C385.672 221.829 386.016 221.014 385.204 218.749C384.719 217.394 384.008 216.282 383.624 216.277C382.797 216.269 377.137 223.678 369.5 234.766C366.471 239.164 363.769 242.477 363.493 242.131C362.873 241.339 369.995 230.187 377.456 220.269L383.098 212.77L381.644 210.296L380.19 207.821L368.834 222.591C362.589 230.714 357.282 237.103 357.04 236.791C356.558 236.164 359.298 232.249 371.838 215.646C378.781 206.453 380.147 204.153 379.712 202.382L379.187 200.239L376.788 202.449C375.469 203.665 371.061 208.733 366.992 213.713C362.924 218.693 358.748 223.668 357.711 224.768L355.826 226.768L357.516 223.617C358.445 221.885 363.706 214.988 369.205 208.292C375.622 200.48 379.053 195.608 378.783 194.695C378.55 193.914 378.083 193.274 377.742 193.273C376.404 193.277 352.132 220.47 344.008 231.067C342.66 232.826 341.096 234.246 340.532 234.223C339.072 234.158 357.204 211.689 368.737 199.272C377.531 189.804 380.414 185.385 378.995 183.55C377.997 182.264 360.356 201.037 340.841 224.152C336.476 229.323 332.724 233.322 332.505 233.039C331.251 231.407 377.765 178.317 380.478 178.284C380.938 178.28 381.148 179.957 380.977 182.275C380.783 184.904 380.994 186.274 381.597 186.274C382.203 186.274 382.348 187.246 382.025 189.147C381.664 191.272 381.861 192.181 382.783 192.639C383.918 193.202 383.922 193.46 382.824 195.488C381.264 198.37 381.287 200.894 382.88 201.686C384.032 202.258 384.022 202.489 382.761 204.292C381.431 206.194 381.431 206.349 382.778 208.271C383.547 209.37 384.685 210.27 385.306 210.271C386.074 210.271 386.299 210.944 386.009 212.377C385.775 213.536 385.959 215.673 386.414 217.126L387.244 219.769L387.75 217.269C388.652 212.817 390.504 214.224 390.504 219.36C390.504 223.902 391.971 227.756 393.296 226.697C393.673 226.396 393.982 226.645 393.982 227.249C393.982 227.854 394.737 229.671 395.66 231.286C397.595 234.672 397.751 234.578 402.611 227.066L405.783 222.163L403.628 219.252C401.899 216.917 401.655 216.058 402.392 214.908C403.311 213.475 406.395 213.366 408.756 214.685C410.241 215.514 410.332 215.402 418.321 202.812C425.168 192.02 425.526 191.273 423.861 191.273C423.224 191.275 420.066 194.949 416.842 199.438C413.618 203.929 410.79 207.359 410.559 207.06C410.328 206.759 412.269 203.046 414.871 198.809C417.474 194.57 419.465 190.921 419.294 190.7C419.122 190.482 416.641 192.8 413.781 195.854L408.577 201.407L410.943 197.181C412.244 194.856 413.177 192.784 413.017 192.576C412.855 192.37 411.833 192.725 410.744 193.366C409.05 194.365 408.449 194.214 406.588 192.323C403.958 189.652 386.891 177.46 383.876 176.1C381.967 175.238 380.645 175.943 372.026 182.424C360.582 191.028 350.15 201.524 331.571 223.123C328.055 227.21 324.925 230.227 324.617 229.828C324.308 229.429 325.272 227.731 326.759 226.057C338.917 212.365 348.381 200.766 347.651 200.451C346.493 199.953 342.579 203.352 329.238 216.437C323.165 222.392 317.789 227.266 317.289 227.268C316.133 227.267 316.829 226.45 326.215 216.807C330.378 212.529 333.639 208.842 333.462 208.613C333.282 208.386 330.225 209.603 326.666 211.318C315.273 216.811 307.191 220.269 306.827 219.807C306.636 219.558 307.652 218.689 309.085 217.876C333.432 204.071 357.86 188.813 370.029 179.811C374.915 176.195 379.752 172.954 380.777 172.608ZM596.351 283.257C598.994 283.257 598.262 285.604 594.708 288.529C592.21 290.586 591.776 290.657 591.81 289.006C591.855 286.826 594.674 283.257 596.351 283.257ZM203.128 183.173C203.128 179.852 204.42 181.126 205.803 185.812C206.903 189.54 207.409 190.237 208.647 189.729C209.984 189.18 210.133 189.554 209.972 193.08C209.822 196.383 210.208 197.589 212.28 200.27C214.047 202.556 214.63 204.06 214.288 205.451C213.939 206.876 214.23 207.554 215.353 207.935C217.622 208.702 231.524 232.088 235.174 241.276C236.485 244.577 237.796 246.261 240.058 247.553C241.758 248.524 244.617 251.442 246.409 254.039C248.202 256.636 250.952 260.561 252.52 262.761C254.088 264.96 257.251 269.91 259.548 273.759C261.845 277.608 264.91 282.669 266.359 285.006C271.01 292.512 267.567 289.539 261.326 280.661C248.331 262.174 239.445 251.272 239.445 253.814C239.446 254.248 242.228 261.504 245.626 269.941C249.026 278.381 251.808 285.56 251.808 285.895C251.808 290.314 237.723 258.662 231.503 240.265C229.602 234.64 222.166 221.769 220.819 221.769C220.406 221.772 218.311 226.72 216.163 232.767C214.015 238.815 212.11 243.958 211.93 244.197C211.75 244.435 211.23 244.146 210.775 243.559C210.186 242.795 210.898 239.642 213.245 232.627C215.06 227.205 217.058 221.98 217.686 221.015C218.593 219.621 218.648 218.749 217.95 216.766C216.696 213.205 215.195 213.68 213.985 218.02C211.846 225.691 206.282 240.265 205.492 240.265C204.013 240.264 204.622 237.715 209.326 224.223C213.615 211.923 213.88 210.761 212.711 209.327C211.594 207.956 211.396 207.949 211.037 209.271C209.879 213.545 201.766 232.688 200.967 233.032C199.122 233.828 200.119 229.785 204.212 219.874C209.257 207.659 210.358 203.138 208.91 200.581C207.996 198.965 207.358 200.218 202.9 212.385C198.07 225.566 196.176 229.303 196.176 225.652C196.176 223.713 203.56 200.873 205.18 197.8C206.496 195.304 206.508 192.828 205.208 191.434C204.415 190.582 203.414 192.434 200.545 200.06C198.536 205.4 196.455 211.792 195.921 214.264C195.285 217.21 194.461 218.879 193.531 219.111C192.279 219.423 192.176 219.01 192.664 215.617C192.969 213.5 195.448 205.762 198.173 198.42C200.898 191.078 203.128 184.217 203.128 183.173ZM581.604 280.014C582.55 279.693 583.409 280.473 584.284 282.446C584.993 284.043 585.216 285.066 584.782 284.718C584.346 284.371 582.812 285.249 581.371 286.671C578.561 289.444 577.103 289.94 577.103 288.124C577.103 286.055 580.19 280.493 581.604 280.014ZM482.364 259.541C482.646 259.184 486.836 264.292 491.677 270.896C504.992 289.061 507.287 292.914 500.489 285.688C496.586 281.539 484.762 265.817 483.035 262.479C482.387 261.225 482.084 259.903 482.364 259.541ZM263.598 271.667C264.028 271.111 273.226 281.067 276.399 285.522C279.738 290.212 276.713 289.363 272 284.288C267.207 279.126 262.87 272.612 263.598 271.667ZM506.4 269.432C506.893 268.793 516.919 281.323 519.263 285.507C520.109 287.017 520.691 288.242 520.558 288.231C520.421 288.214 518.699 286.675 516.731 284.806C512.939 281.205 505.667 270.383 506.4 269.432ZM592.24 279.258C592.748 279.258 593.375 279.969 593.633 280.839C594.312 283.129 594.257 283.257 592.583 283.257C591.748 283.257 590.693 284.157 590.239 285.257C589.411 287.257 587.871 287.859 586.876 286.572C586.223 285.725 590.965 279.259 592.24 279.258ZM283.446 280.436C272.532 267.951 261.154 250.512 266.295 254.148C268.289 255.559 288.538 282.379 289.593 285.007C291.025 288.573 289.695 287.584 283.446 280.436ZM412.895 255.467C413.202 255.08 413.948 255.662 414.552 256.762C415.156 257.862 417.906 262.811 420.662 267.76C429.031 282.784 429.689 284.113 429.37 285.349C429.202 286.003 427.167 283.439 424.85 279.65C416.512 266.016 411.911 256.709 412.895 255.467ZM219.916 228.276C220.246 228.283 221.805 231.994 223.381 236.524C226.417 245.251 236.646 278.203 237.499 282.007C238.4 286.019 237.202 284.394 234.922 278.508C231.918 270.751 222.674 242.443 222.026 239.015C221.452 235.981 220.534 235.454 219.849 237.766C219.604 238.59 218.828 239.265 218.124 239.265C217.14 239.265 216.943 238.63 217.271 236.516C217.908 232.408 219.238 228.267 219.916 228.276ZM570.922 282.668C570.922 281.141 578.129 273.189 578.767 274.012C579.871 275.44 578.857 277.521 575.603 280.507C572.76 283.116 570.922 283.964 570.922 282.668ZM63.6399 273.436C64.6593 273.162 65.8732 274.128 67.3099 276.354C71.1932 282.374 69.3238 283.316 64.9368 277.551C62.4148 274.237 62.2778 273.801 63.6399 273.436ZM575.391 269.26C576.851 269.26 576.501 271.1 574.675 273.019C573.764 273.976 571.893 275.996 570.516 277.508C567.939 280.338 567.059 280.838 567.059 279.47C567.06 278.204 574.357 269.263 575.391 269.26ZM583.641 268.466C584.298 267.616 589.341 273.176 589.87 275.333C590.764 278.976 589.742 278.471 586.461 273.647C584.704 271.064 583.435 268.733 583.641 268.466ZM222.447 254.585C222.447 251.511 223.851 253.793 227.019 262.011C229.875 269.421 232.099 277.258 231.345 277.258C231.228 277.256 230.775 276.694 230.335 276.008C229.066 274.025 222.447 256.05 222.447 254.585ZM341.438 258.136C341.438 255.504 339.209 257.986 337.188 262.869C335.913 265.949 334.2 269.082 333.382 269.831C332.079 271.024 332.014 271.533 332.857 273.926C333.818 276.656 333.823 276.65 337.628 267.834C339.723 262.982 341.437 258.618 341.438 258.136ZM416.504 249.717C416.681 248.528 418.642 252.216 421.992 260.038C424.858 266.732 427.204 272.445 427.204 272.734C427.204 274.329 425.621 272.789 423.89 269.51C420.462 263.018 416.218 251.643 416.504 249.717ZM465.388 266.51C465.665 266.153 467.176 267.525 468.748 269.56C472.182 274.003 471.128 274.537 467.466 270.209C466.047 268.532 465.112 266.867 465.388 266.51ZM117.363 226.989C117.363 224.861 119.584 227.398 123.354 233.835C129.392 244.144 131.648 249.343 130.488 250.271C129.809 250.815 130.944 253.398 134.39 259.151C137.062 263.613 139.069 267.497 138.85 267.784C138.628 268.068 133.693 261.804 127.881 253.863C122.07 245.922 117.673 239.138 118.11 238.786C118.548 238.436 120.823 240.495 123.165 243.361C125.508 246.228 127.58 248.372 127.771 248.127C127.961 247.881 125.697 243.224 122.74 237.778C119.783 232.334 117.364 227.48 117.363 226.989ZM47.7142 255.002C48.7599 253.65 51.1185 255.587 54.3216 260.429C58.8255 267.237 57.488 268.419 51.6028 262.83C47.8682 259.283 46.5136 256.556 47.7142 255.002ZM439.157 231.486C442.356 226.566 442.979 228.705 439.877 233.963L437.152 238.584L438.801 240.674L440.451 242.765L442.662 239.383C444.249 236.956 445.26 236.193 446.243 236.681C447.471 237.29 447.404 237.588 445.594 239.562C443.322 242.041 441.693 245.679 442.427 246.632C443.566 248.105 445.132 247.036 446.623 243.766C448.247 240.206 450.058 239.949 449.366 243.377C449.07 244.837 449.399 245.264 450.828 245.264C452.206 245.264 452.799 245.961 453.167 248.014C453.439 249.526 454.215 251.333 454.892 252.029C455.931 253.098 455.978 253.791 455.192 256.486C454.003 260.562 455.286 262.815 457.057 259.762C458.196 257.798 458.25 257.816 460.092 260.762C462.501 264.615 462.462 264.927 459.563 264.927C457.942 264.926 455.979 263.715 453.575 261.229C451.608 259.194 449.131 256.311 448.072 254.822C446.299 252.331 446.253 252.037 447.492 251.14C448.233 250.603 448.839 249.207 448.839 248.039V245.915L447.051 248.089C446.068 249.284 444.938 250.249 444.54 250.232C444.142 250.216 441.925 247.768 439.615 244.795C434.931 238.77 434.906 238.023 439.157 231.486ZM523.631 246.44C522.844 246.263 520.557 247.733 518.551 249.706C516.544 251.68 513.251 254.705 511.233 256.428C507.881 259.289 506.745 261.869 508.077 263.594C509.108 264.927 510.062 264.109 517.496 255.512C523.154 248.969 524.701 246.682 523.631 246.44ZM109.561 251.822C111.177 250.53 111.243 253.909 109.694 258.586C108.274 262.87 105.748 265.087 105.789 262.011C105.818 260.098 108.592 252.598 109.561 251.822ZM336.019 247.514C336.036 245.136 334.603 246.278 332.878 250.013C331.926 252.075 330.299 254.957 329.263 256.418C327.44 258.988 327.339 263.26 329.101 263.261C329.483 263.261 331.194 259.998 332.903 256.012C334.611 252.026 336.013 248.202 336.019 247.514ZM477.804 243.03C471.68 231.187 470.333 226.523 475.328 234.461C480.516 242.704 489.441 262.258 488.017 262.261C487.833 262.259 486.825 260.573 485.777 258.512C484.728 256.449 481.14 249.483 477.804 243.03ZM580.469 251.263C581.324 251.263 583.507 253.131 589.354 258.868C589.504 259.016 589.501 259.626 589.348 260.223C589.194 260.82 586.898 259.386 584.246 257.036C579.46 252.793 578.46 251.263 580.469 251.263ZM550.592 253.137C558.526 244.332 558.452 242.933 550.362 248.788C545.057 252.627 544.294 253.615 544.945 255.81C545.609 258.052 546.575 257.595 550.592 253.137ZM99.0706 236.725C99.6559 234.223 97.6038 230.44 96.4622 231.916C95.4535 233.222 86.4557 253.313 86.4554 254.261C86.4561 255.289 89.8587 257.143 90.3792 256.399C90.6254 256.046 92.5784 251.918 94.719 247.223C96.8604 242.526 98.8185 237.802 99.0706 236.725ZM453.006 254.681C454.083 251.049 452.281 249.806 450.336 252.839C449.499 254.145 449.516 254.571 450.435 255.323C451.999 256.604 452.471 256.485 453.006 254.681ZM332.329 243.264C331.704 243.267 326.757 253.295 326.757 254.561C326.757 256.719 328.453 254.581 330.547 249.778C333.101 243.923 333.281 243.264 332.329 243.264ZM115.818 202.148C115.818 199.609 118.919 202.182 125.45 210.137C129.452 215.012 137.006 222.865 142.237 227.589C151.065 235.561 166.021 253.263 163.929 253.263C163.422 253.26 159.257 248.961 154.674 243.708C150.09 238.453 144.252 232.522 141.702 230.527C136.518 226.472 135.678 225.61 124.059 212.396C119.528 207.243 115.82 202.633 115.818 202.148ZM409.82 248.264C411.616 248.264 411.795 249.902 410.203 251.766C408.85 253.35 408.644 253.368 408.222 251.946C407.643 249.992 408.392 248.264 409.82 248.264ZM93.0716 224.955C92.1067 223.309 91.4328 224.389 85.6976 236.794C82.2274 244.299 79.5012 250.559 79.637 250.707C80.691 251.802 83.039 253.022 83.4534 252.691C83.7342 252.464 86.2616 246.901 89.0716 240.324C91.8826 233.745 94.172 228.003 94.1585 227.564C94.1469 227.125 93.6556 225.952 93.0716 224.955ZM328.612 242.103C328.346 241.548 327.329 242.812 326.35 244.911C324.835 248.16 324.528 250.262 325.568 250.263C325.714 250.261 326.566 248.652 327.462 246.687C328.359 244.72 328.876 242.657 328.612 242.103ZM88.3382 223.468C89.661 220.079 89.3245 215.865 87.7845 216.529C87.3101 216.739 83.6792 223.599 79.7142 231.78C72.5702 246.52 72.5187 246.673 74.2532 247.874C75.2164 248.541 76.2207 248.915 76.4847 248.704C76.7486 248.493 79.2335 243.471 82.0071 237.544C84.7808 231.617 87.6297 225.282 88.3382 223.468ZM300.929 245.49C299.594 243.841 299.574 243.867 300.458 246.1C300.967 247.384 301.596 248.16 301.855 247.825C302.114 247.49 301.697 246.439 300.929 245.49ZM414.734 228.64C413.171 226.81 413.11 226.83 411.225 229.772C410.17 231.419 407.76 235.462 405.869 238.757C402.672 244.329 402.529 244.838 403.808 246.056C405.005 247.195 405.435 246.984 407.116 244.428C408.178 242.812 410.684 239.018 412.685 235.996L416.324 230.502L414.734 228.64ZM226.566 157.286C223.39 146.811 222.554 141.831 224.08 142.487C225.258 142.997 233.104 169.356 233.202 173.135C233.248 174.844 232.942 175.332 232.095 174.911C231.162 174.448 231.029 174.88 231.434 177.054C232.137 180.829 235.85 190.268 237.815 193.276C239.278 195.517 239.208 194.885 237.127 187.104C235.853 182.338 234.821 177.389 234.835 176.107L234.864 173.777L236.267 175.952C237.039 177.149 239.026 183.447 240.682 189.949L243.694 201.772L250.117 209.749C255.479 216.407 257.057 219.133 259.665 226.245C261.384 230.931 263.959 237.353 265.389 240.515C268.458 247.302 267.742 247.97 263.787 242.015C262.235 239.678 259.241 233.431 257.134 228.134C254.001 220.257 252.348 217.404 248.065 212.479C238.312 201.262 230.754 186.877 227.787 173.885C226.98 170.348 227.595 168.755 229.131 170.404C230.106 171.452 230.189 171.207 229.705 168.703C229.394 167.095 227.982 161.957 226.566 157.286ZM84.3987 211.101C83.7014 209.078 83.4281 209.321 80.1731 214.854C78.2591 218.107 74.683 224.788 72.2269 229.7C69.7709 234.612 67.2361 239.67 66.5931 240.939C65.4998 243.099 65.5418 243.309 67.2474 244.192C68.2496 244.712 69.2467 245.165 69.4632 245.2C69.6788 245.236 72.0233 240.652 74.6722 235.016C77.321 229.379 80.7602 222.178 82.3157 219.015C84.6009 214.367 85.0012 212.848 84.3987 211.101ZM266.099 200.425C266.7 198.398 267.512 199.811 269.169 205.771C271.856 215.433 275.661 227.837 278.017 234.609C279.326 238.372 280.397 242.083 280.397 242.857C280.397 245.694 278.83 244.141 277.024 239.515C273.851 231.387 265.636 201.993 266.099 200.425ZM251.817 171.277C252.852 171.28 255.318 178.239 261.561 198.772C264.403 208.121 268.083 219.984 269.739 225.135C272.944 235.108 273.47 240.258 270.608 233.642C269.686 231.51 265.799 219.644 261.97 207.271C258.141 194.899 254.118 182.301 253.03 179.276C250.899 173.357 250.584 171.278 251.817 171.277ZM77.9935 191.804C77.2087 191.178 72.7906 197.889 63.8626 213.27C60.8302 218.494 56.8074 225.13 54.9231 228.018C52.0776 232.378 51.6597 233.521 52.4583 234.767C53.8459 236.93 55.787 236.609 57.011 234.016C59.1443 229.495 72.9105 204.643 75.7786 200.134C78.7108 195.524 79.4008 192.929 77.9935 191.804ZM294.205 218.269C293.862 218.269 293.787 219.057 294.037 220.019C295.003 223.719 299.192 235.271 299.449 234.942C299.596 234.748 299.062 232.156 298.261 229.181C296.293 221.868 294.955 218.269 294.205 218.269ZM75.2962 185.562C74.9028 184.237 74.0634 184.867 70.9192 188.848C66.6543 194.248 55.0739 211.812 48.6145 222.676C44.7605 229.158 44.5951 229.664 45.9261 230.924C47.8378 232.733 48.0111 232.677 50.2776 229.517C51.3622 228.004 55.4788 221.143 59.4251 214.27C63.3713 207.396 68.6664 198.494 71.1917 194.487C74.2738 189.598 75.6228 186.664 75.2962 185.562ZM70.4935 182.525C74.6346 176.818 70.7134 178.693 66.1448 184.604C58.8797 194.005 38.5505 225.229 38.5501 226.986C38.5504 227.691 39.3327 228.243 40.2884 228.215C41.5735 228.179 43.7404 225.26 48.595 217.032C55.4035 205.492 66.39 188.18 70.4935 182.525ZM30.9749 218.519C39.4864 205.131 39.7546 203.394 31.6683 214.027C27.3803 219.666 23.8717 224.726 23.8694 225.274C23.8694 228.03 26.5449 225.486 30.9749 218.519ZM44.5989 190.404C50.8705 181.525 50.9685 181.311 48.4622 181.928C42.8483 183.309 40.6031 184.722 40.4808 186.952C40.3394 189.536 33.9442 199.932 24.0628 213.64C20.1328 219.091 16.9169 224.162 16.9153 224.91C16.9153 227.413 19.1742 226.299 21.7259 222.537C23.1173 220.485 27.3846 214.465 31.2093 209.16C35.034 203.855 41.0597 195.415 44.5989 190.404ZM69.0218 174.413C68.561 173.759 65.3112 177.632 59.0257 186.33C55.6259 191.035 47.9771 201.536 42.0276 209.665C36.0792 217.793 31.0958 224.853 30.9524 225.356C30.8106 225.857 31.6802 226.239 32.8841 226.205C34.7364 226.153 36.084 224.451 41.6409 215.143C45.2531 209.092 52.9486 197.534 58.7425 189.459C64.534 181.387 69.1585 174.619 69.0218 174.413ZM31.3753 191.654C31.558 191.891 30.8449 193.815 29.7913 195.929C27.2295 201.067 9.95791 223.137 9.97295 221.252C9.97867 220.436 10.2851 219.156 10.6517 218.407C11.8365 215.989 31.0199 191.225 31.3753 191.654ZM406.307 217.184C405.832 216.037 405.291 215.298 405.103 215.541C404.562 216.241 405.659 219.268 406.452 219.269C406.847 219.268 406.781 218.331 406.307 217.184ZM201.778 175.454C203.469 175.05 203.7 179.778 202.03 180.608C200.549 181.345 192.59 202.745 191.928 207.771C191.209 213.232 189.335 215.935 188.084 213.316C186.906 210.846 199.509 175.999 201.778 175.454ZM19.3421 189.274C20.1314 189.274 20.7776 189.446 20.7786 189.655C20.7786 189.865 17.4324 193.915 13.3421 198.654C6.29256 206.822 3.25732 209.197 4.28154 205.743C5.02685 203.231 17.7867 189.279 19.3421 189.274ZM197.366 163.029C197.94 160.006 198.486 159.671 199.884 161.479C201.135 163.098 201.06 166.99 199.758 167.979C199.178 168.42 195.68 176.541 191.986 186.025C185.741 202.056 182.938 207.233 184.136 200.522C184.406 199.01 187.375 190.574 190.735 181.775C194.094 172.977 197.078 164.541 197.366 163.029ZM3.77959 200.141C3.77977 197.885 14.971 185.633 15.679 187.113C15.912 187.602 13.8182 190.988 11.0257 194.637C6.25586 200.87 3.77967 202.75 3.77959 200.141ZM47.9046 194C48.6468 192.144 48.3927 192.262 46.3772 194.71C43.5761 198.112 43.3505 198.764 45.4866 197.285C46.3268 196.703 47.4148 195.225 47.9046 194ZM10.9534 184.275C12.2361 184.275 11.3085 186.805 8.34404 191.386C5.28757 196.109 3.00713 197.647 3.00713 194.985C3.00892 193.656 9.96652 184.279 10.9534 184.275ZM277.527 193.258C277.144 191.363 275.761 189.423 275.761 190.78C275.761 191.63 277.29 195.271 277.648 195.273C277.805 195.272 277.75 194.365 277.527 193.258ZM193.084 138.218C193.084 136.094 193.39 135.301 194.051 135.7C194.582 136.021 195.653 136.57 196.431 136.921C197.467 137.388 197.702 138.125 197.308 139.672C196.564 142.591 196.654 145.007 197.71 150.529C198.6 155.181 198.567 155.352 196.044 159.167C194.629 161.308 191.933 166.82 190.052 171.417C185.483 182.586 183.179 187.273 182.258 187.274C180.918 187.274 181.433 184.543 183.708 179.593C184.926 176.944 188.194 169.412 190.971 162.855C195.165 152.955 195.872 150.626 195.145 149.119C194.313 147.396 194.203 147.392 192.951 149.043C191.373 151.126 181.861 172.39 177.578 183.411C174.506 191.318 172.98 193.194 173.013 189.024C173.036 186.485 174.907 181.868 185.585 158.047C190.676 146.69 193.084 140.322 193.084 138.218ZM99.2376 179.276C100.507 179.276 108.09 187.957 108.091 189.411C108.091 191.534 105.396 189.899 101.876 185.639C97.872 180.792 97.2437 179.277 99.2376 179.276ZM175.895 124.43C176.67 122.78 177.246 122.389 177.816 123.126C178.692 124.26 176.526 129.436 166.446 150.282C159.455 164.739 152.445 180.818 151.332 184.949C150.47 188.149 148.668 189.917 147.903 188.314C147.001 186.427 147.637 184.934 167.084 143.283C171.321 134.21 175.285 125.726 175.895 124.43ZM137.454 163.279C137.056 163.283 134.867 166.993 132.588 171.527C125.441 185.749 125.029 186.795 126.042 188.107C127.349 189.798 128.268 188.316 132.351 177.941C134.263 173.084 136.139 168.584 136.52 167.943C137.676 165.999 138.221 163.279 137.454 163.279ZM60.8851 177.276C60.6717 177.278 59.1399 179.078 57.4808 181.276C55.8218 183.475 54.6379 185.274 54.8489 185.275C55.0612 185.275 56.5935 183.476 58.2532 181.276C59.9128 179.077 61.097 177.277 60.8851 177.276ZM138.311 150.282C137.2 150.288 121.228 181.56 121.226 183.735C121.226 186.988 123.179 184.624 127.553 176.077C133.261 164.922 139.365 150.286 138.311 150.282ZM191.079 129.453C191.676 128.681 192.545 128.354 193.011 128.727C194.347 129.796 194.001 132.807 192.315 134.782C190.332 137.105 180.452 157.242 174.244 171.612C171.533 177.889 168.854 182.914 168.121 183.097C167.148 183.339 166.952 182.961 167.345 181.599C168.756 176.707 189.095 132.021 191.079 129.453ZM183.217 126.38C188.513 115.642 190.617 112.914 190.2 117.329C190.035 119.068 162.788 174.467 159.279 180.197C158.426 181.59 157.59 182.186 157.31 181.601C156.735 180.396 159.834 173.792 183.217 126.38ZM123.85 171.271C128.353 161.895 128.953 160.205 127.05 162.248C125.55 163.859 118.135 178.858 118.135 180.28C118.135 182.445 119.568 180.187 123.85 171.271ZM121.051 166.098C120.911 165.557 118.928 167.893 116.644 171.291C113.481 175.997 112.741 177.668 113.537 178.307C114.98 179.46 115.444 178.937 118.57 172.613C120.073 169.572 121.19 166.64 121.051 166.098ZM112.283 173.124C113.936 168.838 113.883 168.797 110.795 171.985C107.739 175.141 107.417 176.277 109.579 176.277C110.478 176.277 111.55 175.026 112.283 173.124ZM158.133 137.529C159.905 136.765 159.111 141.012 156.575 145.858C154.031 150.723 152.13 152.546 152.136 150.115C152.141 148.209 156.995 138.022 158.133 137.529ZM198.289 133.189C198.783 130.749 200.133 131.193 201.293 134.177C201.77 135.405 202.467 136.371 202.839 136.324C205.503 135.988 212.401 145.23 212.402 149.137C212.402 151.591 210.305 150.104 209.08 146.782C207.78 143.255 206.595 142.328 206.057 144.416C205.091 148.162 197.485 137.17 198.289 133.189ZM679.868 144.781C685.823 144.451 688.193 144.601 687.054 145.235C684.933 146.413 589.333 149.05 590.303 147.904C590.481 147.696 608.706 147.02 630.804 146.4C652.902 145.781 674.98 145.052 679.868 144.781ZM157.138 131.285C158.778 131.285 158.672 131.761 155.554 138.403C152.748 144.381 151.361 145.729 151.361 142.479C151.361 139.826 155.768 131.288 157.138 131.285ZM575.171 136.307C624.223 134.987 647.268 134.763 647.917 135.6C648.208 135.976 647.084 136.298 645.42 136.314C615.299 136.613 481.082 140.917 445.363 142.729C440.145 142.993 437.61 142.832 438.795 142.311C442.926 140.495 479.785 138.872 575.171 136.307ZM673.688 134.4C673.688 132.031 697.912 132.698 704.981 135.263C707.439 136.155 707.049 136.161 684.698 135.537C678.643 135.368 673.689 134.857 673.688 134.4ZM542.609 101.564C547.81 93.0074 551.896 90.9036 562.194 91.4805C567.808 91.795 570.741 92.4745 573.552 94.1104C578.68 97.0949 577.781 97.6416 572.074 95.0098C568.776 93.4891 565.557 92.8634 560.877 92.834C555.018 92.7974 553.866 93.1106 550.196 95.7412C547.933 97.3629 545.378 99.9712 544.516 101.537C542.473 105.251 541.785 111.724 543.198 113.942C544.167 115.463 544.105 115.506 542.526 114.417C540.875 113.279 540.62 112.466 540.45 107.79C540.298 103.589 525.738 104.965 518.227 109.89C514.217 112.519 512.634 115.028 511.826 120.037C511.303 123.288 510.392 124.167 509.494 122.287C508.724 120.674 501.579 121.139 498.459 123.006L495.586 124.725L501.381 125.256L507.176 125.786L496.359 127.134C487.002 128.299 479.485 129.461 466.225 131.793C463.51 132.27 463.369 132.204 465.066 131.248C468.068 129.555 476.421 127.525 483.224 126.835C492.482 125.895 494.427 125.362 494.427 123.767C494.428 121.475 498.924 119.102 504.561 118.42C509.403 117.834 509.914 117.54 511.571 114.391C512.553 112.522 515.254 109.615 517.572 107.931C521.518 105.062 522.396 104.841 531.446 104.451C540.616 104.056 541.183 103.91 542.609 101.564ZM592.943 129.757C600.556 129.435 604.712 129.58 603.76 130.135C601.889 131.221 545.359 132.166 543.356 131.145C542.586 130.749 550.642 130.393 561.263 130.353C571.887 130.312 586.143 130.044 592.943 129.757ZM665.335 115.305C670.532 115.338 677.495 122.788 676.421 127.166C675.67 130.228 674.46 129.77 674.46 126.423C674.46 122.328 671.317 118.655 667.117 117.84C662.982 117.037 661.748 115.282 665.335 115.305ZM609.555 124.807C620.39 124.739 629.952 125.015 630.804 125.421C631.654 125.827 623.482 126.189 612.646 126.225C601.809 126.26 582.25 126.587 569.183 126.949C551.365 127.444 545.423 127.318 545.423 126.447C545.423 125.287 549.446 125.184 609.555 124.807ZM507.886 125.418C508.54 124.049 514.012 123.235 517.913 123.927C523.827 124.976 521.915 126.286 514.471 126.286C510.623 126.286 507.66 125.895 507.886 125.418ZM530.742 123.286C532.017 123.286 533.06 123.736 533.061 124.286C533.061 124.836 532.017 125.286 530.742 125.286C529.468 125.286 528.425 124.836 528.425 124.286C528.425 123.736 529.468 123.286 530.742 123.286ZM646.498 92.3652C649.992 92.2655 657.07 96.7703 659.037 100.346C660.833 103.608 660.868 109.337 659.098 110.09C658.283 110.436 658.123 109.744 658.425 107.167C658.643 105.31 658.52 103.043 658.152 102.13C657.24 99.8727 653.018 96.6109 648.054 94.3291C644.209 92.5617 644.107 92.4335 646.498 92.3652ZM579.237 78.4268C587.027 65.887 602.981 59.9388 614.623 65.2334C623.674 69.3498 633.033 80.5913 634.013 88.5244C634.399 91.6534 634.79 92.2919 636.312 92.292C637.32 92.2921 638.145 92.7423 638.145 93.292C638.145 93.8419 637.709 94.2982 637.178 94.3057C636.646 94.3137 635.43 94.5905 634.474 94.9219C632.888 95.4719 632.736 95.1816 632.736 91.6045C632.735 81.6336 621.792 69.4552 610.003 66.3066C599.466 63.4926 586.146 69.8688 580.077 80.6318C577.953 84.3998 577.775 85.291 578.197 90.043C578.682 95.5124 577.553 97.4574 576.636 92.7314C575.772 88.2754 576.87 82.2368 579.237 78.4268ZM177.137 83.292C188.399 82.5816 198.787 82.4147 202.248 82.8887L208.152 83.6973L202.357 84.3799C195.434 85.1944 133.928 86.2638 128.952 85.6562C127.039 85.4227 118.869 84.8356 110.795 84.3516C99.4523 83.6716 103.141 83.5886 127.021 83.9873C146.198 84.3075 165.218 84.0439 177.137 83.292ZM291.601 79.8232C297.73 79.3607 297.714 79.3691 289.669 80.8223C279.758 82.6124 220.408 84.1565 221.139 82.6055C221.43 81.9975 233.895 81.3612 253.515 80.9531C271.062 80.5881 288.2 80.0798 291.601 79.8232ZM218.197 59.5469C224.218 58.9216 229.937 61.2016 233.618 65.6943L236.257 68.915L249.248 70.1582C273.603 72.4901 295.787 75.1048 301.141 76.2744C304.559 77.0211 304.469 77.0599 299.327 77.0469C296.352 77.0391 289.05 76.4349 283.101 75.7041C266.312 73.6418 242.547 71.299 238.407 71.2979C235.408 71.297 234.59 70.9265 234.288 69.4355C233.378 64.935 222.907 60.6602 215.203 61.6445C211.558 62.1103 210.805 61.9956 211.927 61.1475C212.729 60.5417 215.551 59.8217 218.197 59.5469ZM77.3772 73.9443C89.6075 72.7761 134.786 72.0113 139.386 72.8945C142.831 73.5564 136.784 73.9417 115.818 74.3965C100.307 74.733 83.8776 75.3661 79.3089 75.8037C73.7591 76.3354 71.0022 76.2599 71.0022 75.5762C71.0026 75.0103 73.8521 74.2811 77.3772 73.9443ZM200.753 61.2988C202.537 61.2991 206.375 65.1652 205.796 66.3779C205.118 67.7969 203.746 67.4551 201.005 65.1836C198.417 63.0388 198.305 61.299 200.753 61.2988ZM83.3655 64.2461C95.8872 63.6201 108.263 63.5263 113.499 64.0176C121.332 64.7525 119.088 64.9381 94.5686 65.585C79.2702 65.9885 64.6277 66.596 62.0296 66.9346C58.8834 67.3446 57.1273 67.1741 56.7688 66.4238C56.4058 65.6639 57.1874 65.2992 59.1731 65.3027C60.7918 65.3057 71.679 64.8304 83.3655 64.2461ZM37.3909 56.3418C50.1652 55.0811 140.319 53.8302 139.51 54.9248C139.152 55.4059 134.285 55.8321 128.693 55.8721C97.0199 56.0985 35.497 58.4474 26.5735 59.7705C14.6674 61.5359 14.597 61.5392 14.597 60.4404C14.5985 59.4094 24.687 57.5956 37.3909 56.3418ZM114.273 0C123.994 -0.0113131 129.565 1.71056 139.58 7.82129C147.94 12.9221 154.184 20.2156 156.284 27.3311L157.614 31.834L167.429 31.8701C175.633 31.8995 178.007 32.2711 181.881 34.1328C191.762 38.8808 198.235 46.6709 197.353 52.752C196.641 57.6568 191.539 63.0643 191.539 58.9141C191.539 58.1525 192.409 56.7923 193.471 55.8916C195.809 53.9092 196.071 49.3937 193.99 46.9561C192.06 44.6963 191.31 44.8777 192.335 47.3564C192.803 48.4865 193.043 49.9484 192.87 50.6055C192.697 51.2623 191.816 49.9313 190.911 47.6475C188.603 41.8201 184.753 38.0895 178.225 35.3564C171.654 32.6054 166.045 32.4191 159.105 34.7197C153.195 36.679 149.178 39.7112 148.233 42.9287C147.48 45.4894 145.952 46.1648 145.952 43.9365C145.953 41.5145 148.781 37.827 152.465 35.4463C156.413 32.8951 156.458 32.4806 153.606 25.1631C149.719 15.1921 134.162 4.73805 119.681 2.36621C101.257 -0.651036 76.5409 13.331 73.7073 28.374C73.3232 30.4137 73.5916 31.1718 75.011 32.0557C76.438 32.9446 74.9816 33.1823 67.7591 33.2363C60.3974 33.2915 57.6013 33.7613 52.6917 35.7686C45.853 38.5645 40.6312 42.5014 37.6194 47.1328C35.235 50.7995 34.6868 51.0335 34.6868 48.3848C34.6872 44.9792 43.6778 37.3856 51.8558 33.8838C55.6602 32.2548 65.004 30.3048 69.0032 30.3047C71.553 30.3047 71.8626 29.9437 73.761 24.751C76.2379 17.976 81.1867 12.5988 89.9329 7.18066C98.6416 1.78588 104.657 0.0112482 114.273 0ZM79.0052 32.6133C79.6413 31.7918 81.8196 33.0758 81.8196 34.2725C81.8193 35.6291 79.7354 35.6024 79.0833 34.2373C78.803 33.6509 78.7686 32.9196 79.0052 32.6133Z" fill="#FFB732" fill-opacity="0.339216"/>
</svg>
