<svg width="97" height="15" viewBox="0 0 97 15" fill="none" xmlns="http://www.w3.org/2000/svg">
<path d="M5.5 5.51569H4.5L5.47297 4.3574C5.4747 4.35533 5.47633 4.34424 5.47786 4.32521H4.83333L5.49737 3.13944C5.49782 3.05843 5.4982 2.97707 5.49853 2.89664H5.16667L5.5 2.18236L5.83333 2.89664H5.49853C5.4982 2.97707 5.49782 3.05843 5.49737 3.13944L5.5 3.13474L6.16667 4.32521H5.5L6.5 5.51569H5.5Z" fill="black"/>
<path d="M11.5 7.51569H10.5L11.473 6.3574C11.4747 6.35533 11.4763 6.34424 11.4779 6.32521H10.8333L11.4974 5.13944C11.4978 5.05843 11.4982 4.97707 11.4985 4.89664H11.1667L11.5 4.18236L11.8333 4.89664H11.4985C11.4982 4.97707 11.4978 5.05843 11.4974 5.13944L11.5 5.13474L12.1667 6.32521L11.5 6.32521L12.5 7.51569H11.5Z" fill="black"/>
<path d="M63.5 7.51569H62.5L63.473 6.3574C63.4747 6.35533 63.4763 6.34424 63.4779 6.32521H62.8333L63.4974 5.13944C63.4978 5.05843 63.4982 4.97707 63.4985 4.89664H63.1667L63.5 4.18236L63.8333 4.89664H63.4985C63.4982 4.97707 63.4978 5.05843 63.4974 5.13944L63.5 5.13474L64.1667 6.32521L63.5 6.32521L64.5 7.51569H63.5Z" fill="black"/>
<path d="M48.5 4.51569L47.5 4.51569L48.473 3.3574C48.4747 3.35533 48.4763 3.34424 48.4779 3.32521H47.8333L48.4974 2.13944C48.4978 2.05843 48.4982 1.97707 48.4985 1.89664L48.1667 1.89664L48.5 1.18236L48.8333 1.89664L48.4985 1.89664C48.4982 1.97707 48.4978 2.05843 48.4974 2.13944L48.5 2.13474L49.1667 3.32521H48.5L49.5 4.51569L48.5 4.51569Z" fill="black"/>
<path d="M86.5 8.51569H85.5L86.473 7.3574C86.4747 7.35533 86.4763 7.34424 86.4779 7.32521H85.8333L86.4974 6.13944C86.4978 6.05843 86.4982 5.97707 86.4985 5.89664H86.1667L86.5 5.18236L86.8333 5.89664L86.4985 5.89664C86.4982 5.97707 86.4978 6.05843 86.4974 6.13944L86.5 6.13474L87.1667 7.32521L86.5 7.32521L87.5 8.51569H86.5Z" fill="black"/>
<path d="M96.5 14.1824H0.5V9.18236L3 6.68236L6.5 7.68236L10 9.68236L16 7.68236L30 4.68236L32.5 6.18236L37 8.68236L39 7.18236L42 9.18236H44L49 5.68236L52.5 3.68236L56 3.18236L60 6.18236L62 8.4503L66 9.68236L67 9.18236H70L71.5 6.18236L75 9.18236L79.5 8.18236L80.5 9.18236L86.5 10.1824L91 8.4503L94 10.1824L96.5 11.6824V14.1824Z" fill="black"/>
<path d="M5.5 7.18236L5.5 5.51569M5.5 5.51569H4.5L5.47297 4.3574M5.5 5.51569H6.5L5.5 4.32521M5.5 5.51569V4.32521M5.5 4.32521L5.5 3.13474M5.5 4.32521H5.47786M5.5 4.32521H6.16667L5.5 3.13474M5.5 4.32521L5.47297 4.3574M5.5 3.13474L5.49737 3.13944M5.49737 3.13944L4.83333 4.32521H5.47786M5.49737 3.13944C5.49439 3.67371 5.48852 4.1925 5.47786 4.32521M5.49737 3.13944C5.49782 3.05843 5.4982 2.97707 5.49853 2.89664M5.47786 4.32521C5.47633 4.34424 5.4747 4.35533 5.47297 4.3574M5.49853 2.89664C5.49959 2.63343 5.5 2.38024 5.5 2.18236M5.49853 2.89664H5.16667L5.5 2.18236M5.49853 2.89664H5.83333L5.5 2.18236M11.5 9.18236V7.51569M11.5 7.51569H10.5L11.473 6.3574M11.5 7.51569H12.5L11.5 6.32521M11.5 7.51569V6.32521M11.5 6.32521V5.13474M11.5 6.32521H11.4779M11.5 6.32521L12.1667 6.32521L11.5 5.13474M11.5 6.32521L11.473 6.3574M11.5 5.13474L11.4974 5.13944M11.4974 5.13944L10.8333 6.32521H11.4779M11.4974 5.13944C11.4944 5.67371 11.4885 6.1925 11.4779 6.32521M11.4974 5.13944C11.4978 5.05843 11.4982 4.97707 11.4985 4.89664M11.4779 6.32521C11.4763 6.34424 11.4747 6.35533 11.473 6.3574M11.4985 4.89664C11.4996 4.63343 11.5 4.38024 11.5 4.18236M11.4985 4.89664H11.1667L11.5 4.18236M11.4985 4.89664H11.8333L11.5 4.18236M63.5 9.18236V7.51569M63.5 7.51569H62.5L63.473 6.3574M63.5 7.51569H64.5L63.5 6.32521M63.5 7.51569V6.32521M63.5 6.32521V5.13474M63.5 6.32521H63.4779M63.5 6.32521L64.1667 6.32521L63.5 5.13474M63.5 6.32521L63.473 6.3574M63.5 5.13474L63.4974 5.13944M63.4974 5.13944L62.8333 6.32521H63.4779M63.4974 5.13944C63.4944 5.67371 63.4885 6.1925 63.4779 6.32521M63.4974 5.13944C63.4978 5.05843 63.4982 4.97707 63.4985 4.89664M63.4779 6.32521C63.4763 6.34424 63.4747 6.35533 63.473 6.3574M63.4985 4.89664C63.4996 4.63343 63.5 4.38024 63.5 4.18236M63.4985 4.89664H63.1667L63.5 4.18236M63.4985 4.89664H63.8333L63.5 4.18236M48.5 6.18236V4.51569M48.5 4.51569L47.5 4.51569L48.473 3.3574M48.5 4.51569L49.5 4.51569L48.5 3.32521M48.5 4.51569V3.32521M48.5 3.32521V2.13474M48.5 3.32521H48.4779M48.5 3.32521H49.1667L48.5 2.13474M48.5 3.32521L48.473 3.3574M48.5 2.13474L48.4974 2.13944M48.4974 2.13944L47.8333 3.32521H48.4779M48.4974 2.13944C48.4944 2.67371 48.4885 3.1925 48.4779 3.32521M48.4974 2.13944C48.4978 2.05843 48.4982 1.97707 48.4985 1.89664M48.4779 3.32521C48.4763 3.34424 48.4747 3.35533 48.473 3.3574M48.4985 1.89664C48.4996 1.63343 48.5 1.38024 48.5 1.18236M48.4985 1.89664L48.1667 1.89664L48.5 1.18236M48.4985 1.89664L48.8333 1.89664L48.5 1.18236M86.5 10.1824V8.51569M86.5 10.1824L91 8.4503L94 10.1824L96.5 11.6824V14.1824H0.5V9.18236L3 6.68236L6.5 7.68236L10 9.68236L16 7.68236L30 4.68236L32.5 6.18236L37 8.68236L39 7.18236L42 9.18236H44L49 5.68236L52.5 3.68236L56 3.18236L60 6.18236L62 8.4503L66 9.68236L67 9.18236H70L71.5 6.18236L75 9.18236L79.5 8.18236L80.5 9.18236L86.5 10.1824ZM86.5 8.51569H85.5L86.473 7.3574M86.5 8.51569H87.5L86.5 7.32521M86.5 8.51569V7.32521M86.5 7.32521V6.13474M86.5 7.32521H86.4779M86.5 7.32521L87.1667 7.32521L86.5 6.13474M86.5 7.32521L86.473 7.3574M86.5 6.13474L86.4974 6.13944M86.4974 6.13944L85.8333 7.32521H86.4779M86.4974 6.13944C86.4944 6.67371 86.4885 7.1925 86.4779 7.32521M86.4974 6.13944C86.4978 6.05843 86.4982 5.97707 86.4985 5.89664M86.4779 7.32521C86.4763 7.34424 86.4747 7.35533 86.473 7.3574M86.4985 5.89664C86.4996 5.63343 86.5 5.38024 86.5 5.18236M86.4985 5.89664H86.1667L86.5 5.18236M86.4985 5.89664L86.8333 5.89664L86.5 5.18236" stroke="black"/>
</svg>
